<svg width="917" height="150" viewBox="0 0 896 114" fill="none" xmlns="http://www.w3.org/2000/svg">
<path d="M54.46 113.61C44.1467 113.61 35.5233 112.137 28.59 109.19C21.7433 106.243 16.24 102.213 12.08 97.1C8.00667 91.9 5.10333 85.8767 3.37 79.03C1.63667 72.0967 0.77 64.73 0.77 56.93C0.77 49.13 1.63667 41.8067 3.37 34.96C5.10333 28.0267 8.00667 22.0033 12.08 16.89C16.24 11.7767 21.7433 7.74666 28.59 4.8C35.5233 1.76666 44.1467 0.249995 54.46 0.249995C60.44 0.249995 65.8133 0.726661 70.58 1.67999C75.4333 2.63333 79.68 4.10666 83.32 6.1C85.92 7.4 87.87 9.04666 89.17 11.04C90.5567 13.0333 91.4233 15.2 91.77 17.54C92.2033 19.7933 92.16 22.1333 91.64 24.56C91.12 26.9 90.2533 29.1533 89.04 31.32C87.8267 33.5733 86.31 35.61 84.49 37.43C82.67 39.25 80.6333 40.68 78.38 41.72C76.2133 42.6733 73.8733 43.1933 71.36 43.28C68.9333 43.28 66.42 42.63 63.82 41.33C62.6933 40.7233 61.35 40.2467 59.79 39.9C58.23 39.4667 56.4533 39.25 54.46 39.25C51.34 39.25 48.6967 39.7267 46.53 40.68C44.3633 41.6333 42.5867 42.9333 41.2 44.58C39.9 46.2267 38.9033 48.09 38.21 50.17C37.6033 52.25 37.3 54.46 37.3 56.8C37.3 59.14 37.6033 61.3933 38.21 63.56C38.9033 65.7267 39.9 67.6333 41.2 69.28C42.5867 70.9267 44.3633 72.2267 46.53 73.18C48.6967 74.1333 51.34 74.61 54.46 74.61C56.4533 74.61 58.23 74.4367 59.79 74.09C61.35 73.6567 62.6933 73.1367 63.82 72.53C66.42 71.23 68.9767 70.6233 71.49 70.71C74.09 70.71 76.5167 71.2733 78.77 72.4C81.0233 73.5267 83.0167 75.0433 84.75 76.95C86.57 78.77 88.0867 80.85 89.3 83.19C90.4267 85.3567 91.2067 87.61 91.64 89.95C92.0733 92.29 92.0733 94.5867 91.64 96.84C91.2933 99.0067 90.4267 101.043 89.04 102.95C87.6533 104.943 85.7467 106.59 83.32 107.89C79.68 109.883 75.4333 111.313 70.58 112.18C65.8133 113.133 60.44 113.61 54.46 113.61ZM136.36 90.47C136.447 93.07 136.273 95.67 135.84 98.27C135.407 100.87 134.497 103.253 133.11 105.42C131.723 107.587 129.817 109.32 127.39 110.62C124.963 112.007 121.887 112.7 118.16 112.7C113.133 112.7 108.973 111.227 105.68 108.28C102.387 105.333 100.567 101.347 100.22 96.32C99.7 83.58 99.44 70.4933 99.44 57.06C99.44 49.26 100.09 42.0233 101.39 35.35C102.69 28.59 104.987 22.6967 108.28 17.67C111.573 12.6433 115.993 8.69999 121.54 5.83999C127.173 2.97999 134.237 1.54999 142.73 1.54999C151.31 1.54999 158.373 2.97999 163.92 5.83999C169.553 8.69999 174.017 12.6433 177.31 17.67C180.603 22.6967 182.9 28.59 184.2 35.35C185.587 42.0233 186.28 49.26 186.28 57.06C186.28 63.7333 186.193 70.3633 186.02 76.95C185.933 83.45 185.717 89.9067 185.37 96.32C185.11 101.347 183.29 105.333 179.91 108.28C176.617 111.227 172.413 112.7 167.3 112.7C163.573 112.7 160.497 112.007 158.07 110.62C155.73 109.32 153.867 107.587 152.48 105.42C151.093 103.253 150.14 100.87 149.62 98.27C149.1 95.5833 148.927 92.9833 149.1 90.47C147.713 90.8167 146.543 91.0767 145.59 91.25C144.637 91.4233 143.683 91.51 142.73 91.51C141.863 91.51 140.91 91.4233 139.87 91.25C138.917 91.0767 137.747 90.8167 136.36 90.47ZM153.91 54.98C151.31 52.9867 148.363 51.6867 145.07 51.08C141.863 50.4733 138.613 50.0833 135.32 49.91C134.54 49.91 133.977 50.1267 133.63 50.56C133.283 50.9933 133.067 51.5133 132.98 52.12C132.893 52.7267 132.98 53.29 133.24 53.81C133.587 54.2433 134.02 54.5033 134.54 54.59C137.747 54.7633 140.737 55.1967 143.51 55.89C146.37 56.5833 149.317 57.7533 152.35 59.4C152.783 59.66 153.217 59.66 153.65 59.4C154.083 59.0533 154.43 58.62 154.69 58.1C154.95 57.58 155.037 57.0167 154.95 56.41C154.863 55.8033 154.517 55.3267 153.91 54.98ZM247.398 80.72C247.832 81.1533 248.438 81.1967 249.218 80.85C249.998 80.5033 250.215 79.8967 249.868 79.03C248.655 76.3433 247.095 73.57 245.188 70.71C243.282 67.85 241.072 65.2067 238.558 62.78C236.045 60.2667 233.228 58.1433 230.108 56.41C227.075 54.6767 223.782 53.55 220.228 53.03C212.775 51.8167 206.882 49.2167 202.548 45.23C198.215 41.1567 196.048 35.3067 196.048 27.68C196.048 23.52 197.088 19.75 199.168 16.37C201.335 12.99 204.282 10.13 208.008 7.79C211.735 5.36333 216.155 3.49999 221.268 2.19999C226.382 0.899995 231.928 0.249995 237.908 0.249995C242.415 0.249995 247.268 0.726661 252.468 1.67999C257.668 2.54666 262.435 4.02 266.768 6.1C271.102 8.18 274.655 10.91 277.428 14.29C280.202 17.67 281.415 21.83 281.068 26.77C280.895 29.9767 280.202 32.7067 278.988 34.96C277.862 37.1267 276.388 38.9033 274.568 40.29C272.748 41.59 270.712 42.5433 268.458 43.15C266.205 43.7567 263.908 44.06 261.568 44.06C258.015 44.06 254.808 43.2367 251.948 41.59C249.175 39.9433 246.488 37.9933 243.888 35.74C242.502 34.5267 241.202 33.4 239.988 32.36C238.775 31.32 237.562 30.28 236.348 29.24C235.222 28.2 234.008 27.1167 232.708 25.99C231.495 24.8633 230.195 23.6067 228.808 22.22C228.288 21.7 227.812 21.44 227.378 21.44C226.945 21.44 226.555 21.6133 226.208 21.96C225.948 22.22 225.818 22.5667 225.818 23C225.818 23.4333 226.035 23.8667 226.468 24.3C228.115 26.12 230.022 28.1567 232.188 30.41C234.355 32.5767 236.912 34.83 239.858 37.17C242.805 39.51 246.185 41.85 249.998 44.19C253.812 46.53 258.188 48.6967 263.128 50.69C265.988 51.9033 268.762 53.4633 271.448 55.37C274.222 57.19 276.605 59.4433 278.598 62.13C280.592 64.8167 282.108 67.9367 283.148 71.49C284.275 75.0433 284.665 79.0733 284.318 83.58C283.972 88.3467 282.542 92.5933 280.028 96.32C277.602 100.047 274.395 103.167 270.408 105.68C266.422 108.28 261.828 110.23 256.628 111.53C251.515 112.917 246.098 113.61 240.378 113.61C234.485 113.61 228.938 112.917 223.738 111.53C218.625 110.23 214.075 108.28 210.088 105.68C206.188 103.08 202.938 99.8733 200.338 96.06C197.825 92.2467 196.178 87.87 195.398 82.93C194.878 79.4633 194.792 76.0833 195.138 72.79C195.572 69.4967 196.525 66.55 197.998 63.95C199.558 61.35 201.725 59.27 204.498 57.71C207.272 56.15 210.825 55.37 215.158 55.37C219.232 55.37 222.872 56.15 226.078 57.71C229.372 59.1833 232.318 61.1333 234.918 63.56C237.518 65.9 239.815 68.5867 241.808 71.62C243.802 74.6533 245.665 77.6867 247.398 80.72ZM330.09 90.47C330.177 93.07 330.004 95.67 329.57 98.27C329.137 100.87 328.227 103.253 326.84 105.42C325.454 107.587 323.547 109.32 321.12 110.62C318.694 112.007 315.617 112.7 311.89 112.7C306.864 112.7 302.704 111.227 299.41 108.28C296.117 105.333 294.297 101.347 293.95 96.32C293.43 83.58 293.17 70.4933 293.17 57.06C293.17 49.26 293.82 42.0233 295.12 35.35C296.42 28.59 298.717 22.6967 302.01 17.67C305.304 12.6433 309.724 8.69999 315.27 5.83999C320.904 2.97999 327.967 1.54999 336.46 1.54999C345.04 1.54999 352.104 2.97999 357.65 5.83999C363.284 8.69999 367.747 12.6433 371.04 17.67C374.334 22.6967 376.63 28.59 377.93 35.35C379.317 42.0233 380.01 49.26 380.01 57.06C380.01 63.7333 379.924 70.3633 379.75 76.95C379.664 83.45 379.447 89.9067 379.1 96.32C378.84 101.347 377.02 105.333 373.64 108.28C370.347 111.227 366.144 112.7 361.03 112.7C357.304 112.7 354.227 112.007 351.8 110.62C349.46 109.32 347.597 107.587 346.21 105.42C344.824 103.253 343.87 100.87 343.35 98.27C342.83 95.5833 342.657 92.9833 342.83 90.47C341.444 90.8167 340.274 91.0767 339.32 91.25C338.367 91.4233 337.414 91.51 336.46 91.51C335.594 91.51 334.64 91.4233 333.6 91.25C332.647 91.0767 331.477 90.8167 330.09 90.47ZM347.64 54.98C345.04 52.9867 342.094 51.6867 338.8 51.08C335.594 50.4733 332.344 50.0833 329.05 49.91C328.27 49.91 327.707 50.1267 327.36 50.56C327.014 50.9933 326.797 51.5133 326.71 52.12C326.624 52.7267 326.71 53.29 326.97 53.81C327.317 54.2433 327.75 54.5033 328.27 54.59C331.477 54.7633 334.467 55.1967 337.24 55.89C340.1 56.5833 343.047 57.7533 346.08 59.4C346.514 59.66 346.947 59.66 347.38 59.4C347.814 59.0533 348.16 58.62 348.42 58.1C348.68 57.58 348.767 57.0167 348.68 56.41C348.594 55.8033 348.247 55.3267 347.64 54.98ZM462.9 112.7C454.926 112.7 448.123 110.707 442.49 106.72C436.943 102.82 432.436 97.5767 428.97 90.99C425.503 84.3167 422.946 76.69 421.3 68.11C419.74 59.53 418.916 50.6033 418.83 41.33C418.743 36.0433 419.263 31.0167 420.39 26.25C421.516 21.3967 423.206 17.15 425.46 13.51C427.713 9.87 430.443 6.96666 433.65 4.8C436.943 2.63333 440.713 1.54999 444.96 1.54999C449.206 1.54999 452.846 2.41666 455.88 4.14999C459 5.88333 461.513 8.26666 463.42 11.3C465.413 14.2467 466.886 17.7567 467.84 21.83C468.793 25.8167 469.27 30.15 469.27 34.83C469.27 38.6433 469.053 42.5433 468.62 46.53C468.186 50.5167 467.406 54.46 466.28 58.36C465.153 62.1733 463.636 65.8133 461.73 69.28C459.91 72.7467 457.526 75.91 454.58 78.77C453.453 79.81 453.193 80.6333 453.8 81.24C454.233 81.6733 454.666 82.02 455.1 82.28C455.533 82.4533 456.096 82.2367 456.79 81.63C459.996 78.5967 462.596 75.3033 464.59 71.75C466.67 68.11 468.273 64.1667 469.4 59.92C470.526 55.6733 471.306 51.08 471.74 46.14C472.173 41.1133 472.346 35.6533 472.26 29.76C472.26 25.7733 472.476 22.09 472.91 18.71C473.43 15.2433 474.34 12.2533 475.64 9.74C477.026 7.22667 478.846 5.23333 481.1 3.76C483.353 2.28666 486.256 1.54999 489.81 1.54999C492.93 1.54999 495.616 2.37333 497.87 4.01999C500.123 5.57999 501.9 8.05 503.2 11.43C504.586 14.81 505.496 19.1867 505.93 24.56C506.45 29.9333 506.58 36.39 506.32 43.93C505.973 52.8567 504.76 61.48 502.68 69.8C500.6 78.0333 497.696 85.3567 493.97 91.77C490.243 98.0967 485.78 103.167 480.58 106.98C475.38 110.793 469.486 112.7 462.9 112.7ZM516.771 92.68C516.078 87.1333 515.645 81.4133 515.471 75.52C515.298 69.6267 515.211 63.43 515.211 56.93C515.211 50.43 515.298 44.2333 515.471 38.34C515.645 32.4467 516.078 26.77 516.771 21.31C517.205 17.15 518.678 13.7267 521.191 11.04C523.791 8.35333 526.998 6.22999 530.811 4.66999C534.625 3.02333 538.871 1.89666 543.551 1.29C548.231 0.596663 552.911 0.249995 557.591 0.249995C562.531 0.249995 567.385 0.55333 572.151 1.16C577.005 1.68 581.338 2.80666 585.151 4.53999C589.051 6.27333 592.171 8.74333 594.511 11.95C596.851 15.1567 598.021 19.36 598.021 24.56C598.021 28.8067 597.068 31.4933 595.161 32.62C593.255 33.7467 589.745 33.6167 584.631 32.23C582.898 31.7967 581.078 31.45 579.171 31.19C577.351 30.8433 575.618 30.67 573.971 30.67C569.291 30.67 565.261 31.0167 561.881 31.71C558.501 32.3167 555.425 33.1833 552.651 34.31C551.958 34.57 551.481 34.96 551.221 35.48C550.961 36 550.875 36.52 550.961 37.04C551.135 37.4733 551.438 37.82 551.871 38.08C552.391 38.2533 553.041 38.21 553.821 37.95C556.681 36.91 559.801 36.13 563.181 35.61C566.561 35.09 569.855 34.83 573.061 34.83C576.355 34.7433 579.431 34.96 582.291 35.48C585.151 36 587.448 36.78 589.181 37.82C592.215 39.7267 594.425 42.1533 595.811 45.1C597.285 48.0467 598.021 51.99 598.021 56.93C598.021 61.87 597.285 65.8567 595.811 68.89C594.425 71.8367 592.215 74.22 589.181 76.04C587.448 77.1667 585.151 77.99 582.291 78.51C579.431 79.03 576.355 79.29 573.061 79.29C569.855 79.2033 566.561 78.9 563.181 78.38C559.801 77.7733 556.681 76.95 553.821 75.91C553.041 75.65 552.391 75.65 551.871 75.91C551.438 76.17 551.135 76.5167 550.961 76.95C550.875 77.3833 550.961 77.86 551.221 78.38C551.481 78.9 551.958 79.29 552.651 79.55C555.425 80.6767 558.501 81.5433 561.881 82.15C565.261 82.7567 569.291 83.06 573.971 83.06C575.618 83.06 577.351 82.93 579.171 82.67C581.078 82.41 582.898 82.0633 584.631 81.63C589.745 80.33 593.255 80.2433 595.161 81.37C597.068 82.41 598.021 85.01 598.021 89.17C598.021 94.37 596.851 98.5733 594.511 101.78C592.171 104.987 589.051 107.457 585.151 109.19C581.338 111.01 577.005 112.18 572.151 112.7C567.385 113.307 562.531 113.61 557.591 113.61C552.911 113.61 548.231 113.263 543.551 112.57C538.871 111.963 534.625 110.837 530.811 109.19C526.998 107.63 523.791 105.507 521.191 102.82C518.678 100.133 517.205 96.7533 516.771 92.68ZM645.717 76.17C645.544 79.3767 645.327 82.5833 645.067 85.79C644.894 88.91 644.634 92.03 644.287 95.15C644.027 97.5767 643.507 99.83 642.727 101.91C641.947 104.077 640.821 105.94 639.347 107.5C637.961 109.06 636.227 110.273 634.147 111.14C632.154 112.093 629.814 112.57 627.127 112.57C624.354 112.57 621.927 112.093 619.847 111.14C617.854 110.273 616.121 109.06 614.647 107.5C613.261 105.94 612.177 104.077 611.397 101.91C610.617 99.83 610.097 97.5767 609.837 95.15C608.971 87.35 608.407 79.42 608.147 71.36C607.974 63.3 607.931 55.1967 608.017 47.05C608.104 37.69 608.927 30.02 610.487 24.04C612.134 18.06 614.734 13.3367 618.287 9.87C621.927 6.31666 626.651 3.84666 632.457 2.46C638.264 1.07333 645.457 0.336661 654.037 0.249995C667.557 0.0766642 677.871 3.41333 684.977 10.26C692.171 17.02 695.681 27.16 695.507 40.68C695.507 49.78 693.947 57.0167 690.827 62.39C687.707 67.7633 682.507 71.7933 675.227 74.48C674.101 74.8267 673.667 75.4333 673.927 76.3C674.274 77.1667 674.967 77.47 676.007 77.21C677.914 76.7767 679.821 76.0833 681.727 75.13C683.721 74.09 685.584 73.0067 687.317 71.88C689.571 73.8733 691.781 76.3 693.947 79.16C696.114 82.02 697.934 85.4867 699.407 89.56C700.881 93.8933 700.881 97.9233 699.407 101.65C698.021 105.377 694.857 108.367 689.917 110.62C687.231 111.833 684.457 112.483 681.597 112.57C678.824 112.657 676.094 112.223 673.407 111.27C670.721 110.403 668.251 109.06 665.997 107.24C663.744 105.507 661.881 103.383 660.407 100.87C658.414 97.5767 656.811 93.85 655.597 89.69C654.384 85.4433 653.561 81.0233 653.127 76.43C651.914 76.43 650.657 76.43 649.357 76.43C648.144 76.3433 646.931 76.2567 645.717 76.17ZM661.707 44.45C658.674 43.3233 655.901 42.0667 653.387 40.68C650.961 39.2067 648.534 37.2133 646.107 34.7C645.674 34.3533 645.197 34.2667 644.677 34.44C644.244 34.5267 643.811 34.7867 643.377 35.22C643.031 35.5667 642.814 36.0433 642.727 36.65C642.641 37.2567 642.814 37.8633 643.247 38.47C645.154 40.9833 647.581 43.0633 650.527 44.71C653.561 46.27 656.594 47.6133 659.627 48.74C660.321 49 660.884 48.9567 661.317 48.61C661.837 48.2633 662.184 47.83 662.357 47.31C662.531 46.79 662.574 46.27 662.487 45.75C662.401 45.1433 662.141 44.71 661.707 44.45ZM730.776 112.44C728.349 112.18 725.923 111.487 723.496 110.36C721.156 109.233 719.033 107.717 717.126 105.81C715.219 103.903 713.616 101.607 712.316 98.92C711.103 96.2333 710.366 93.2 710.106 89.82C709.413 78.5533 709.109 67.6333 709.196 57.06C709.369 46.4867 709.716 35.48 710.236 24.04C710.409 20.5733 711.103 17.4967 712.316 14.81C713.616 12.1233 715.219 9.82667 717.126 7.92C719.033 6.01333 721.156 4.53999 723.496 3.49999C725.923 2.37333 728.349 1.68 730.776 1.42C734.069 1.07333 737.579 0.813329 741.306 0.639998C745.119 0.379996 748.976 0.249995 752.876 0.249995C760.243 0.16333 767.003 1.11666 773.156 3.11C779.396 5.10333 784.769 8.31 789.276 12.73C793.783 17.0633 797.293 22.6967 799.806 29.63C802.319 36.5633 803.576 44.9267 803.576 54.72C803.576 64.5133 802.319 73.0933 799.806 80.46C797.293 87.74 793.783 93.85 789.276 98.79C784.856 103.643 779.526 107.327 773.286 109.84C767.133 112.353 760.416 113.61 753.136 113.61C749.236 113.61 745.379 113.48 741.566 113.22C737.753 113.047 734.156 112.787 730.776 112.44ZM752.226 62.52C751.966 63.04 751.966 63.5167 752.226 63.95C752.573 64.3833 753.006 64.73 753.526 64.99C754.046 65.1633 754.609 65.2067 755.216 65.12C755.823 64.9467 756.343 64.5567 756.776 63.95C758.509 61.4367 759.679 58.5333 760.286 55.24C760.979 51.9467 761.369 48.6967 761.456 45.49C761.456 44.71 761.196 44.1467 760.676 43.8C760.243 43.3667 759.723 43.15 759.116 43.15C758.596 43.0633 758.076 43.15 757.556 43.41C757.123 43.67 756.906 44.06 756.906 44.58C756.733 47.7867 756.299 50.82 755.606 53.68C754.913 56.4533 753.786 59.4 752.226 62.52ZM813.842 92.68C813.148 87.1333 812.715 81.4133 812.542 75.52C812.368 69.6267 812.282 63.43 812.282 56.93C812.282 50.43 812.368 44.2333 812.542 38.34C812.715 32.4467 813.148 26.77 813.842 21.31C814.275 17.15 815.748 13.7267 818.262 11.04C820.862 8.35333 824.068 6.22999 827.882 4.66999C831.695 3.02333 835.942 1.89666 840.622 1.29C845.302 0.596663 849.982 0.249995 854.662 0.249995C859.602 0.249995 864.455 0.55333 869.222 1.16C874.075 1.68 878.408 2.80666 882.222 4.53999C886.122 6.27333 889.242 8.74333 891.582 11.95C893.922 15.1567 895.092 19.36 895.092 24.56C895.092 28.8067 894.138 31.4933 892.232 32.62C890.325 33.7467 886.815 33.6167 881.702 32.23C879.968 31.7967 878.148 31.45 876.242 31.19C874.422 30.8433 872.688 30.67 871.042 30.67C866.362 30.67 862.332 31.0167 858.952 31.71C855.572 32.3167 852.495 33.1833 849.722 34.31C849.028 34.57 848.552 34.96 848.292 35.48C848.032 36 847.945 36.52 848.032 37.04C848.205 37.4733 848.508 37.82 848.942 38.08C849.462 38.2533 850.112 38.21 850.892 37.95C853.752 36.91 856.872 36.13 860.252 35.61C863.632 35.09 866.925 34.83 870.132 34.83C873.425 34.7433 876.502 34.96 879.362 35.48C882.222 36 884.518 36.78 886.252 37.82C889.285 39.7267 891.495 42.1533 892.882 45.1C894.355 48.0467 895.092 51.99 895.092 56.93C895.092 61.87 894.355 65.8567 892.882 68.89C891.495 71.8367 889.285 74.22 886.252 76.04C884.518 77.1667 882.222 77.99 879.362 78.51C876.502 79.03 873.425 79.29 870.132 79.29C866.925 79.2033 863.632 78.9 860.252 78.38C856.872 77.7733 853.752 76.95 850.892 75.91C850.112 75.65 849.462 75.65 848.942 75.91C848.508 76.17 848.205 76.5167 848.032 76.95C847.945 77.3833 848.032 77.86 848.292 78.38C848.552 78.9 849.028 79.29 849.722 79.55C852.495 80.6767 855.572 81.5433 858.952 82.15C862.332 82.7567 866.362 83.06 871.042 83.06C872.688 83.06 874.422 82.93 876.242 82.67C878.148 82.41 879.968 82.0633 881.702 81.63C886.815 80.33 890.325 80.2433 892.232 81.37C894.138 82.41 895.092 85.01 895.092 89.17C895.092 94.37 893.922 98.5733 891.582 101.78C889.242 104.987 886.122 107.457 882.222 109.19C878.408 111.01 874.075 112.18 869.222 112.7C864.455 113.307 859.602 113.61 854.662 113.61C849.982 113.61 845.302 113.263 840.622 112.57C835.942 111.963 831.695 110.837 827.882 109.19C824.068 107.63 820.862 105.507 818.262 102.82C815.748 100.133 814.275 96.7533 813.842 92.68Z" fill="#66D07A"/>
</svg>
