<svg width="324" height="150" viewBox="0 0 310 119" fill="none" xmlns="http://www.w3.org/2000/svg">
<g filter="url(#filter0_d_85_108)">
<path d="M22.52 112.44C20.0933 112.18 17.6667 111.487 15.24 110.36C12.9 109.233 10.7767 107.717 8.87 105.81C6.96333 103.903 5.36 101.607 4.06 98.92C2.84667 96.2333 2.11 93.2 1.85 89.82C1.15667 78.5533 0.853333 67.6333 0.94 57.06C1.11333 46.4867 1.46 35.48 1.98 24.04C2.15333 20.5733 2.84667 17.4967 4.06 14.81C5.36 12.1233 6.96333 9.82667 8.87 7.92C10.7767 6.01333 12.9 4.53999 15.24 3.49999C17.6667 2.37333 20.0933 1.68 22.52 1.42C25.8133 1.07333 29.3233 0.813329 33.05 0.639998C36.8633 0.379996 40.72 0.249995 44.62 0.249995C51.9867 0.16333 58.7467 1.11666 64.9 3.11C71.14 5.10333 76.5133 8.31 81.02 12.73C85.5267 17.0633 89.0367 22.6967 91.55 29.63C94.0633 36.5633 95.32 44.9267 95.32 54.72C95.32 64.5133 94.0633 73.0933 91.55 80.46C89.0367 87.74 85.5267 93.85 81.02 98.79C76.6 103.643 71.27 107.327 65.03 109.84C58.8767 112.353 52.16 113.61 44.88 113.61C40.98 113.61 37.1233 113.48 33.31 113.22C29.4967 113.047 25.9 112.787 22.52 112.44ZM43.97 62.52C43.71 63.04 43.71 63.5167 43.97 63.95C44.3167 64.3833 44.75 64.73 45.27 64.99C45.79 65.1633 46.3533 65.2067 46.96 65.12C47.5667 64.9467 48.0867 64.5567 48.52 63.95C50.2533 61.4367 51.4233 58.5333 52.03 55.24C52.7233 51.9467 53.1133 48.6967 53.2 45.49C53.2 44.71 52.94 44.1467 52.42 43.8C51.9867 43.3667 51.4667 43.15 50.86 43.15C50.34 43.0633 49.82 43.15 49.3 43.41C48.8667 43.67 48.65 44.06 48.65 44.58C48.4767 47.7867 48.0433 50.82 47.35 53.68C46.6567 56.4533 45.53 59.4 43.97 62.52ZM154.466 113.61C145.453 113.61 137.696 112.267 131.196 109.58C124.696 106.98 119.323 103.253 115.076 98.4C110.916 93.46 107.796 87.5233 105.716 80.59C103.723 73.57 102.726 65.6833 102.726 56.93C102.726 48.1767 103.636 40.3333 105.456 33.4C107.276 26.38 110.223 20.4433 114.296 15.59C118.369 10.65 123.699 6.88 130.286 4.28C136.873 1.59333 144.933 0.249995 154.466 0.249995C163.999 0.249995 172.059 1.59333 178.646 4.28C185.233 6.88 190.563 10.65 194.636 15.59C198.709 20.4433 201.656 26.38 203.476 33.4C205.296 40.3333 206.206 48.1767 206.206 56.93C206.206 65.6833 205.166 73.57 203.086 80.59C201.093 87.5233 197.973 93.46 193.726 98.4C189.566 103.253 184.193 106.98 177.606 109.58C171.106 112.267 163.393 113.61 154.466 113.61ZM149.786 65.38C149.439 65.8133 149.396 66.2467 149.656 66.68C149.916 67.1133 150.306 67.4167 150.826 67.59C151.346 67.7633 151.909 67.8067 152.516 67.72C153.209 67.6333 153.773 67.33 154.206 66.81C156.026 64.21 157.239 61.2633 157.846 57.97C158.453 54.6767 158.799 51.3833 158.886 48.09C158.886 47.31 158.669 46.7467 158.236 46.4C157.803 46.0533 157.283 45.88 156.676 45.88C156.156 45.7933 155.636 45.88 155.116 46.14C154.596 46.4 154.336 46.79 154.336 47.31C154.163 50.5167 153.729 53.55 153.036 56.41C152.343 59.27 151.259 62.26 149.786 65.38ZM252.559 74.74C252.472 78.2933 252.299 81.76 252.039 85.14C251.779 88.52 251.476 91.9 251.129 95.28C250.869 97.7067 250.349 99.96 249.569 102.04C248.789 104.207 247.662 106.07 246.189 107.63C244.802 109.19 243.069 110.403 240.989 111.27C238.996 112.223 236.656 112.7 233.969 112.7C231.196 112.7 228.769 112.223 226.689 111.27C224.696 110.403 222.962 109.19 221.489 107.63C220.102 106.07 219.019 104.207 218.239 102.04C217.459 99.96 216.939 97.7067 216.679 95.28C215.379 82.8867 214.729 70.1467 214.729 57.06C214.729 43.9733 215.379 31.2333 216.679 18.84C216.939 16.4133 217.459 14.16 218.239 12.08C219.019 10 220.102 8.18 221.489 6.62C222.962 5.06 224.696 3.84666 226.689 2.98C228.769 2.02666 231.196 1.54999 233.969 1.54999C236.656 1.54999 238.996 2.02666 240.989 2.98C243.069 3.84666 244.802 5.06 246.189 6.62C247.662 8.18 248.789 10 249.569 12.08C250.349 14.16 250.869 16.4133 251.129 18.84C251.562 23.0867 251.866 27.2033 252.039 31.19C252.212 35.09 252.429 39.25 252.689 43.67C254.509 38.3833 256.632 33.3133 259.059 28.46C261.572 23.52 263.826 19.1867 265.819 15.46C267.119 13.0333 268.679 10.8667 270.499 8.96C272.319 6.96667 274.312 5.45 276.479 4.41C278.732 3.28333 281.159 2.67666 283.759 2.59C286.446 2.50333 289.349 3.11 292.469 4.41C297.669 6.66333 301.136 9.78333 302.869 13.77C304.689 17.67 304.602 22.1333 302.609 27.16C301.309 30.6267 299.706 34.0933 297.799 37.56C295.892 41.0267 293.812 44.3633 291.559 47.57C289.392 50.69 287.096 53.6367 284.669 56.41C282.242 59.0967 279.816 61.3933 277.389 63.3C276.956 63.56 276.696 63.9067 276.609 64.34C276.609 64.7733 276.696 65.1633 276.869 65.51C277.129 65.77 277.432 65.9433 277.779 66.03C278.212 66.1167 278.689 65.9867 279.209 65.64C280.162 64.86 281.072 64.08 281.939 63.3C282.892 62.52 283.802 61.6533 284.669 60.7C286.576 62.78 288.396 65.0333 290.129 67.46C291.862 69.8867 293.422 72.4 294.809 75C296.282 77.5133 297.582 80.0267 298.709 82.54C299.922 85.0533 300.919 87.4367 301.699 89.69C303.172 94.11 302.912 98.27 300.919 102.17C299.012 106.07 295.502 109.06 290.389 111.14C285.016 113.22 280.032 113.307 275.439 111.4C270.932 109.493 267.162 106.027 264.129 101C263.349 99.6133 262.439 97.9233 261.399 95.93C260.446 93.85 259.449 91.64 258.409 89.3C257.369 86.96 256.329 84.5333 255.289 82.02C254.336 79.5067 253.426 77.08 252.559 74.74Z" fill="#FCD11E"/>
</g>
<defs>
<filter id="filter0_d_85_108" x="0.809998" y="0.120117" width="308.789" height="118.14" filterUnits="userSpaceOnUse" color-interpolation-filters="sRGB">
<feFlood flood-opacity="0" result="BackgroundImageFix"/>
<feColorMatrix in="SourceAlpha" type="matrix" values="0 0 0 0 0 0 0 0 0 0 0 0 0 0 0 0 0 0 127 0" result="hardAlpha"/>
<feOffset dx="4" dy="4"/>
<feComposite in2="hardAlpha" operator="out"/>
<feColorMatrix type="matrix" values="0 0 0 0 0.384314 0 0 0 0 0.666667 0 0 0 0 0.854902 0 0 0 1 0"/>
<feBlend mode="normal" in2="BackgroundImageFix" result="effect1_dropShadow_85_108"/>
<feBlend mode="normal" in="SourceGraphic" in2="effect1_dropShadow_85_108" result="shape"/>
</filter>
</defs>
</svg>
