<svg width="324" height="150" viewBox="0 0 324 150" fill="none" xmlns="http://www.w3.org/2000/svg">
<g clip-path="url(#clip0_90_179)">
<mask id="path-1-outside-1_90_179" maskUnits="userSpaceOnUse" x="5" y="13" width="316" height="126" fill="black">
<rect fill="white" x="5" y="13" width="316" height="126"/>
<path d="M33.1294 131.44C30.7027 131.18 28.276 130.487 25.8494 129.36C23.5094 128.233 21.386 126.717 19.4794 124.81C17.5727 122.903 15.9694 120.607 14.6694 117.92C13.456 115.233 12.7194 112.2 12.4594 108.82C11.766 97.5533 11.4627 86.6333 11.5494 76.06C11.7227 65.4867 12.0694 54.48 12.5894 43.04C12.7627 39.5733 13.456 36.4967 14.6694 33.81C15.9694 31.1233 17.5727 28.8267 19.4794 26.92C21.386 25.0133 23.5094 23.54 25.8494 22.5C28.276 21.3733 30.7027 20.68 33.1294 20.42C36.4227 20.0733 39.9327 19.8133 43.6594 19.64C47.4727 19.38 51.3294 19.25 55.2294 19.25C62.596 19.1633 69.356 20.1167 75.5094 22.11C81.7494 24.1033 87.1227 27.31 91.6294 31.73C96.136 36.0633 99.646 41.6967 102.159 48.63C104.673 55.5633 105.929 63.9267 105.929 73.72C105.929 83.5133 104.673 92.0933 102.159 99.46C99.646 106.74 96.136 112.85 91.6294 117.79C87.2094 122.643 81.8794 126.327 75.6394 128.84C69.486 131.353 62.7694 132.61 55.4894 132.61C51.5894 132.61 47.7327 132.48 43.9194 132.22C40.106 132.047 36.5094 131.787 33.1294 131.44ZM54.5794 81.52C54.3194 82.04 54.3194 82.5167 54.5794 82.95C54.926 83.3833 55.3594 83.73 55.8794 83.99C56.3994 84.1633 56.9627 84.2067 57.5694 84.12C58.176 83.9467 58.696 83.5567 59.1294 82.95C60.8627 80.4367 62.0327 77.5333 62.6394 74.24C63.3327 70.9467 63.7227 67.6967 63.8094 64.49C63.8094 63.71 63.5494 63.1467 63.0294 62.8C62.596 62.3667 62.076 62.15 61.4694 62.15C60.9494 62.0633 60.4294 62.15 59.9094 62.41C59.476 62.67 59.2594 63.06 59.2594 63.58C59.086 66.7867 58.6527 69.82 57.9594 72.68C57.266 75.4533 56.1394 78.4 54.5794 81.52ZM165.075 132.61C156.062 132.61 148.305 131.267 141.805 128.58C135.305 125.98 129.932 122.253 125.685 117.4C121.525 112.46 118.405 106.523 116.325 99.59C114.332 92.57 113.335 84.6833 113.335 75.93C113.335 67.1767 114.245 59.3333 116.065 52.4C117.885 45.38 120.832 39.4433 124.905 34.59C128.979 29.65 134.309 25.88 140.895 23.28C147.482 20.5933 155.542 19.25 165.075 19.25C174.609 19.25 182.669 20.5933 189.255 23.28C195.842 25.88 201.172 29.65 205.245 34.59C209.319 39.4433 212.265 45.38 214.085 52.4C215.905 59.3333 216.815 67.1767 216.815 75.93C216.815 84.6833 215.775 92.57 213.695 99.59C211.702 106.523 208.582 112.46 204.335 117.4C200.175 122.253 194.802 125.98 188.215 128.58C181.715 131.267 174.002 132.61 165.075 132.61ZM160.395 84.38C160.049 84.8133 160.005 85.2467 160.265 85.68C160.525 86.1133 160.915 86.4167 161.435 86.59C161.955 86.7633 162.519 86.8067 163.125 86.72C163.819 86.6333 164.382 86.33 164.815 85.81C166.635 83.21 167.849 80.2633 168.455 76.97C169.062 73.6767 169.409 70.3833 169.495 67.09C169.495 66.31 169.279 65.7467 168.845 65.4C168.412 65.0533 167.892 64.88 167.285 64.88C166.765 64.7933 166.245 64.88 165.725 65.14C165.205 65.4 164.945 65.79 164.945 66.31C164.772 69.5167 164.339 72.55 163.645 75.41C162.952 78.27 161.869 81.26 160.395 84.38ZM263.168 93.74C263.082 97.2933 262.908 100.76 262.648 104.14C262.388 107.52 262.085 110.9 261.738 114.28C261.478 116.707 260.958 118.96 260.178 121.04C259.398 123.207 258.272 125.07 256.798 126.63C255.412 128.19 253.678 129.403 251.598 130.27C249.605 131.223 247.265 131.7 244.578 131.7C241.805 131.7 239.378 131.223 237.298 130.27C235.305 129.403 233.572 128.19 232.098 126.63C230.712 125.07 229.628 123.207 228.848 121.04C228.068 118.96 227.548 116.707 227.288 114.28C225.988 101.887 225.338 89.1467 225.338 76.06C225.338 62.9733 225.988 50.2333 227.288 37.84C227.548 35.4133 228.068 33.16 228.848 31.08C229.628 29 230.712 27.18 232.098 25.62C233.572 24.06 235.305 22.8467 237.298 21.98C239.378 21.0267 241.805 20.55 244.578 20.55C247.265 20.55 249.605 21.0267 251.598 21.98C253.678 22.8467 255.412 24.06 256.798 25.62C258.272 27.18 259.398 29 260.178 31.08C260.958 33.16 261.478 35.4133 261.738 37.84C262.172 42.0867 262.475 46.2033 262.648 50.19C262.822 54.09 263.038 58.25 263.298 62.67C265.118 57.3833 267.242 52.3133 269.668 47.46C272.182 42.52 274.435 38.1867 276.428 34.46C277.728 32.0333 279.288 29.8667 281.108 27.96C282.928 25.9667 284.922 24.45 287.088 23.41C289.342 22.2833 291.768 21.6767 294.368 21.59C297.055 21.5033 299.958 22.11 303.078 23.41C308.278 25.6633 311.745 28.7833 313.478 32.77C315.298 36.67 315.212 41.1333 313.218 46.16C311.918 49.6267 310.315 53.0933 308.408 56.56C306.502 60.0267 304.422 63.3633 302.168 66.57C300.002 69.69 297.705 72.6367 295.278 75.41C292.852 78.0967 290.425 80.3933 287.998 82.3C287.565 82.56 287.305 82.9067 287.218 83.34C287.218 83.7733 287.305 84.1633 287.478 84.51C287.738 84.77 288.042 84.9433 288.388 85.03C288.822 85.1167 289.298 84.9867 289.818 84.64C290.772 83.86 291.682 83.08 292.548 82.3C293.502 81.52 294.412 80.6533 295.278 79.7C297.185 81.78 299.005 84.0333 300.738 86.46C302.472 88.8867 304.032 91.4 305.418 94C306.892 96.5133 308.192 99.0267 309.318 101.54C310.532 104.053 311.528 106.437 312.308 108.69C313.782 113.11 313.522 117.27 311.528 121.17C309.622 125.07 306.112 128.06 300.998 130.14C295.625 132.22 290.642 132.307 286.048 130.4C281.542 128.493 277.772 125.027 274.738 120C273.958 118.613 273.048 116.923 272.008 114.93C271.055 112.85 270.058 110.64 269.018 108.3C267.978 105.96 266.938 103.533 265.898 101.02C264.945 98.5067 264.035 96.08 263.168 93.74Z"/>
</mask>
<path d="M33.1294 131.44L32.4902 137.406L32.5037 137.407L32.5172 137.409L33.1294 131.44ZM25.8494 129.36L23.2465 134.766L23.2845 134.784L23.3227 134.802L25.8494 129.36ZM19.4794 124.81L23.722 120.567L23.722 120.567L19.4794 124.81ZM14.6694 117.92L9.20115 120.39L9.23383 120.462L9.26842 120.533L14.6694 117.92ZM12.4594 108.82L6.4707 109.189L6.47353 109.234L6.47705 109.28L12.4594 108.82ZM11.5494 76.06L5.55018 75.9616L5.54978 75.9862L5.54958 76.0108L11.5494 76.06ZM12.5894 43.04L6.59686 42.7404L6.59618 42.754L6.59556 42.7676L12.5894 43.04ZM14.6694 33.81L9.26842 31.1966L9.23383 31.2681L9.20115 31.3405L14.6694 33.81ZM25.8494 22.5L28.2862 27.9829L28.3313 27.9628L28.376 27.9421L25.8494 22.5ZM33.1294 20.42L32.5013 14.453L32.4902 14.4541L33.1294 20.42ZM43.6594 19.64L43.9381 25.6335L44.0029 25.6305L44.0675 25.6261L43.6594 19.64ZM55.2294 19.25V25.25H55.2647L55.3 25.2496L55.2294 19.25ZM75.5094 22.11L73.6603 27.818L73.672 27.8217L73.6836 27.8255L75.5094 22.11ZM91.6294 31.73L87.4281 36.0136L87.4493 36.0344L87.4707 36.055L91.6294 31.73ZM102.159 48.63L96.5186 50.6748L96.5186 50.6748L102.159 48.63ZM102.159 99.46L107.831 101.418L107.834 101.408L107.838 101.397L102.159 99.46ZM91.6294 117.79L87.1968 113.746L87.1933 113.75L91.6294 117.79ZM75.6394 128.84L73.3977 123.274L73.3842 123.28L73.3706 123.285L75.6394 128.84ZM43.9194 132.22L44.3275 126.234L44.2597 126.229L44.1918 126.226L43.9194 132.22ZM54.5794 81.52L49.2128 78.8367L54.5794 81.52ZM54.5794 82.95L49.4344 86.037L49.6421 86.383L49.8942 86.6982L54.5794 82.95ZM55.8794 83.99L53.1961 89.3566L53.5775 89.5473L53.982 89.6821L55.8794 83.99ZM57.5694 84.12L58.4179 90.0597L58.8236 90.0017L59.2177 89.8891L57.5694 84.12ZM59.1294 82.95L64.0118 86.4374L64.0405 86.3971L64.0687 86.3564L59.1294 82.95ZM62.6394 74.24L56.7681 73.0039L56.7524 73.0783L56.7387 73.153L62.6394 74.24ZM63.8094 64.49L69.8072 64.6521L69.8094 64.5711V64.49H63.8094ZM63.0294 62.8L58.7867 67.0426L59.2068 67.4627L59.7012 67.7923L63.0294 62.8ZM61.4694 62.15L60.483 68.0684L60.9728 68.15H61.4694V62.15ZM59.9094 62.41L57.2261 57.0434L57.02 57.1465L56.8224 57.265L59.9094 62.41ZM59.2594 63.58L65.2506 63.9039L65.2594 63.742V63.58H59.2594ZM57.9594 72.68L63.7802 74.1352L63.7854 74.1144L63.7905 74.0936L57.9594 72.68ZM33.7686 125.474C32.0554 125.291 30.2636 124.794 28.376 123.918L23.3227 134.802C26.2884 136.179 29.3501 137.069 32.4902 137.406L33.7686 125.474ZM28.4523 123.954C26.7435 123.131 25.1699 122.015 23.722 120.567L15.2367 129.053C17.6022 131.418 20.2753 133.335 23.2465 134.766L28.4523 123.954ZM23.722 120.567C22.3378 119.183 21.1091 117.453 20.0703 115.307L9.26842 120.533C10.8296 123.76 12.8076 126.624 15.2367 129.053L23.722 120.567ZM20.1376 115.45C19.2505 113.486 18.6562 111.148 18.4417 108.36L6.47705 109.28C6.78259 113.252 7.66162 116.981 9.20115 120.39L20.1376 115.45ZM18.448 108.451C17.7627 97.3146 17.4637 86.5342 17.5492 76.1092L5.54958 76.0108C5.46169 86.7324 5.76938 97.792 6.4707 109.189L18.448 108.451ZM17.5486 76.1583C17.7209 65.6476 18.0656 54.6992 18.5832 43.3124L6.59556 42.7676C6.07314 54.2608 5.72454 65.3257 5.55018 75.9616L17.5486 76.1583ZM18.5819 43.3396C18.7243 40.4921 19.2828 38.1722 20.1376 36.2795L9.20115 31.3405C7.62926 34.8211 6.80115 38.6545 6.59686 42.7404L18.5819 43.3396ZM20.0703 36.4234C21.1091 34.2766 22.3378 32.5469 23.722 31.1626L15.2367 22.6774C12.8076 25.1064 10.8296 27.9701 9.26842 31.1966L20.0703 36.4234ZM23.722 31.1626C25.1359 29.7488 26.6543 28.7081 28.2862 27.9829L23.4125 17.0171C20.3644 18.3719 17.6362 20.2779 15.2367 22.6774L23.722 31.1626ZM28.376 27.9421C30.2636 27.0657 32.0554 26.5694 33.7686 26.3859L32.4902 14.4541C29.3501 14.7906 26.2884 15.681 23.3227 17.0579L28.376 27.9421ZM33.7575 26.387C36.9212 26.054 40.3138 25.8021 43.9381 25.6335L43.3806 13.6465C39.5516 13.8246 35.9242 14.0927 32.5013 14.453L33.7575 26.387ZM44.0675 25.6261C47.7423 25.3755 51.4628 25.25 55.2294 25.25V13.25C51.196 13.25 47.2031 13.3844 43.2512 13.6539L44.0675 25.6261ZM55.3 25.2496C62.1043 25.1695 68.2063 26.0512 73.6603 27.818L77.3584 16.402C70.5058 14.1822 63.0878 13.1571 55.1588 13.2504L55.3 25.2496ZM73.6836 27.8255C79.0656 29.5447 83.6162 32.275 87.4281 36.0136L95.8306 27.4464C90.6292 22.345 84.4332 18.6619 77.3352 16.3945L73.6836 27.8255ZM87.4707 36.055C91.2065 39.6471 94.2624 44.4508 96.5186 50.6748L107.8 46.5852C105.03 38.9425 101.066 32.4796 95.788 27.405L87.4707 36.055ZM96.5186 50.6748C98.7306 56.777 99.9294 64.4089 99.9294 73.72H111.929C111.929 63.4445 110.615 54.3497 107.8 46.5852L96.5186 50.6748ZM99.9294 73.72C99.9294 83.0168 98.7345 90.9169 96.4808 97.5226L107.838 101.397C110.611 93.2697 111.929 84.0098 111.929 73.72H99.9294ZM96.4879 97.502C94.201 104.126 91.0754 109.495 87.1968 113.746L96.062 121.834C101.197 116.205 105.091 109.354 107.831 101.418L96.4879 97.502ZM87.1933 113.75C83.3962 117.919 78.8223 121.09 73.3977 123.274L77.881 134.406C84.9365 131.564 91.0226 127.367 96.0654 121.83L87.1933 113.75ZM73.3706 123.285C68.0034 125.478 62.0658 126.61 55.4894 126.61V138.61C63.4729 138.61 70.9687 137.229 77.9081 134.395L73.3706 123.285ZM55.4894 126.61C51.7228 126.61 48.0023 126.484 44.3275 126.234L43.5112 138.206C47.4631 138.476 51.456 138.61 55.4894 138.61V126.61ZM44.1918 126.226C40.4784 126.057 36.9958 125.805 33.7415 125.471L32.5172 137.409C36.023 137.768 39.7337 138.036 43.6469 138.214L44.1918 126.226ZM49.2128 78.8367C48.1975 80.8673 47.9451 83.5548 49.4344 86.037L59.7243 79.863C60.1188 80.5204 60.3844 81.3522 60.3844 82.2675C60.3844 83.1431 60.1424 83.8104 59.9459 84.2033L49.2128 78.8367ZM49.8942 86.6982C50.809 87.8418 51.9374 88.7272 53.1961 89.3566L58.5627 78.6234C58.7813 78.7328 59.0431 78.9249 59.2646 79.2018L49.8942 86.6982ZM53.982 89.6821C55.4854 90.1832 56.9992 90.2624 58.4179 90.0597L56.7208 78.1803C56.9263 78.151 57.3133 78.1434 57.7767 78.2979L53.982 89.6821ZM59.2177 89.8891C61.3565 89.2781 62.9387 87.9397 64.0118 86.4374L54.247 79.4626C54.3364 79.3374 54.5159 79.1214 54.8144 78.8975C55.1223 78.6665 55.4988 78.4715 55.921 78.3509L59.2177 89.8891ZM64.0687 86.3564C66.3273 83.0814 67.7951 79.3713 68.5401 75.327L56.7387 73.153C56.2703 75.6954 55.3981 77.792 54.1901 79.5436L64.0687 86.3564ZM68.5107 75.4761C69.2748 71.8465 69.7103 68.2371 69.8072 64.6521L57.8116 64.3279C57.7351 67.1563 57.3906 70.0468 56.7681 73.0039L68.5107 75.4761ZM69.8094 64.49C69.8094 62.2683 68.9673 59.5475 66.3576 57.8077L59.7012 67.7923C59.0466 67.3559 58.5044 66.7287 58.1666 65.9968C57.8518 65.3148 57.8094 64.7516 57.8094 64.49H69.8094ZM67.272 58.5574C65.7263 57.0116 63.6854 56.15 61.4694 56.15V68.15C61.0421 68.15 60.5327 68.0701 60.0067 67.851C59.4819 67.6323 59.0752 67.3311 58.7867 67.0426L67.272 58.5574ZM62.4558 56.2316C60.5563 55.9151 58.7577 56.2776 57.2261 57.0434L62.5927 67.7766C62.3722 67.8868 62.063 68.0038 61.6758 68.0684C61.2827 68.1339 60.8761 68.1339 60.483 68.0684L62.4558 56.2316ZM56.8224 57.265C54.5185 58.6474 53.2594 61.0273 53.2594 63.58H65.2594C65.2594 64.1697 65.1301 64.9774 64.6668 65.8114C64.1991 66.6533 63.5603 67.2166 62.9963 67.555L56.8224 57.265ZM53.2681 63.2561C53.1129 66.1284 52.7275 68.7947 52.1283 71.2664L63.7905 74.0936C64.5779 70.8453 65.0592 67.4449 65.2506 63.9039L53.2681 63.2561ZM52.1385 71.2248C51.5716 73.4926 50.6182 76.026 49.2128 78.8367L59.9459 84.2033C61.6606 80.774 62.9605 77.414 63.7802 74.1352L52.1385 71.2248ZM141.805 128.58L144.097 123.035L144.066 123.022L144.034 123.009L141.805 128.58ZM125.685 117.4L121.096 121.265L121.132 121.308L121.17 121.351L125.685 117.4ZM116.325 99.59L110.553 101.229L110.566 101.272L110.578 101.314L116.325 99.59ZM116.065 52.4L121.869 53.9234L121.871 53.9146L121.873 53.9058L116.065 52.4ZM124.905 34.59L129.501 38.4472L129.518 38.4272L129.535 38.4071L124.905 34.59ZM140.895 23.28L143.098 28.8609L143.13 28.8484L143.161 28.8356L140.895 23.28ZM189.255 23.28L186.989 28.8356L187.021 28.8484L187.052 28.8609L189.255 23.28ZM205.245 34.59L200.616 38.4071L200.633 38.4272L200.649 38.4472L205.245 34.59ZM214.085 52.4L208.277 53.9058L208.28 53.9146L208.282 53.9234L214.085 52.4ZM213.695 99.59L207.943 97.8855L207.936 97.9088L207.929 97.9322L213.695 99.59ZM204.335 117.4L199.785 113.489L199.78 113.495L204.335 117.4ZM188.215 128.58L186.012 122.999L185.968 123.017L185.923 123.035L188.215 128.58ZM160.395 84.38L165.081 88.1282L165.52 87.5785L165.821 86.942L160.395 84.38ZM160.265 85.68L165.41 82.593L165.41 82.593L160.265 85.68ZM161.435 86.59L159.538 92.2821L159.538 92.2821L161.435 86.59ZM163.125 86.72L162.381 80.7663L162.329 80.7729L162.277 80.7803L163.125 86.72ZM164.815 85.81L169.425 89.6511L169.586 89.4574L169.731 89.2508L164.815 85.81ZM168.455 76.97L162.555 75.883L162.555 75.883L168.455 76.97ZM169.495 67.09L175.493 67.2478L175.495 67.1689V67.09H169.495ZM167.285 64.88L166.299 70.7984L166.789 70.88H167.285V64.88ZM165.725 65.14L168.409 70.5066L168.409 70.5066L165.725 65.14ZM164.945 66.31L170.937 66.6338L170.945 66.472V66.31H164.945ZM163.645 75.41L169.476 76.8236L169.476 76.8236L163.645 75.41ZM165.075 126.61C156.636 126.61 149.697 125.35 144.097 123.035L139.513 134.125C146.913 137.184 155.488 138.61 165.075 138.61V126.61ZM144.034 123.009C138.336 120.73 133.771 117.53 130.201 113.449L121.17 121.351C126.093 126.977 132.274 131.23 139.577 134.151L144.034 123.009ZM130.275 113.535C126.703 109.294 123.945 104.109 122.072 97.8659L110.578 101.314C112.865 108.938 116.348 115.626 121.096 121.265L130.275 113.535ZM122.097 97.9511C120.282 91.5579 119.335 84.2357 119.335 75.93H107.335C107.335 85.1309 108.382 93.5821 110.553 101.229L122.097 97.9511ZM119.335 75.93C119.335 67.582 120.204 60.2642 121.869 53.9234L110.262 50.8766C108.286 58.4025 107.335 66.7713 107.335 75.93H119.335ZM121.873 53.9058C123.502 47.625 126.079 42.5242 129.501 38.4472L120.309 30.7328C115.585 36.3625 112.269 43.135 110.257 50.8942L121.873 53.9058ZM129.535 38.4071C132.895 34.3317 137.354 31.1283 143.098 28.8609L138.692 17.6991C131.263 20.6317 125.062 24.9683 120.276 30.7729L129.535 38.4071ZM143.161 28.8356C148.829 26.5238 156.07 25.25 165.075 25.25V13.25C155.014 13.25 146.135 14.6629 138.629 17.7244L143.161 28.8356ZM165.075 25.25C174.081 25.25 181.321 26.5238 186.989 28.8356L191.521 17.7244C184.016 14.6629 175.136 13.25 165.075 13.25V25.25ZM187.052 28.8609C192.796 31.1283 197.256 34.3317 200.616 38.4071L209.875 30.7729C205.088 24.9683 198.888 20.6317 191.458 17.6991L187.052 28.8609ZM200.649 38.4472C204.071 42.5242 206.649 47.625 208.277 53.9058L219.893 50.8942C217.882 43.135 214.566 36.3624 209.841 30.7328L200.649 38.4472ZM208.282 53.9234C209.946 60.2642 210.815 67.582 210.815 75.93H222.815C222.815 66.7713 221.864 58.4025 219.889 50.8766L208.282 53.9234ZM210.815 75.93C210.815 84.2153 209.83 91.5144 207.943 97.8855L219.448 101.295C221.72 93.6256 222.815 85.1514 222.815 75.93H210.815ZM207.929 97.9322C206.148 104.125 203.411 109.271 199.785 113.489L208.885 121.311C213.753 115.649 217.256 108.921 219.462 101.248L207.929 97.9322ZM199.78 113.495C196.322 117.529 191.79 120.719 186.012 122.999L190.418 134.161C197.814 131.241 204.029 126.977 208.891 121.305L199.78 113.495ZM185.923 123.035C180.317 125.352 173.419 126.61 165.075 126.61V138.61C174.585 138.61 183.114 137.181 190.507 134.125L185.923 123.035ZM155.71 80.6318C155.01 81.5067 154.297 82.7859 154.133 84.433C153.963 86.1331 154.437 87.6275 155.12 88.767L165.41 82.593C165.834 83.2992 166.2 84.3602 166.073 85.627C165.952 86.8408 165.434 87.6867 165.081 88.1282L155.71 80.6318ZM155.12 88.767C156.182 90.5361 157.783 91.6972 159.538 92.2821L163.333 80.8979C163.648 81.0029 164.039 81.1873 164.436 81.4964C164.84 81.81 165.168 82.1893 165.41 82.593L155.12 88.767ZM159.538 92.2821C161.041 92.7832 162.555 92.8624 163.974 92.6597L162.277 80.7803C162.482 80.751 162.869 80.7434 163.333 80.8979L159.538 92.2821ZM163.87 92.6737C166.019 92.405 167.983 91.3809 169.425 89.6511L160.206 81.9689C160.451 81.6746 160.791 81.3772 161.223 81.1447C161.652 80.9138 162.06 80.8065 162.381 80.7663L163.87 92.6737ZM169.731 89.2508C172.071 85.9073 173.602 82.1488 174.356 78.057L162.555 75.883C162.095 78.3778 161.199 80.5127 159.9 82.3692L169.731 89.2508ZM174.356 78.057C175.018 74.462 175.398 70.858 175.493 67.2478L163.497 66.9322C163.419 69.9086 163.106 72.8913 162.555 75.883L174.356 78.057ZM175.495 67.09C175.495 65.2645 174.963 62.6102 172.593 60.7148L165.097 70.0852C164.411 69.5363 163.972 68.858 163.733 68.2364C163.512 67.6624 163.495 67.2315 163.495 67.09H175.495ZM172.593 60.7148C170.995 59.4361 169.119 58.88 167.285 58.88V70.88C167.012 70.88 166.646 70.8399 166.233 70.7021C165.813 70.5621 165.426 70.3484 165.097 70.0852L172.593 60.7148ZM168.272 58.9616C166.372 58.6451 164.574 59.0076 163.042 59.7734L168.409 70.5066C168.188 70.6168 167.879 70.7338 167.492 70.7984C167.099 70.8639 166.692 70.8639 166.299 70.7984L168.272 58.9616ZM163.042 59.7734C162.07 60.2593 160.981 61.0499 160.148 62.2993C159.29 63.5863 158.945 65.0001 158.945 66.31H170.945C170.945 67.0999 170.731 68.0587 170.133 68.9557C169.56 69.8151 168.86 70.2807 168.409 70.5066L163.042 59.7734ZM158.954 65.9861C158.799 68.8584 158.413 71.5247 157.814 73.9964L169.476 76.8236C170.264 73.5753 170.745 70.1749 170.937 66.6338L158.954 65.9861ZM157.814 73.9964C157.232 76.4 156.298 79.0048 154.97 81.818L165.821 86.942C167.439 83.5152 168.672 80.14 169.476 76.8236L157.814 73.9964ZM263.168 93.74L268.795 91.6561L257.17 93.5937L263.168 93.74ZM261.738 114.28L267.704 114.919L267.706 114.906L267.707 114.892L261.738 114.28ZM260.178 121.04L254.56 118.933L254.547 118.97L254.533 119.008L260.178 121.04ZM256.798 126.63L252.436 122.51L252.374 122.576L252.314 122.644L256.798 126.63ZM251.598 130.27L249.291 124.732L249.149 124.791L249.01 124.857L251.598 130.27ZM237.298 130.27L239.798 124.816L239.745 124.791L239.691 124.768L237.298 130.27ZM232.098 126.63L227.614 130.616L227.674 130.684L227.736 130.75L232.098 126.63ZM228.848 121.04L234.494 119.008L234.48 118.97L234.466 118.933L228.848 121.04ZM227.288 114.28L221.321 114.906L221.323 114.919L227.288 114.28ZM227.288 37.84L221.323 37.2008L221.321 37.2141L227.288 37.84ZM228.848 31.08L234.466 33.1867L234.466 33.1867L228.848 31.08ZM232.098 25.62L227.736 21.5003L227.674 21.5661L227.614 21.6338L232.098 25.62ZM237.298 21.98L239.691 27.4824L239.745 27.4589L239.798 27.4344L237.298 21.98ZM251.598 21.98L249.01 27.3928L249.149 27.4592L249.291 27.5185L251.598 21.98ZM256.798 25.62L252.314 29.6062L252.374 29.6739L252.436 29.7397L256.798 25.62ZM261.738 37.84L267.707 37.2309L267.706 37.2159L267.704 37.2008L261.738 37.84ZM262.648 50.19L256.654 50.4506L256.654 50.4564L262.648 50.19ZM263.298 62.67L257.309 63.0223L268.972 64.6231L263.298 62.67ZM269.668 47.46L264.321 44.7393L264.311 44.7579L264.302 44.7767L269.668 47.46ZM276.428 34.46L271.14 31.6267L271.138 31.6301L276.428 34.46ZM281.108 27.96L285.449 32.1029L285.494 32.0547L285.539 32.0056L281.108 27.96ZM287.088 23.41L289.685 28.8191L289.728 28.7982L289.772 28.7766L287.088 23.41ZM294.368 21.59L294.175 15.5931L294.169 15.5933L294.368 21.59ZM303.078 23.41L305.464 17.9047L305.425 17.8878L305.386 17.8715L303.078 23.41ZM313.478 32.77L307.976 35.1624L308.008 35.2353L308.041 35.3073L313.478 32.77ZM313.218 46.16L307.641 43.9482L307.62 44.0006L307.6 44.0533L313.218 46.16ZM308.408 56.56L303.151 53.6685L303.151 53.6685L308.408 56.56ZM302.168 66.57L297.259 63.1203L297.25 63.1339L297.24 63.1476L302.168 66.57ZM295.278 75.41L299.731 79.4317L299.763 79.3966L299.794 79.361L295.278 75.41ZM287.998 82.3L291.085 87.4449L291.409 87.2509L291.705 87.0179L287.998 82.3ZM287.218 83.34L281.335 82.1632L281.218 82.7459V83.34H287.218ZM287.478 84.51L282.112 87.1933L282.547 88.0642L283.236 88.7527L287.478 84.51ZM288.388 85.03L286.933 90.8509L287.072 90.8855L287.212 90.9135L288.388 85.03ZM289.818 84.64L293.147 89.6323L293.391 89.4695L293.618 89.2837L289.818 84.64ZM292.548 82.3L288.749 77.6562L288.64 77.7457L288.535 77.8402L292.548 82.3ZM295.278 79.7L299.701 75.6456L295.26 70.8006L290.839 75.664L295.278 79.7ZM300.738 86.46L305.621 82.9726L305.621 82.9726L300.738 86.46ZM305.418 94L300.124 96.8235L300.181 96.9301L300.242 97.0343L305.418 94ZM309.318 101.54L303.843 103.994L303.878 104.072L303.915 104.148L309.318 101.54ZM312.308 108.69L318.001 106.793L317.99 106.76L317.978 106.727L312.308 108.69ZM311.528 121.17L306.186 118.439L306.162 118.487L306.138 118.535L311.528 121.17ZM300.998 130.14L303.164 135.735L303.212 135.717L303.259 135.698L300.998 130.14ZM286.048 130.4L283.711 135.926L283.729 135.934L283.748 135.942L286.048 130.4ZM274.738 120L269.509 122.942L269.554 123.021L269.601 123.1L274.738 120ZM272.008 114.93L266.554 117.43L266.618 117.569L266.689 117.705L272.008 114.93ZM265.898 101.02L260.288 103.148L260.32 103.232L260.354 103.314L265.898 101.02ZM257.17 93.5937C257.086 97.0473 256.918 100.409 256.666 103.68L268.631 104.6C268.899 101.111 269.078 97.5394 269.167 93.8863L257.17 93.5937ZM256.666 103.68C256.41 107.009 256.111 110.338 255.77 113.668L267.707 114.892C268.059 111.462 268.367 108.031 268.631 104.6L256.666 103.68ZM255.773 113.641C255.561 115.614 255.147 117.37 254.56 118.933L265.796 123.147C266.77 120.55 267.396 117.799 267.704 114.919L255.773 113.641ZM254.533 119.008C254.012 120.455 253.302 121.593 252.436 122.51L261.161 130.75C263.241 128.547 264.785 125.958 265.824 123.072L254.533 119.008ZM252.314 122.644C251.574 123.477 250.605 124.184 249.291 124.732L253.906 135.808C256.752 134.623 259.25 132.903 261.283 130.616L252.314 122.644ZM249.01 124.857C247.98 125.35 246.559 125.7 244.578 125.7V137.7C247.971 137.7 251.23 137.097 254.187 135.683L249.01 124.857ZM244.578 125.7C242.488 125.7 240.946 125.341 239.798 124.816L234.799 135.724C237.811 137.105 241.122 137.7 244.578 137.7V125.7ZM239.691 124.768C238.431 124.22 237.37 123.473 236.461 122.51L227.736 130.75C229.774 132.907 232.179 134.587 234.906 135.772L239.691 124.768ZM236.583 122.644C235.754 121.711 235.042 120.529 234.494 119.008L223.203 123.072C224.215 125.884 225.669 128.429 227.614 130.616L236.583 122.644ZM234.466 118.933C233.88 117.37 233.466 115.614 233.254 113.641L221.323 114.919C221.631 117.799 222.257 120.55 223.23 123.147L234.466 118.933ZM233.256 113.654C231.979 101.479 231.338 88.948 231.338 76.06H219.338C219.338 89.3454 219.998 102.295 221.321 114.906L233.256 113.654ZM231.338 76.06C231.338 63.172 231.979 50.6413 233.256 38.4659L221.321 37.2141C219.998 49.8254 219.338 62.7746 219.338 76.06H231.338ZM233.254 38.4792C233.466 36.5055 233.88 34.7502 234.466 33.1867L223.23 28.9733C222.257 31.5698 221.631 34.3211 221.323 37.2008L233.254 38.4792ZM234.466 33.1867C235.004 31.7527 235.717 30.58 236.583 29.6062L227.614 21.6338C225.706 23.78 224.253 26.2473 223.23 28.9733L234.466 33.1867ZM236.461 29.7397C237.37 28.7767 238.431 28.0303 239.691 27.4824L234.906 16.4776C232.179 17.6631 229.774 19.3433 227.736 21.5003L236.461 29.7397ZM239.798 27.4344C240.946 26.9085 242.488 26.55 244.578 26.55V14.55C241.122 14.55 237.811 15.1448 234.799 16.5256L239.798 27.4344ZM244.578 26.55C246.559 26.55 247.98 26.9004 249.01 27.3928L254.187 16.5672C251.23 15.1529 247.971 14.55 244.578 14.55V26.55ZM249.291 27.5185C250.605 28.0661 251.574 28.7734 252.314 29.6062L261.283 21.6338C259.25 19.3466 256.752 17.6272 253.906 16.4415L249.291 27.5185ZM252.436 29.7397C253.342 30.6985 254.051 31.8277 254.56 33.1867L265.796 28.9733C264.746 26.1723 263.202 23.6615 261.161 21.5003L252.436 29.7397ZM254.56 33.1867C255.147 34.7502 255.561 36.5055 255.773 38.4792L267.704 37.2008C267.396 34.3211 266.77 31.5698 265.796 28.9733L254.56 33.1867ZM255.769 38.4491C256.192 42.5878 256.486 46.588 256.654 50.4506L268.643 49.9294C268.464 45.8186 268.152 41.5855 267.707 37.2309L255.769 38.4491ZM256.654 50.4564C256.829 54.3885 257.047 58.5774 257.309 63.0223L269.288 62.3177C269.03 57.9226 268.814 53.7915 268.643 49.9236L256.654 50.4564ZM268.972 64.6231C270.708 59.5787 272.73 54.7532 275.035 50.1433L264.302 44.7767C261.753 49.8735 259.529 55.1879 257.625 60.7169L268.972 64.6231ZM275.016 50.1807C277.516 45.2668 279.75 40.9713 281.719 37.2899L271.138 31.6301C269.12 35.402 266.847 39.7732 264.321 44.7393L275.016 50.1807ZM281.717 37.2933C282.773 35.3227 284.019 33.6008 285.449 32.1029L276.768 23.8171C274.558 26.1326 272.684 28.7439 271.14 31.6267L281.717 37.2933ZM285.539 32.0056C286.904 30.5105 288.292 29.4879 289.685 28.8191L284.492 18.0009C281.552 19.4121 278.952 21.4229 276.678 23.9144L285.539 32.0056ZM289.772 28.7766C291.227 28.049 292.803 27.6455 294.568 27.5867L294.169 15.5933C290.734 15.7078 287.457 16.5176 284.405 18.0434L289.772 28.7766ZM294.562 27.5869C296.201 27.534 298.245 27.8959 300.771 28.9485L305.386 17.8715C301.672 16.324 297.909 15.4727 294.175 15.5931L294.562 27.5869ZM300.693 28.9153C304.934 30.7531 307.016 32.9537 307.976 35.1624L318.981 30.3776C316.474 24.6129 311.623 20.5736 305.464 17.9047L300.693 28.9153ZM308.041 35.3073C308.993 37.3466 309.192 40.0376 307.641 43.9482L318.796 48.3718C321.232 42.2291 321.604 35.9934 318.916 30.2327L308.041 35.3073ZM307.6 44.0533C306.408 47.2323 304.928 50.4373 303.151 53.6685L313.666 59.4515C315.702 55.7494 317.429 52.021 318.836 48.2667L307.6 44.0533ZM303.151 53.6685C301.349 56.9447 299.385 60.0949 297.259 63.1203L307.078 70.0197C309.458 66.6318 311.654 63.1086 313.666 59.4515L303.151 53.6685ZM297.24 63.1476C295.197 66.0895 293.038 68.8591 290.763 71.459L299.794 79.361C302.372 76.4142 304.806 73.2905 307.097 69.9924L297.24 63.1476ZM290.826 71.3883C288.589 73.8642 286.409 75.9183 284.292 77.5821L291.705 87.0179C294.441 84.8684 297.114 82.3291 299.731 79.4317L290.826 71.3883ZM284.911 77.1551C283.258 78.1471 281.802 79.8268 281.335 82.1632L293.102 84.5168C292.973 85.1606 292.697 85.7971 292.278 86.355C291.872 86.8968 291.425 87.2411 291.085 87.4449L284.911 77.1551ZM281.218 83.34C281.218 84.5937 281.475 85.9195 282.112 87.1933L292.845 81.8267C293.135 82.4072 293.218 82.953 293.218 83.34H281.218ZM283.236 88.7527C284.241 89.7582 285.5 90.4925 286.933 90.8509L289.844 79.2091C290.584 79.3941 291.236 79.7818 291.721 80.2673L283.236 88.7527ZM287.212 90.9135C289.756 91.4223 291.857 90.492 293.147 89.6323L286.49 79.6477C286.74 79.4813 287.888 78.811 289.565 79.1465L287.212 90.9135ZM293.618 89.2837C294.64 88.4474 295.622 87.6062 296.562 86.7598L288.535 77.8402C287.742 78.5538 286.904 79.2726 286.019 79.9963L293.618 89.2837ZM296.348 86.9437C297.539 85.9688 298.662 84.8974 299.718 83.736L290.839 75.664C290.161 76.4092 289.464 77.0711 288.749 77.6562L296.348 86.9437ZM290.856 83.7543C292.589 85.6451 294.256 87.7077 295.856 89.9474L305.621 82.9726C303.754 80.3589 301.782 77.9149 299.701 75.6456L290.856 83.7543ZM295.856 89.9474C297.44 92.1645 298.862 94.4563 300.124 96.8235L310.713 91.1765C309.202 88.3437 307.504 85.6088 305.621 82.9726L295.856 89.9474ZM300.242 97.0343C301.612 99.3706 302.811 101.691 303.843 103.994L314.793 99.0857C313.573 96.3627 312.172 93.6561 310.595 90.9657L300.242 97.0343ZM303.915 104.148C305.044 106.486 305.946 108.653 306.639 110.653L317.978 106.727C317.111 104.22 316.02 101.62 314.722 98.9315L303.915 104.148ZM306.616 110.587C307.617 113.589 307.396 116.071 306.186 118.439L316.871 123.901C319.647 118.469 319.947 112.631 318.001 106.793L306.616 110.587ZM306.138 118.535C305.041 120.779 302.867 122.902 298.738 124.582L303.259 135.698C309.356 133.218 314.203 129.361 316.919 123.805L306.138 118.535ZM298.832 124.545C294.654 126.162 291.29 126.079 288.349 124.858L283.748 135.942C289.994 138.534 296.596 138.278 303.164 135.735L298.832 124.545ZM288.386 124.874C285.263 123.553 282.389 121.065 279.876 116.9L269.601 123.1C273.155 128.988 277.821 133.434 283.711 135.926L288.386 124.874ZM279.968 117.058C279.228 115.744 278.35 114.113 277.328 112.155L266.689 117.705C267.747 119.734 268.688 121.483 269.509 122.942L279.968 117.058ZM277.463 112.43C276.52 110.373 275.533 108.185 274.501 105.863L263.536 110.737C264.584 113.095 265.59 115.327 266.554 117.43L277.463 112.43ZM274.501 105.863C273.484 103.573 272.464 101.194 271.443 98.7259L260.354 103.314C261.413 105.872 262.473 108.347 263.536 110.737L274.501 105.863ZM271.508 98.8921C270.56 96.3923 269.656 93.9803 268.795 91.6561L257.542 95.8239C258.414 98.1797 259.33 100.621 260.288 103.148L271.508 98.8921Z" fill="white" mask="url(#path-1-outside-1_90_179)"/>
</g>
<defs>
<clipPath id="clip0_90_179">
<rect width="324" height="150" fill="white"/>
</clipPath>
</defs>
</svg>
