<svg width="432" height="150" viewBox="0 0 432 150" fill="none" xmlns="http://www.w3.org/2000/svg">
<g clip-path="url(#clip0_90_178)">
<mask id="path-1-outside-1_90_178" maskUnits="userSpaceOnUse" x="4" y="11" width="424" height="126" fill="black">
<rect fill="white" x="4" y="11" width="424" height="126"/>
<path d="M48.8652 87.97C48.6919 92.3033 48.4319 96.3767 48.0852 100.19C47.7385 103.917 47.3485 107.947 46.9152 112.28C46.6552 114.707 46.1352 116.96 45.3552 119.04C44.5752 121.207 43.4485 123.07 41.9752 124.63C40.5885 126.19 38.8552 127.403 36.7752 128.27C34.7819 129.223 32.4419 129.7 29.7552 129.7C26.9819 129.7 24.5552 129.223 22.4752 128.27C20.4819 127.403 18.7485 126.19 17.2752 124.63C15.8885 123.07 14.8052 121.207 14.0252 119.04C13.2452 116.96 12.7252 114.707 12.4652 112.28C11.1652 99.8867 10.5152 87.1467 10.5152 74.06C10.5152 60.9733 11.1652 48.2333 12.4652 35.84C12.7252 33.4133 13.2452 31.16 14.0252 29.08C14.8052 27 15.8885 25.18 17.2752 23.62C18.7485 22.06 20.4819 20.8467 22.4752 19.98C24.5552 19.0267 26.9819 18.55 29.7552 18.55C32.8752 18.55 35.5185 19.1133 37.6852 20.24C39.9385 21.3667 41.8019 22.9267 43.2752 24.92C45.1819 27.6067 47.0452 30.5967 48.8652 33.89C50.7719 37.1833 52.5919 40.6067 54.3252 44.16C56.1452 47.6267 57.8785 51.18 59.5252 54.82C61.1719 58.46 62.7752 61.97 64.3352 65.35C64.7685 66.2167 65.2885 66.65 65.8952 66.65C66.5019 66.65 67.0219 66.2167 67.4552 65.35C69.0152 61.97 70.6185 58.46 72.2652 54.82C73.9119 51.18 75.6019 47.6267 77.3352 44.16C79.1552 40.6067 80.9752 37.1833 82.7952 33.89C84.7019 30.5967 86.6085 27.6067 88.5152 24.92C89.9019 22.9267 91.7219 21.3667 93.9752 20.24C96.2285 19.1133 98.9152 18.55 102.035 18.55C104.809 18.55 107.192 19.0267 109.185 19.98C111.265 20.8467 112.999 22.06 114.385 23.62C115.859 25.18 116.985 27 117.765 29.08C118.545 31.16 119.065 33.4133 119.325 35.84C120.539 48.2333 121.145 60.9733 121.145 74.06C121.145 87.1467 120.539 99.8867 119.325 112.28C119.065 114.707 118.545 116.96 117.765 119.04C116.985 121.207 115.859 123.07 114.385 124.63C112.999 126.19 111.265 127.403 109.185 128.27C107.192 129.223 104.809 129.7 102.035 129.7C99.3485 129.7 96.9652 129.223 94.8852 128.27C92.8919 127.403 91.1585 126.19 89.6852 124.63C88.2985 123.07 87.2152 121.207 86.4352 119.04C85.6552 116.96 85.1352 114.707 84.8752 112.28C84.4419 107.947 84.0519 103.917 83.7052 100.19C83.3585 96.3767 83.0985 92.3033 82.9252 87.97C84.3985 84.85 85.6552 82.0333 86.6952 79.52C87.7352 76.92 88.6452 74.1467 89.4252 71.2C89.5985 70.42 89.5552 69.8133 89.2952 69.38C89.1219 68.9467 88.8185 68.6867 88.3852 68.6C88.0385 68.4267 87.6485 68.47 87.2152 68.73C86.8685 68.99 86.6085 69.4233 86.4352 70.03C84.9619 74.71 83.0552 79.52 80.7152 84.46C78.4619 89.4 76.2085 93.95 73.9552 98.11C73.0019 99.7567 71.7885 101.013 70.3152 101.88C68.9285 102.66 67.4552 103.05 65.8952 103.05C64.3352 103.05 62.8185 102.66 61.3452 101.88C59.8719 101.013 58.7019 99.7567 57.8352 98.11C55.5819 93.95 53.2852 89.4 50.9452 84.46C48.6919 79.52 46.8285 74.71 45.3552 70.03C45.1819 69.4233 44.8785 68.99 44.4452 68.73C44.0985 68.47 43.7085 68.4267 43.2752 68.6C42.9285 68.6867 42.6252 68.9467 42.3652 69.38C42.1919 69.8133 42.1919 70.42 42.3652 71.2C43.1452 74.1467 44.0552 76.92 45.0952 79.52C46.1352 82.0333 47.3919 84.85 48.8652 87.97ZM133.071 112.28C131.771 99.8867 131.121 87.1467 131.121 74.06C131.121 60.9733 131.771 48.2333 133.071 35.84C133.331 33.4133 133.851 31.16 134.631 29.08C135.411 27 136.494 25.18 137.881 23.62C139.354 22.06 141.087 20.8467 143.081 19.98C145.161 19.0267 147.587 18.55 150.361 18.55C153.047 18.55 155.387 19.0267 157.381 19.98C159.461 20.8467 161.194 22.06 162.581 23.62C164.054 25.18 165.181 27 165.961 29.08C166.741 31.16 167.261 33.4133 167.521 35.84C168.821 48.2333 169.471 60.9733 169.471 74.06C169.471 87.1467 168.821 99.8867 167.521 112.28C167.261 114.707 166.741 116.96 165.961 119.04C165.181 121.207 164.054 123.07 162.581 124.63C161.194 126.19 159.461 127.403 157.381 128.27C155.387 129.223 153.047 129.7 150.361 129.7C147.587 129.7 145.161 129.223 143.081 128.27C141.087 127.403 139.354 126.19 137.881 124.63C136.494 123.07 135.411 121.207 134.631 119.04C133.851 116.96 133.331 114.707 133.071 112.28ZM231.883 130.61C221.57 130.61 212.946 129.137 206.013 126.19C199.166 123.243 193.663 119.213 189.503 114.1C185.43 108.9 182.526 102.877 180.793 96.03C179.06 89.0967 178.193 81.73 178.193 73.93C178.193 66.13 179.06 58.8067 180.793 51.96C182.526 45.0267 185.43 39.0033 189.503 33.89C193.663 28.7767 199.166 24.7467 206.013 21.8C212.946 18.7667 221.57 17.25 231.883 17.25C237.863 17.25 243.236 17.7267 248.003 18.68C252.856 19.6333 257.103 21.1067 260.743 23.1C263.343 24.4 265.293 26.0467 266.593 28.04C267.98 30.0333 268.846 32.2 269.193 34.54C269.626 36.7933 269.583 39.1333 269.063 41.56C268.543 43.9 267.676 46.1533 266.463 48.32C265.25 50.5733 263.733 52.61 261.913 54.43C260.093 56.25 258.056 57.68 255.803 58.72C253.636 59.6733 251.296 60.1933 248.783 60.28C246.356 60.28 243.843 59.63 241.243 58.33C240.116 57.7233 238.773 57.2467 237.213 56.9C235.653 56.4667 233.876 56.25 231.883 56.25C228.763 56.25 226.12 56.7267 223.953 57.68C221.786 58.6333 220.01 59.9333 218.623 61.58C217.323 63.2267 216.326 65.09 215.633 67.17C215.026 69.25 214.723 71.46 214.723 73.8C214.723 76.14 215.026 78.3933 215.633 80.56C216.326 82.7267 217.323 84.6333 218.623 86.28C220.01 87.9267 221.786 89.2267 223.953 90.18C226.12 91.1333 228.763 91.61 231.883 91.61C233.876 91.61 235.653 91.4367 237.213 91.09C238.773 90.6567 240.116 90.1367 241.243 89.53C243.843 88.23 246.4 87.6233 248.913 87.71C251.513 87.71 253.94 88.2733 256.193 89.4C258.446 90.5267 260.44 92.0433 262.173 93.95C263.993 95.77 265.51 97.85 266.723 100.19C267.85 102.357 268.63 104.61 269.063 106.95C269.496 109.29 269.496 111.587 269.063 113.84C268.716 116.007 267.85 118.043 266.463 119.95C265.076 121.943 263.17 123.59 260.743 124.89C257.103 126.883 252.856 128.313 248.003 129.18C243.236 130.133 237.863 130.61 231.883 130.61ZM314.693 94.47C314.52 97.5033 314.303 100.493 314.043 103.44C313.87 106.387 313.61 109.333 313.263 112.28C313.003 114.707 312.483 116.96 311.703 119.04C310.923 121.207 309.796 123.07 308.323 124.63C306.936 126.19 305.203 127.403 303.123 128.27C301.13 129.223 298.79 129.7 296.103 129.7C293.33 129.7 290.903 129.223 288.823 128.27C286.83 127.403 285.096 126.19 283.623 124.63C282.236 123.07 281.153 121.207 280.373 119.04C279.593 116.96 279.073 114.707 278.813 112.28C277.513 99.8867 276.863 87.1467 276.863 74.06C276.863 60.9733 277.513 48.2333 278.813 35.84C279.073 33.4133 279.593 31.16 280.373 29.08C281.153 27 282.236 25.18 283.623 23.62C285.096 22.06 286.83 20.8467 288.823 19.98C290.903 19.0267 293.33 18.55 296.103 18.55C298.79 18.55 301.13 19.0267 303.123 19.98C305.203 20.8467 306.936 22.06 308.323 23.62C309.796 25.18 310.923 27 311.703 29.08C312.483 31.16 313.003 33.4133 313.263 35.84C313.61 38.7867 313.87 41.7333 314.043 44.68C314.303 47.6267 314.52 50.6167 314.693 53.65C317.986 52.87 321.41 52.48 324.963 52.48C328.516 52.3933 331.94 52.74 335.233 53.52C335.406 50.4867 335.58 47.54 335.753 44.68C336.013 41.7333 336.316 38.7867 336.663 35.84C336.923 33.4133 337.443 31.16 338.223 29.08C339.09 27 340.216 25.18 341.603 23.62C342.99 22.06 344.68 20.8467 346.673 19.98C348.753 19.0267 351.136 18.55 353.823 18.55C356.51 18.55 358.893 19.0267 360.973 19.98C363.053 20.8467 364.786 22.06 366.173 23.62C367.646 25.18 368.773 27 369.553 29.08C370.42 31.16 370.983 33.4133 371.243 35.84C372.456 48.2333 373.063 60.9733 373.063 74.06C373.063 87.1467 372.456 99.8867 371.243 112.28C370.983 114.707 370.42 116.96 369.553 119.04C368.773 121.207 367.646 123.07 366.173 124.63C364.786 126.19 363.053 127.403 360.973 128.27C358.893 129.223 356.51 129.7 353.823 129.7C351.136 129.7 348.753 129.223 346.673 128.27C344.68 127.403 342.99 126.19 341.603 124.63C340.216 123.07 339.09 121.207 338.223 119.04C337.443 116.96 336.923 114.707 336.663 112.28C336.316 109.333 336.013 106.43 335.753 103.57C335.58 100.623 335.406 97.6333 335.233 94.6C331.94 95.38 328.516 95.77 324.963 95.77C321.41 95.6833 317.986 95.25 314.693 94.47ZM385.073 112.28C383.773 99.8867 383.123 87.1467 383.123 74.06C383.123 60.9733 383.773 48.2333 385.073 35.84C385.333 33.4133 385.853 31.16 386.633 29.08C387.413 27 388.496 25.18 389.883 23.62C391.356 22.06 393.089 20.8467 395.083 19.98C397.163 19.0267 399.589 18.55 402.363 18.55C405.049 18.55 407.389 19.0267 409.383 19.98C411.463 20.8467 413.196 22.06 414.583 23.62C416.056 25.18 417.183 27 417.963 29.08C418.743 31.16 419.263 33.4133 419.523 35.84C420.823 48.2333 421.473 60.9733 421.473 74.06C421.473 87.1467 420.823 99.8867 419.523 112.28C419.263 114.707 418.743 116.96 417.963 119.04C417.183 121.207 416.056 123.07 414.583 124.63C413.196 126.19 411.463 127.403 409.383 128.27C407.389 129.223 405.049 129.7 402.363 129.7C399.589 129.7 397.163 129.223 395.083 128.27C393.089 127.403 391.356 126.19 389.883 124.63C388.496 123.07 387.413 121.207 386.633 119.04C385.853 116.96 385.333 114.707 385.073 112.28Z"/>
</mask>
<path d="M48.8652 87.97L54.8604 88.2098L54.9192 86.739L54.2907 85.408L48.8652 87.97ZM48.0852 100.19L54.0594 100.746L54.0606 100.733L48.0852 100.19ZM46.9152 112.28L52.8811 112.919L52.8833 112.898L52.8854 112.877L46.9152 112.28ZM45.3552 119.04L39.7372 116.933L39.7233 116.97L39.7099 117.008L45.3552 119.04ZM41.9752 124.63L37.6131 120.51L37.5509 120.576L37.4907 120.644L41.9752 124.63ZM36.7752 128.27L34.4675 122.732L34.3254 122.791L34.1865 122.857L36.7752 128.27ZM22.4752 128.27L24.9751 122.816L24.9216 122.791L24.8676 122.768L22.4752 128.27ZM17.2752 124.63L12.7907 128.616L12.8509 128.684L12.9131 128.75L17.2752 124.63ZM14.0252 119.04L19.6705 117.008L19.6571 116.97L19.6432 116.933L14.0252 119.04ZM12.4652 112.28L6.49792 112.906L6.49934 112.919L12.4652 112.28ZM12.4652 35.84L6.49933 35.2008L6.49793 35.2141L12.4652 35.84ZM14.0252 29.08L19.6432 31.1867L19.6432 31.1867L14.0252 29.08ZM17.2752 23.62L12.9131 19.5003L12.8509 19.5661L12.7907 19.6338L17.2752 23.62ZM22.4752 19.98L24.8676 25.4824L24.9216 25.4589L24.9751 25.4344L22.4752 19.98ZM37.6852 20.24L34.9171 25.5633L34.9593 25.5853L35.0019 25.6066L37.6852 20.24ZM43.2752 24.92L48.1682 21.4475L48.1347 21.4003L48.1003 21.3536L43.2752 24.92ZM48.8652 33.89L43.6137 36.7921L43.6427 36.8445L43.6726 36.8962L48.8652 33.89ZM54.3252 44.16L48.9326 46.7905L48.9715 46.8704L49.0128 46.949L54.3252 44.16ZM59.5252 54.82L64.9918 52.347L64.9918 52.347L59.5252 54.82ZM64.3352 65.35L58.8874 67.8643L58.9267 67.9494L58.9686 68.0333L64.3352 65.35ZM67.4552 65.35L72.8218 68.0333L72.8637 67.9494L72.903 67.8643L67.4552 65.35ZM72.2652 54.82L66.7985 52.347L66.7985 52.347L72.2652 54.82ZM77.3352 44.16L71.9949 41.4247L71.9817 41.4507L71.9686 41.4767L77.3352 44.16ZM82.7952 33.89L77.6026 30.8838L77.5727 30.9355L77.5438 30.9879L82.7952 33.89ZM88.5152 24.92L93.4082 28.3925L93.4245 28.3695L93.4406 28.3464L88.5152 24.92ZM93.9752 20.24L91.2919 14.8734L91.2919 14.8734L93.9752 20.24ZM109.185 19.98L106.596 25.3928L106.735 25.4592L106.878 25.5185L109.185 19.98ZM114.385 23.62L109.901 27.6062L109.961 27.6739L110.023 27.7397L114.385 23.62ZM119.325 35.84L125.297 35.2554L125.294 35.2281L125.291 35.2008L119.325 35.84ZM119.325 112.28L125.291 112.919L125.294 112.892L125.297 112.865L119.325 112.28ZM117.765 119.04L112.147 116.933L112.133 116.97L112.12 117.008L117.765 119.04ZM114.385 124.63L110.023 120.51L109.961 120.576L109.901 120.644L114.385 124.63ZM109.185 128.27L106.878 122.732L106.735 122.791L106.596 122.857L109.185 128.27ZM94.8852 128.27L97.3851 122.816L97.3316 122.791L97.2776 122.768L94.8852 128.27ZM89.6852 124.63L85.2007 128.616L85.2609 128.684L85.3231 128.75L89.6852 124.63ZM86.4352 119.04L92.0805 117.008L92.0671 116.97L92.0532 116.933L86.4352 119.04ZM84.8752 112.28L78.905 112.877L78.9071 112.898L78.9093 112.919L84.8752 112.28ZM83.7052 100.19L77.7298 100.733L77.731 100.746L83.7052 100.19ZM82.9252 87.97L77.4997 85.408L76.8712 86.739L76.93 88.2098L82.9252 87.97ZM86.6952 79.52L92.2393 81.8141L92.2529 81.7813L92.2661 81.7483L86.6952 79.52ZM89.4252 71.2L95.2254 72.7354L95.2562 72.619L95.2823 72.5016L89.4252 71.2ZM89.2952 69.38L83.7244 71.6084L83.9029 72.0547L84.1502 72.4669L89.2952 69.38ZM88.3852 68.6L85.7019 73.9666L86.4206 74.3259L87.2085 74.4835L88.3852 68.6ZM87.2152 68.73L84.1282 63.5851L83.8628 63.7443L83.6152 63.93L87.2152 68.73ZM86.4352 70.03L92.1583 71.8317L92.1823 71.7553L92.2043 71.6783L86.4352 70.03ZM80.7152 84.46L75.2928 81.8915L75.2742 81.9306L75.2563 81.97L80.7152 84.46ZM73.9552 98.11L79.1478 101.116L79.1904 101.043L79.2309 100.968L73.9552 98.11ZM70.3152 101.88L73.2568 107.109L73.3073 107.081L73.3573 107.052L70.3152 101.88ZM61.3452 101.88L58.3031 107.052L58.419 107.12L58.5379 107.183L61.3452 101.88ZM57.8352 98.11L63.1447 95.3155L63.128 95.2838L63.1109 95.2523L57.8352 98.11ZM50.9452 84.46L45.4863 86.95L45.5042 86.9894L45.5228 87.0285L50.9452 84.46ZM45.3552 70.03L39.5861 71.6783L39.6081 71.7553L39.6321 71.8317L45.3552 70.03ZM44.4452 68.73L40.8452 73.53L41.0928 73.7157L41.3582 73.875L44.4452 68.73ZM43.2752 68.6L44.7304 74.4208L45.1255 74.3221L45.5035 74.1709L43.2752 68.6ZM42.3652 69.38L37.2202 66.293L36.9729 66.7053L36.7943 67.1516L42.3652 69.38ZM42.3652 71.2L36.5081 72.5016L36.5342 72.619L36.565 72.7354L42.3652 71.2ZM45.0952 79.52L39.5243 81.7483L39.5375 81.7813L39.5511 81.8141L45.0952 79.52ZM42.87 87.7302C42.7002 91.9752 42.4462 95.9466 42.1098 99.6468L54.0606 100.733C54.4175 96.8068 54.6835 92.6314 54.8604 88.2098L42.87 87.7302ZM42.111 99.6343C41.7658 103.345 41.3771 107.361 40.945 111.683L52.8854 112.877C53.3199 108.532 53.7113 104.488 54.0594 100.746L42.111 99.6343ZM40.9493 111.641C40.7379 113.614 40.3235 115.37 39.7372 116.933L50.9732 121.147C51.9469 118.55 52.5725 115.799 52.8811 112.919L40.9493 111.641ZM39.7099 117.008C39.1887 118.455 38.4791 119.593 37.6131 120.51L46.3373 128.75C48.418 126.547 49.9617 123.958 51.0005 121.072L39.7099 117.008ZM37.4907 120.644C36.7505 121.477 35.7819 122.184 34.4675 122.732L39.0829 133.808C41.9285 132.623 44.4266 130.903 46.4597 128.616L37.4907 120.644ZM34.1865 122.857C33.1569 123.35 31.736 123.7 29.7552 123.7V135.7C33.1477 135.7 36.4068 135.097 39.3639 133.683L34.1865 122.857ZM29.7552 123.7C27.6652 123.7 26.1225 123.341 24.9751 122.816L19.9753 133.724C22.9879 135.105 26.2985 135.7 29.7552 135.7V123.7ZM24.8676 122.768C23.6075 122.22 22.5468 121.473 21.6373 120.51L12.9131 128.75C14.9503 130.907 17.3562 132.587 20.0828 133.772L24.8676 122.768ZM21.7597 120.644C20.9309 119.711 20.2184 118.529 19.6705 117.008L8.37987 121.072C9.39204 123.884 10.8462 126.429 12.7907 128.616L21.7597 120.644ZM19.6432 116.933C19.0569 115.37 18.6425 113.614 18.4311 111.641L6.49934 112.919C6.80788 115.799 7.43353 118.55 8.40722 121.147L19.6432 116.933ZM18.4325 111.654C17.1553 99.4787 16.5152 86.948 16.5152 74.06H4.5152C4.5152 87.3454 5.17507 100.295 6.49793 112.906L18.4325 111.654ZM16.5152 74.06C16.5152 61.172 17.1553 48.6413 18.4325 36.4659L6.49793 35.2141C5.17507 47.8254 4.5152 60.7746 4.5152 74.06H16.5152ZM18.4311 36.4792C18.6425 34.5055 19.0569 32.7502 19.6432 31.1867L8.40722 26.9733C7.43353 29.5698 6.80788 32.3211 6.49934 35.2008L18.4311 36.4792ZM19.6432 31.1867C20.1809 29.7527 20.894 28.58 21.7597 27.6062L12.7907 19.6338C10.883 21.78 9.42947 24.2473 8.40722 26.9733L19.6432 31.1867ZM21.6373 27.7397C22.5468 26.7767 23.6075 26.0303 24.8676 25.4824L20.0828 14.4776C17.3562 15.6631 14.9503 17.3433 12.9131 19.5003L21.6373 27.7397ZM24.9751 25.4344C26.1225 24.9085 27.6652 24.55 29.7552 24.55V12.55C26.2985 12.55 22.9879 13.1448 19.9753 14.5256L24.9751 25.4344ZM29.7552 24.55C32.1718 24.55 33.8097 24.9875 34.9171 25.5633L40.4533 14.9167C37.2273 13.2392 33.5786 12.55 29.7552 12.55V24.55ZM35.0019 25.6066C36.4238 26.3175 37.5484 27.2663 38.4501 28.4863L48.1003 21.3536C46.0554 18.587 43.4532 16.4158 40.3685 14.8734L35.0019 25.6066ZM38.3822 28.3925C40.142 30.8723 41.8875 33.6684 43.6137 36.7921L54.1166 30.9879C52.2029 27.5249 50.2217 24.341 48.1682 21.4475L38.3822 28.3925ZM43.6726 36.8962C45.5055 40.0621 47.2591 43.3598 48.9326 46.7905L59.7178 41.5295C57.9247 37.8535 56.0382 34.3046 54.0578 30.8838L43.6726 36.8962ZM49.0128 46.949C50.7772 50.3098 52.4592 53.7577 54.0586 57.293L64.9918 52.347C63.2978 48.6023 61.5132 44.9435 59.6376 41.371L49.0128 46.949ZM54.0586 57.293C55.711 60.9458 57.3207 64.4696 58.8874 67.8643L69.783 62.8356C68.2297 59.4704 66.6327 55.9742 64.9918 52.347L54.0586 57.293ZM58.9686 68.0333C59.7589 69.6138 61.8441 72.65 65.8952 72.65V60.65C67.1594 60.65 68.206 61.1446 68.8913 61.7157C69.4795 62.2058 69.6959 62.6549 69.7018 62.6667L58.9686 68.0333ZM65.8952 72.65C69.9463 72.65 72.0315 69.6138 72.8218 68.0333L62.0886 62.6667C62.0945 62.6549 62.3109 62.2058 62.8991 61.7157C63.5844 61.1446 64.631 60.65 65.8952 60.65V72.65ZM72.903 67.8643C74.4697 64.4696 76.0794 60.9458 77.7318 57.293L66.7985 52.347C65.1577 55.9742 63.5607 59.4704 62.0074 62.8356L72.903 67.8643ZM77.7318 57.293C79.3475 53.7216 81.0042 50.2384 82.7018 46.8433L71.9686 41.4767C70.1995 45.0149 68.4762 48.6384 66.7985 52.347L77.7318 57.293ZM82.6755 46.8952C84.4685 43.3946 86.2589 40.0271 88.0466 36.7921L77.5438 30.9879C75.6915 34.3396 73.8419 37.8187 71.9949 41.4247L82.6755 46.8952ZM87.9878 36.8962C89.8157 33.7389 91.6234 30.9075 93.4082 28.3925L83.6222 21.4475C81.5937 24.3059 79.5881 27.4544 77.6026 30.8838L87.9878 36.8962ZM93.4406 28.3464C94.2321 27.2087 95.2681 26.3018 96.6585 25.6066L91.2919 14.8734C88.1756 16.4316 85.5717 18.6446 83.5898 21.4936L93.4406 28.3464ZM96.6585 25.6066C97.9037 24.9839 99.629 24.55 102.035 24.55V12.55C98.2014 12.55 94.5534 13.2427 91.2919 14.8734L96.6585 25.6066ZM102.035 24.55C104.135 24.55 105.59 24.9117 106.596 25.3928L111.774 14.5672C108.793 13.1416 105.482 12.55 102.035 12.55V24.55ZM106.878 25.5185C108.192 26.0661 109.16 26.7734 109.901 27.6062L118.87 19.6338C116.837 17.3466 114.338 15.6272 111.493 14.4415L106.878 25.5185ZM110.023 27.7397C110.929 28.6985 111.638 29.8277 112.147 31.1867L123.383 26.9733C122.333 24.1723 120.788 21.6615 118.747 19.5003L110.023 27.7397ZM112.147 31.1867C112.734 32.7502 113.148 34.5055 113.359 36.4792L125.291 35.2008C124.983 32.3211 124.357 29.5698 123.383 26.9733L112.147 31.1867ZM113.354 36.4246C114.547 48.6141 115.145 61.1587 115.145 74.06H127.145C127.145 60.7879 126.53 47.8525 125.297 35.2554L113.354 36.4246ZM115.145 74.06C115.145 86.9613 114.547 99.5059 113.354 111.695L125.297 112.865C126.53 100.267 127.145 87.3321 127.145 74.06H115.145ZM113.359 111.641C113.148 113.614 112.734 115.37 112.147 116.933L123.383 121.147C124.357 118.55 124.983 115.799 125.291 112.919L113.359 111.641ZM112.12 117.008C111.599 118.455 110.889 119.593 110.023 120.51L118.747 128.75C120.828 126.547 122.372 123.958 123.411 121.072L112.12 117.008ZM109.901 120.644C109.16 121.477 108.192 122.184 106.878 122.732L111.493 133.808C114.338 132.623 116.837 130.903 118.87 128.616L109.901 120.644ZM106.596 122.857C105.59 123.338 104.135 123.7 102.035 123.7V135.7C105.482 135.7 108.793 135.108 111.774 133.683L106.596 122.857ZM102.035 123.7C100.062 123.7 98.5558 123.352 97.3851 122.816L92.3853 133.724C95.3746 135.094 98.6346 135.7 102.035 135.7V123.7ZM97.2776 122.768C96.0175 122.22 94.9568 121.473 94.0473 120.51L85.3231 128.75C87.3603 130.907 89.7662 132.587 92.4928 133.772L97.2776 122.768ZM94.1697 120.644C93.3409 119.711 92.6284 118.529 92.0805 117.008L80.7899 121.072C81.802 123.884 83.2562 126.429 85.2007 128.616L94.1697 120.644ZM92.0532 116.933C91.4669 115.37 91.0525 113.614 90.8411 111.641L78.9093 112.919C79.2179 115.799 79.8435 118.55 80.8172 121.147L92.0532 116.933ZM90.8454 111.683C90.4132 107.361 90.0246 103.345 89.6794 99.6343L77.731 100.746C78.0791 104.488 78.4705 108.532 78.905 112.877L90.8454 111.683ZM89.6806 99.6468C89.3442 95.9466 89.0902 91.9752 88.9204 87.7302L76.93 88.2098C77.1069 92.6314 77.3729 96.8068 77.7298 100.733L89.6806 99.6468ZM88.3507 90.532C89.8553 87.3459 91.1536 84.4378 92.2393 81.8141L81.1511 77.2259C80.1568 79.6288 78.9418 82.3541 77.4997 85.408L88.3507 90.532ZM92.2661 81.7483C93.404 78.9034 94.3885 75.897 95.2254 72.7354L83.625 69.6646C82.9019 72.3963 82.0664 74.9366 81.1243 77.2917L92.2661 81.7483ZM95.2823 72.5016C95.6031 71.0581 95.8426 68.6305 94.4402 66.2931L84.1502 72.4669C83.7062 71.7269 83.5699 71.0349 83.5379 70.5875C83.5076 70.1625 83.5658 69.9087 83.5681 69.8984L95.2823 72.5016ZM94.866 67.1516C93.9903 64.9623 92.1135 63.2269 89.5619 62.7165L87.2085 74.4835C86.5265 74.3471 85.7424 74.0237 85.033 73.4155C84.3351 72.8174 83.9367 72.1391 83.7244 71.6084L94.866 67.1516ZM91.0685 63.2334C88.3364 61.8674 85.7183 62.631 84.1282 63.5851L90.3022 73.8749C89.9838 74.066 89.3672 74.3689 88.4953 74.4658C87.556 74.5702 86.5766 74.4039 85.7019 73.9666L91.0685 63.2334ZM83.6152 63.93C81.839 65.2621 81.0412 67.0687 80.6661 68.3817L92.2043 71.6783C92.1759 71.7779 91.898 72.7179 90.8152 73.53L83.6152 63.93ZM80.7121 68.2283C79.33 72.6185 77.5282 77.1723 75.2928 81.8915L86.1376 87.0285C88.5822 81.8677 90.5937 76.8015 92.1583 71.8317L80.7121 68.2283ZM75.2563 81.97C73.0517 86.8031 70.8589 91.2287 68.6794 95.2523L79.2309 100.968C81.5582 96.6713 83.872 91.9969 86.1741 86.95L75.2563 81.97ZM68.7626 95.1038C68.2676 95.9589 67.7573 96.4236 67.2731 96.7084L73.3573 107.052C75.8198 105.603 77.7361 103.554 79.1478 101.116L68.7626 95.1038ZM67.3736 96.6505C66.8664 96.9359 66.4036 97.05 65.8952 97.05V109.05C68.5068 109.05 70.9907 108.384 73.2568 107.109L67.3736 96.6505ZM65.8952 97.05C65.3806 97.05 64.822 96.9317 64.1525 96.5773L58.5379 107.183C60.8151 108.388 63.2898 109.05 65.8952 109.05V97.05ZM64.3873 96.7084C63.9609 96.4576 63.5392 96.0651 63.1447 95.3155L52.5257 100.904C53.8645 103.448 55.7828 105.569 58.3031 107.052L64.3873 96.7084ZM63.1109 95.2523C60.9163 91.2006 58.6683 86.7484 56.3676 81.8915L45.5228 87.0285C47.9021 92.0516 50.2475 96.6994 52.5594 100.968L63.1109 95.2523ZM56.4041 81.97C54.2422 77.2305 52.4704 72.6504 51.0783 68.2283L39.6321 71.8317C41.1866 76.7696 43.1415 81.8095 45.4863 86.95L56.4041 81.97ZM51.1243 68.3817C50.6416 66.6919 49.5745 64.8104 47.5322 63.585L41.3582 73.875C40.1826 73.1696 39.7222 72.1547 39.5861 71.6783L51.1243 68.3817ZM48.0452 63.93C45.8732 62.301 43.2435 62.1505 41.0468 63.0291L45.5035 74.1709C44.9767 74.3816 44.1864 74.5721 43.2301 74.4658C42.2509 74.357 41.4375 73.9742 40.8452 73.53L48.0452 63.93ZM41.82 62.7791C39.385 63.3879 37.9561 65.0666 37.2202 66.293L47.5102 72.467C47.2943 72.8267 46.472 73.9854 44.7304 74.4208L41.82 62.7791ZM36.7943 67.1516C35.9542 69.2521 36.2389 71.2902 36.5081 72.5016L48.2223 69.8984C48.2026 69.8097 48.2352 69.9129 48.2352 70.16C48.2352 70.4021 48.2039 70.9388 47.9361 71.6083L36.7943 67.1516ZM36.565 72.7354C37.4019 75.897 38.3864 78.9034 39.5243 81.7483L50.6661 77.2917C49.724 74.9366 48.8885 72.3963 48.1654 69.6646L36.565 72.7354ZM39.5511 81.8141C40.6368 84.4378 41.9351 87.3459 43.4397 90.532L54.2907 85.408C52.8486 82.3541 51.6336 79.6288 50.6393 77.2259L39.5511 81.8141ZM133.071 112.28L127.103 112.906L127.105 112.919L133.071 112.28ZM133.071 35.84L127.105 35.2008L127.103 35.2141L133.071 35.84ZM134.631 29.08L140.249 31.1867L140.249 31.1867L134.631 29.08ZM137.881 23.62L133.519 19.5003L133.456 19.5661L133.396 19.6338L137.881 23.62ZM143.081 19.98L145.473 25.4824L145.527 25.4589L145.581 25.4344L143.081 19.98ZM157.381 19.98L154.792 25.3928L154.931 25.4592L155.073 25.5185L157.381 19.98ZM162.581 23.62L158.096 27.6062L158.156 27.6739L158.219 27.7397L162.581 23.62ZM167.521 35.84L173.488 35.2141L173.487 35.2008L167.521 35.84ZM167.521 112.28L173.487 112.919L173.488 112.906L167.521 112.28ZM165.961 119.04L160.343 116.933L160.329 116.97L160.315 117.008L165.961 119.04ZM162.581 124.63L158.219 120.51L158.156 120.576L158.096 120.644L162.581 124.63ZM157.381 128.27L155.073 122.732L154.931 122.791L154.792 122.857L157.381 128.27ZM143.081 128.27L145.581 122.816L145.527 122.791L145.473 122.768L143.081 128.27ZM137.881 124.63L133.396 128.616L133.456 128.684L133.519 128.75L137.881 124.63ZM134.631 119.04L140.276 117.008L140.263 116.97L140.249 116.933L134.631 119.04ZM139.038 111.654C137.761 99.4787 137.121 86.948 137.121 74.06H125.121C125.121 87.3454 125.781 100.295 127.103 112.906L139.038 111.654ZM137.121 74.06C137.121 61.172 137.761 48.6413 139.038 36.4659L127.103 35.2141C125.781 47.8254 125.121 60.7746 125.121 74.06H137.121ZM139.037 36.4792C139.248 34.5055 139.662 32.7502 140.249 31.1867L129.013 26.9733C128.039 29.5698 127.413 32.3211 127.105 35.2008L139.037 36.4792ZM140.249 31.1867C140.786 29.7527 141.499 28.58 142.365 27.6062L133.396 19.6338C131.489 21.78 130.035 24.2473 129.013 26.9733L140.249 31.1867ZM142.243 27.7397C143.152 26.7767 144.213 26.0303 145.473 25.4824L140.688 14.4776C137.962 15.6631 135.556 17.3433 133.519 19.5003L142.243 27.7397ZM145.581 25.4344C146.728 24.9085 148.271 24.55 150.361 24.55V12.55C146.904 12.55 143.593 13.1448 140.581 14.5256L145.581 25.4344ZM150.361 24.55C152.341 24.55 153.762 24.9004 154.792 25.3928L159.969 14.5672C157.012 13.1529 153.753 12.55 150.361 12.55V24.55ZM155.073 25.5185C156.387 26.0661 157.356 26.7734 158.096 27.6062L167.065 19.6338C165.032 17.3466 162.534 15.6272 159.688 14.4415L155.073 25.5185ZM158.219 27.7397C159.124 28.6985 159.833 29.8277 160.343 31.1867L171.579 26.9733C170.528 24.1723 168.984 21.6615 166.943 19.5003L158.219 27.7397ZM160.343 31.1867C160.929 32.7502 161.343 34.5055 161.555 36.4792L173.487 35.2008C173.178 32.3211 172.552 29.5698 171.579 26.9733L160.343 31.1867ZM161.553 36.4659C162.831 48.6413 163.471 61.172 163.471 74.06H175.471C175.471 60.7746 174.811 47.8254 173.488 35.2141L161.553 36.4659ZM163.471 74.06C163.471 86.948 162.831 99.4787 161.553 111.654L173.488 112.906C174.811 100.295 175.471 87.3454 175.471 74.06H163.471ZM161.555 111.641C161.343 113.614 160.929 115.37 160.343 116.933L171.579 121.147C172.552 118.55 173.178 115.799 173.487 112.919L161.555 111.641ZM160.315 117.008C159.794 118.455 159.085 119.593 158.219 120.51L166.943 128.75C169.023 126.547 170.567 123.958 171.606 121.072L160.315 117.008ZM158.096 120.644C157.356 121.477 156.387 122.184 155.073 122.732L159.688 133.808C162.534 132.623 165.032 130.903 167.065 128.616L158.096 120.644ZM154.792 122.857C153.762 123.35 152.341 123.7 150.361 123.7V135.7C153.753 135.7 157.012 135.097 159.969 133.683L154.792 122.857ZM150.361 123.7C148.271 123.7 146.728 123.341 145.581 122.816L140.581 133.724C143.593 135.105 146.904 135.7 150.361 135.7V123.7ZM145.473 122.768C144.213 122.22 143.152 121.473 142.243 120.51L133.519 128.75C135.556 130.907 137.962 132.587 140.688 133.772L145.473 122.768ZM142.365 120.644C141.536 119.711 140.824 118.529 140.276 117.008L128.985 121.072C129.998 123.884 131.452 126.429 133.396 128.616L142.365 120.644ZM140.249 116.933C139.662 115.37 139.248 113.614 139.037 111.641L127.105 112.919C127.413 115.799 128.039 118.55 129.013 121.147L140.249 116.933ZM206.013 126.19L203.641 131.701L203.653 131.707L203.666 131.712L206.013 126.19ZM189.503 114.1L184.779 117.8L184.814 117.844L184.849 117.887L189.503 114.1ZM180.793 96.03L174.972 97.4852L174.974 97.4939L174.976 97.5025L180.793 96.03ZM180.793 51.96L186.609 53.4325L186.612 53.4239L186.614 53.4152L180.793 51.96ZM189.503 33.89L184.849 30.1035L184.829 30.1274L184.81 30.1515L189.503 33.89ZM206.013 21.8L208.385 27.3113L208.401 27.3041L208.418 27.2969L206.013 21.8ZM248.003 18.68L246.826 24.5635L246.836 24.5655L246.846 24.5675L248.003 18.68ZM260.743 23.1L257.861 28.3626L257.959 28.4164L258.06 28.4666L260.743 23.1ZM266.593 28.04L261.567 31.3176L261.616 31.3927L261.667 31.4664L266.593 28.04ZM269.193 34.54L263.258 35.4193L263.277 35.5466L263.301 35.6731L269.193 34.54ZM269.063 41.56L274.92 42.8616L274.925 42.8394L274.93 42.8172L269.063 41.56ZM266.463 48.32L261.228 45.3884L261.204 45.4317L261.18 45.4754L266.463 48.32ZM261.913 54.43L266.155 58.6726L266.156 58.6726L261.913 54.43ZM255.803 58.72L258.219 64.2119L258.268 64.1903L258.317 64.1678L255.803 58.72ZM248.783 60.28V66.28H248.886L248.99 66.2764L248.783 60.28ZM241.243 58.33L238.398 63.6128L238.478 63.6559L238.56 63.6966L241.243 58.33ZM237.213 56.9L235.607 62.6811L235.758 62.7231L235.911 62.7571L237.213 56.9ZM218.623 61.58L214.033 57.7152L213.972 57.7877L213.914 57.8621L218.623 61.58ZM215.633 67.17L209.941 65.2726L209.905 65.3807L209.873 65.49L215.633 67.17ZM215.633 80.56L209.855 82.1778L209.885 82.2838L209.918 82.3887L215.633 80.56ZM218.623 86.28L213.914 89.9979L213.972 90.0723L214.033 90.1448L218.623 86.28ZM223.953 90.18L226.369 84.6881L226.369 84.6881L223.953 90.18ZM237.213 91.09L238.514 96.9471L238.668 96.9131L238.819 96.8711L237.213 91.09ZM241.243 89.53L238.56 84.1634L238.478 84.2041L238.398 84.2472L241.243 89.53ZM248.913 87.71L248.706 93.7064L248.809 93.71H248.913V87.71ZM256.193 89.4L253.51 94.7666L253.51 94.7666L256.193 89.4ZM262.173 93.95L257.733 97.986L257.829 98.0917L257.93 98.1926L262.173 93.95ZM266.723 100.19L261.396 102.952L261.4 102.958L266.723 100.19ZM269.063 106.95L263.163 108.043L263.163 108.043L269.063 106.95ZM269.063 113.84L263.171 112.707L263.153 112.799L263.138 112.892L269.063 113.84ZM266.463 119.95L261.61 116.421L261.573 116.472L261.537 116.524L266.463 119.95ZM260.743 124.89L257.91 119.601L257.885 119.614L257.861 119.627L260.743 124.89ZM248.003 129.18L246.948 123.273L246.887 123.284L246.826 123.297L248.003 129.18ZM231.883 124.61C222.097 124.61 214.331 123.206 208.36 120.668L203.666 131.712C211.561 135.067 221.042 136.61 231.883 136.61V124.61ZM208.385 120.679C202.309 118.064 197.631 114.583 194.157 110.313L184.849 117.887C189.695 123.844 196.023 128.423 203.641 131.701L208.385 120.679ZM194.226 110.4C190.704 105.903 188.152 100.651 186.609 94.5575L174.976 97.5025C176.9 105.103 180.156 111.897 184.779 117.8L194.226 110.4ZM186.614 94.5748C185.01 88.1585 184.193 81.2837 184.193 73.93H172.193C172.193 82.1763 173.109 90.0348 174.972 97.4852L186.614 94.5748ZM184.193 73.93C184.193 66.5755 185.01 59.7507 186.609 53.4325L174.976 50.4875C173.109 57.8626 172.193 65.6845 172.193 73.93H184.193ZM186.614 53.4152C188.158 47.2364 190.706 42.0097 194.196 37.6285L184.81 30.1515C180.153 35.997 176.894 42.8169 174.972 50.5048L186.614 53.4152ZM194.157 37.6765C197.631 33.407 202.309 29.926 208.385 27.3113L203.641 16.2887C196.023 19.5673 189.695 24.1463 184.849 30.1035L194.157 37.6765ZM208.418 27.2969C214.371 24.6925 222.115 23.25 231.883 23.25V11.25C221.024 11.25 211.522 12.8408 203.608 16.3031L208.418 27.2969ZM231.883 23.25C237.554 23.25 242.523 23.7029 246.826 24.5635L249.18 12.7965C243.949 11.7504 238.172 11.25 231.883 11.25V23.25ZM246.846 24.5675C251.208 25.4243 254.853 26.7151 257.861 28.3626L263.625 17.8374C259.353 15.4982 254.504 13.8424 249.159 12.7925L246.846 24.5675ZM258.06 28.4666C259.917 29.3955 260.965 30.3942 261.567 31.3176L271.619 24.7624C269.621 21.6991 266.768 19.4045 263.426 17.7334L258.06 28.4666ZM261.667 31.4664C262.54 32.7207 263.05 34.0196 263.258 35.4193L275.128 33.6607C274.642 30.3804 273.419 27.3459 271.518 24.6136L261.667 31.4664ZM263.301 35.6731C263.57 37.0734 263.561 38.5983 263.196 40.3028L274.93 42.8172C275.604 39.6683 275.682 36.5132 275.085 33.4069L263.301 35.6731ZM263.206 40.2584C262.817 42.0074 262.166 43.7134 261.228 45.3884L271.698 51.2516C273.187 48.5933 274.269 45.7926 274.92 42.8616L263.206 40.2584ZM261.18 45.4754C260.245 47.2116 259.08 48.7779 257.67 50.1874L266.156 58.6726C268.386 56.4421 270.254 53.9351 271.746 51.1646L261.18 45.4754ZM257.67 50.1874C256.332 51.5257 254.875 52.5398 253.289 53.2722L258.317 64.1678C261.237 62.8202 263.854 60.9743 266.155 58.6726L257.67 50.1874ZM253.386 53.2281C251.96 53.8556 250.376 54.2215 248.576 54.2836L248.99 66.2764C252.217 66.1652 255.312 65.4911 258.219 64.2119L253.386 53.2281ZM248.783 54.28C247.454 54.28 245.856 53.9285 243.926 52.9634L238.56 63.6966C241.829 65.3315 245.258 66.28 248.783 66.28V54.28ZM244.087 53.0472C242.372 52.1236 240.485 51.4808 238.514 51.0429L235.911 62.7571C237.061 63.0125 237.86 63.323 238.398 63.6128L244.087 53.0472ZM238.819 51.1189C236.632 50.5114 234.299 50.25 231.883 50.25V62.25C233.453 62.25 234.674 62.422 235.607 62.6811L238.819 51.1189ZM231.883 50.25C228.183 50.25 224.666 50.8113 221.536 52.1881L226.369 63.1719C227.573 62.6421 229.343 62.25 231.883 62.25V50.25ZM221.536 52.1881C218.615 53.4734 216.067 55.2997 214.033 57.7152L223.212 65.4448C223.952 64.567 224.957 63.7933 226.369 63.1719L221.536 52.1881ZM213.914 57.8621C212.164 60.0785 210.844 62.5635 209.941 65.2726L221.325 69.0674C221.809 67.6165 222.482 66.3749 223.332 65.2979L213.914 57.8621ZM209.873 65.49C209.095 68.1576 208.723 70.9367 208.723 73.8H220.723C220.723 71.9833 220.958 70.3424 221.393 68.85L209.873 65.49ZM208.723 73.8C208.723 76.6649 209.095 79.4638 209.855 82.1778L221.411 78.9422C220.957 77.3229 220.723 75.6151 220.723 73.8H208.723ZM209.918 82.3887C210.812 85.1823 212.132 87.7409 213.914 89.9979L223.332 82.5621C222.514 81.5257 221.84 80.271 221.347 78.7313L209.918 82.3887ZM214.033 90.1448C216.067 92.5603 218.615 94.3866 221.536 95.6719L226.369 84.6881C224.957 84.0667 223.952 83.293 223.212 82.4152L214.033 90.1448ZM221.536 95.6719C224.666 97.0487 228.183 97.61 231.883 97.61V85.61C229.343 85.61 227.573 85.2179 226.369 84.6881L221.536 95.6719ZM231.883 97.61C234.211 97.61 236.437 97.4087 238.514 96.9471L235.911 85.2329C234.868 85.4646 233.541 85.61 231.883 85.61V97.61ZM238.819 96.8711C240.701 96.3482 242.48 95.6783 244.087 94.8128L238.398 84.2472C237.752 84.5951 236.844 84.9651 235.607 85.3089L238.819 96.8711ZM243.926 94.8966C245.771 93.9741 247.34 93.6593 248.706 93.7064L249.12 81.7136C245.459 81.5873 241.915 82.4859 238.56 84.1634L243.926 94.8966ZM248.913 93.71C250.612 93.71 252.117 94.07 253.51 94.7666L258.876 84.0334C255.763 82.4766 252.413 81.71 248.913 81.71V93.71ZM253.51 94.7666C255.085 95.5543 256.487 96.6147 257.733 97.986L266.612 89.914C264.392 87.4719 261.807 85.499 258.876 84.0334L253.51 94.7666ZM257.93 98.1926C259.305 99.5671 260.459 101.145 261.396 102.952L272.049 97.4281C270.56 94.5552 268.681 91.9729 266.415 89.7074L257.93 98.1926ZM261.4 102.958C262.259 104.612 262.841 106.302 263.163 108.043L274.963 105.857C274.418 102.918 273.44 100.102 272.046 97.4219L261.4 102.958ZM263.163 108.043C263.465 109.674 263.458 111.216 263.171 112.707L274.955 114.973C275.535 111.958 275.527 108.906 274.963 105.857L263.163 108.043ZM263.138 112.892C262.952 114.057 262.484 115.22 261.61 116.421L271.315 123.479C273.215 120.867 274.481 117.956 274.988 114.788L263.138 112.892ZM261.537 116.524C260.76 117.641 259.614 118.688 257.91 119.601L263.576 130.179C266.725 128.492 269.392 126.245 271.388 123.376L261.537 116.524ZM257.861 119.627C254.887 121.256 251.278 122.5 246.948 123.273L249.058 135.087C254.434 134.127 259.319 132.51 263.625 130.153L257.861 119.627ZM246.826 123.297C242.523 124.157 237.554 124.61 231.883 124.61V136.61C238.172 136.61 243.949 136.11 249.18 135.063L246.826 123.297ZM314.693 94.47L316.076 88.6315L309.111 86.982L308.703 94.1277L314.693 94.47ZM314.043 103.44L308.066 102.913L308.058 103L308.053 103.088L314.043 103.44ZM313.263 112.28L307.304 111.579L307.3 111.61L307.297 111.641L313.263 112.28ZM311.703 119.04L306.085 116.933L306.071 116.97L306.058 117.008L311.703 119.04ZM308.323 124.63L303.961 120.51L303.899 120.576L303.838 120.644L308.323 124.63ZM303.123 128.27L300.815 122.732L300.673 122.791L300.534 122.857L303.123 128.27ZM288.823 128.27L291.323 122.816L291.269 122.791L291.215 122.768L288.823 128.27ZM283.623 124.63L279.138 128.616L279.199 128.684L279.261 128.75L283.623 124.63ZM280.373 119.04L286.018 117.008L286.005 116.97L285.991 116.933L280.373 119.04ZM278.813 112.28L272.846 112.906L272.847 112.919L278.813 112.28ZM278.813 35.84L272.847 35.2008L272.846 35.2141L278.813 35.84ZM280.373 29.08L285.991 31.1867L285.991 31.1867L280.373 29.08ZM283.623 23.62L279.261 19.5003L279.199 19.5661L279.138 19.6338L283.623 23.62ZM288.823 19.98L291.215 25.4824L291.269 25.4589L291.323 25.4344L288.823 19.98ZM303.123 19.98L300.534 25.3928L300.673 25.4592L300.815 25.5185L303.123 19.98ZM308.323 23.62L303.838 27.6062L303.899 27.6739L303.961 27.7397L308.323 23.62ZM313.263 35.84L307.297 36.4792L307.3 36.5101L307.304 36.541L313.263 35.84ZM314.043 44.68L308.053 45.0323L308.058 45.1199L308.066 45.2074L314.043 44.68ZM314.693 53.65L308.703 53.9923L309.111 61.138L316.076 59.4885L314.693 53.65ZM324.963 52.48V58.48H325.036L325.109 58.4782L324.963 52.48ZM335.233 53.52L333.85 59.3585L340.815 61.008L341.223 53.8623L335.233 53.52ZM335.753 44.68L329.776 44.1526L329.769 44.2347L329.764 44.317L335.753 44.68ZM336.663 35.84L342.622 36.541L342.625 36.5101L342.629 36.4792L336.663 35.84ZM338.223 29.08L332.684 26.7723L332.643 26.8721L332.605 26.9733L338.223 29.08ZM341.603 23.62L337.118 19.6338L337.118 19.6338L341.603 23.62ZM346.673 19.98L349.065 25.4824L349.119 25.4589L349.173 25.4344L346.673 19.98ZM360.973 19.98L358.473 25.4344L358.568 25.4781L358.665 25.5185L360.973 19.98ZM366.173 23.62L361.688 27.6062L361.749 27.6739L361.811 27.7397L366.173 23.62ZM369.553 29.08L363.935 31.1867L363.973 31.2879L364.014 31.3877L369.553 29.08ZM371.243 35.84L377.214 35.2554L377.212 35.2281L377.209 35.2008L371.243 35.84ZM371.243 112.28L377.209 112.919L377.212 112.892L377.214 112.865L371.243 112.28ZM369.553 119.04L364.014 116.732L363.958 116.869L363.908 117.008L369.553 119.04ZM366.173 124.63L361.811 120.51L361.749 120.576L361.688 120.644L366.173 124.63ZM360.973 128.27L358.665 122.732L358.568 122.772L358.473 122.816L360.973 128.27ZM346.673 128.27L349.173 122.816L349.119 122.791L349.065 122.768L346.673 128.27ZM341.603 124.63L337.118 128.616L337.118 128.616L341.603 124.63ZM338.223 119.04L332.605 121.147L332.628 121.208L332.652 121.268L338.223 119.04ZM336.663 112.28L342.629 111.641L342.625 111.61L342.622 111.579L336.663 112.28ZM335.753 103.57L329.763 103.922L329.769 104.018L329.777 104.113L335.753 103.57ZM335.233 94.6L341.223 94.2577L340.815 87.112L333.85 88.7615L335.233 94.6ZM324.963 95.77L324.817 101.768L324.89 101.77H324.963V95.77ZM308.703 94.1277C308.533 97.1009 308.32 100.029 308.066 102.913L320.02 103.967C320.285 100.957 320.506 97.9057 320.683 94.8123L308.703 94.1277ZM308.053 103.088C307.887 105.917 307.637 108.748 307.304 111.579L319.222 112.981C319.582 109.919 319.852 106.856 320.032 103.792L308.053 103.088ZM307.297 111.641C307.086 113.614 306.671 115.37 306.085 116.933L317.321 121.147C318.295 118.55 318.92 115.799 319.229 112.919L307.297 111.641ZM306.058 117.008C305.536 118.455 304.827 119.593 303.961 120.51L312.685 128.75C314.766 126.547 316.309 123.958 317.348 121.072L306.058 117.008ZM303.838 120.644C303.098 121.477 302.13 122.184 300.815 122.732L305.431 133.808C308.276 132.623 310.774 130.903 312.807 128.616L303.838 120.644ZM300.534 122.857C299.505 123.35 298.084 123.7 296.103 123.7V135.7C299.495 135.7 302.754 135.097 305.712 133.683L300.534 122.857ZM296.103 123.7C294.013 123.7 292.47 123.341 291.323 122.816L286.323 133.724C289.336 135.105 292.646 135.7 296.103 135.7V123.7ZM291.215 122.768C289.955 122.22 288.894 121.473 287.985 120.51L279.261 128.75C281.298 130.907 283.704 132.587 286.43 133.772L291.215 122.768ZM288.107 120.644C287.279 119.711 286.566 118.529 286.018 117.008L274.728 121.072C275.74 123.884 277.194 126.429 279.138 128.616L288.107 120.644ZM285.991 116.933C285.405 115.37 284.99 113.614 284.779 111.641L272.847 112.919C273.156 115.799 273.781 118.55 274.755 121.147L285.991 116.933ZM284.78 111.654C283.503 99.4787 282.863 86.948 282.863 74.06H270.863C270.863 87.3454 271.523 100.295 272.846 112.906L284.78 111.654ZM282.863 74.06C282.863 61.172 283.503 48.6413 284.78 36.4659L272.846 35.2141C271.523 47.8254 270.863 60.7746 270.863 74.06H282.863ZM284.779 36.4792C284.99 34.5055 285.405 32.7502 285.991 31.1867L274.755 26.9733C273.781 29.5698 273.156 32.3211 272.847 35.2008L284.779 36.4792ZM285.991 31.1867C286.529 29.7527 287.242 28.58 288.107 27.6062L279.138 19.6338C277.231 21.78 275.777 24.2473 274.755 26.9733L285.991 31.1867ZM287.985 27.7397C288.894 26.7767 289.955 26.0303 291.215 25.4824L286.43 14.4776C283.704 15.6631 281.298 17.3433 279.261 19.5003L287.985 27.7397ZM291.323 25.4344C292.47 24.9085 294.013 24.55 296.103 24.55V12.55C292.646 12.55 289.336 13.1448 286.323 14.5256L291.323 25.4344ZM296.103 24.55C298.084 24.55 299.505 24.9004 300.534 25.3928L305.712 14.5672C302.754 13.1529 299.495 12.55 296.103 12.55V24.55ZM300.815 25.5185C302.13 26.0661 303.098 26.7734 303.838 27.6062L312.807 19.6338C310.774 17.3466 308.276 15.6272 305.431 14.4415L300.815 25.5185ZM303.961 27.7397C304.866 28.6985 305.575 29.8277 306.085 31.1867L317.321 26.9733C316.27 24.1723 314.726 21.6615 312.685 19.5003L303.961 27.7397ZM306.085 31.1867C306.671 32.7502 307.086 34.5055 307.297 36.4792L319.229 35.2008C318.92 32.3211 318.295 29.5698 317.321 26.9733L306.085 31.1867ZM307.304 36.541C307.637 39.3724 307.887 42.2028 308.053 45.0323L320.032 44.3277C319.852 41.2639 319.582 38.2009 319.222 35.1389L307.304 36.541ZM308.066 45.2074C308.32 48.0908 308.533 51.0191 308.703 53.9923L320.683 53.3077C320.506 50.2143 320.285 47.1625 320.02 44.1526L308.066 45.2074ZM316.076 59.4885C318.894 58.821 321.852 58.48 324.963 58.48V46.48C320.967 46.48 317.079 46.919 313.31 47.8115L316.076 59.4885ZM325.109 58.4782C328.174 58.4035 331.082 58.7029 333.85 59.3585L336.616 47.6815C332.797 46.7771 328.859 46.3832 324.817 46.4818L325.109 58.4782ZM341.223 53.8623C341.396 50.8354 341.569 47.8957 341.742 45.043L329.764 44.317C329.59 47.1843 329.416 50.1379 329.243 53.1777L341.223 53.8623ZM341.73 45.2074C341.985 42.3188 342.282 39.4301 342.622 36.541L330.704 35.1389C330.351 38.1432 330.041 41.1478 329.776 44.1526L341.73 45.2074ZM342.629 36.4792C342.84 34.5055 343.255 32.7502 343.841 31.1867L332.605 26.9733C331.631 29.5698 331.006 32.3211 330.697 35.2008L342.629 36.4792ZM343.761 31.3877C344.393 29.8728 345.176 28.6309 346.087 27.6062L337.118 19.6338C335.256 21.7291 333.787 24.1272 332.684 26.7723L343.761 31.3877ZM346.087 27.6062C346.871 26.7246 347.837 26.0164 349.065 25.4824L344.281 14.4776C341.522 15.677 339.108 17.3954 337.118 19.6338L346.087 27.6062ZM349.173 25.4344C350.343 24.8978 351.85 24.55 353.823 24.55V12.55C350.422 12.55 347.162 13.1555 344.173 14.5256L349.173 25.4344ZM353.823 24.55C355.796 24.55 357.302 24.8978 358.473 25.4344L363.473 14.5256C360.483 13.1555 357.223 12.55 353.823 12.55V24.55ZM358.665 25.5185C359.98 26.0661 360.948 26.7734 361.688 27.6062L370.657 19.6338C368.624 17.3466 366.126 15.6272 363.281 14.4415L358.665 25.5185ZM361.811 27.7397C362.716 28.6985 363.425 29.8277 363.935 31.1867L375.171 26.9733C374.12 24.1723 372.576 21.6615 370.535 19.5003L361.811 27.7397ZM364.014 31.3877C364.641 32.8927 365.073 34.5789 365.277 36.4792L377.209 35.2008C376.892 32.2477 376.198 29.4273 375.091 26.7723L364.014 31.3877ZM365.271 36.4246C366.465 48.6141 367.063 61.1587 367.063 74.06H379.063C379.063 60.7879 378.448 47.8525 377.214 35.2554L365.271 36.4246ZM367.063 74.06C367.063 86.9613 366.465 99.5059 365.271 111.695L377.214 112.865C378.448 100.267 379.063 87.3321 379.063 74.06H367.063ZM365.277 111.641C365.073 113.541 364.641 115.227 364.014 116.732L375.091 121.348C376.198 118.693 376.892 115.872 377.209 112.919L365.277 111.641ZM363.908 117.008C363.386 118.455 362.677 119.593 361.811 120.51L370.535 128.75C372.616 126.547 374.159 123.958 375.198 121.072L363.908 117.008ZM361.688 120.644C360.948 121.477 359.98 122.184 358.665 122.732L363.281 133.808C366.126 132.623 368.624 130.903 370.657 128.616L361.688 120.644ZM358.473 122.816C357.302 123.352 355.796 123.7 353.823 123.7V135.7C357.223 135.7 360.483 135.094 363.473 133.724L358.473 122.816ZM353.823 123.7C351.85 123.7 350.343 123.352 349.173 122.816L344.173 133.724C347.162 135.094 350.422 135.7 353.823 135.7V123.7ZM349.065 122.768C347.837 122.234 346.871 121.525 346.087 120.644L337.118 128.616C339.108 130.855 341.522 132.573 344.281 133.772L349.065 122.768ZM346.087 120.644C345.213 119.66 344.433 118.409 343.794 116.812L332.652 121.268C333.746 124.004 335.22 126.48 337.118 128.616L346.087 120.644ZM343.841 116.933C343.255 115.37 342.84 113.614 342.629 111.641L330.697 112.919C331.006 115.799 331.631 118.55 332.605 121.147L343.841 116.933ZM342.622 111.579C342.281 108.683 341.983 105.832 341.728 103.027L329.777 104.113C330.042 107.028 330.351 109.984 330.704 112.981L342.622 111.579ZM341.743 103.218C341.569 100.274 341.396 97.2878 341.223 94.2577L329.243 94.9423C329.416 97.9789 329.59 100.972 329.763 103.922L341.743 103.218ZM333.85 88.7615C331.032 89.429 328.074 89.77 324.963 89.77V101.77C328.959 101.77 332.847 101.331 336.616 100.438L333.85 88.7615ZM325.109 89.7718C321.952 89.6948 318.944 89.3108 316.076 88.6315L313.31 100.308C317.029 101.189 320.867 101.672 324.817 101.768L325.109 89.7718ZM385.073 112.28L379.105 112.906L379.107 112.919L385.073 112.28ZM385.073 35.84L379.107 35.2008L379.105 35.2141L385.073 35.84ZM386.633 29.08L392.251 31.1867L392.251 31.1867L386.633 29.08ZM389.883 23.62L385.521 19.5003L385.458 19.5661L385.398 19.6338L389.883 23.62ZM395.083 19.98L397.475 25.4824L397.529 25.4589L397.583 25.4344L395.083 19.98ZM409.383 19.98L406.794 25.3928L406.933 25.4592L407.075 25.5185L409.383 19.98ZM414.583 23.62L410.098 27.6062L410.158 27.6739L410.221 27.7397L414.583 23.62ZM419.523 35.84L425.49 35.2141L425.488 35.2008L419.523 35.84ZM419.523 112.28L425.488 112.919L425.49 112.906L419.523 112.28ZM417.963 119.04L412.345 116.933L412.331 116.97L412.317 117.008L417.963 119.04ZM414.583 124.63L410.221 120.51L410.158 120.576L410.098 120.644L414.583 124.63ZM409.383 128.27L407.075 122.732L406.933 122.791L406.794 122.857L409.383 128.27ZM395.083 128.27L397.583 122.816L397.529 122.791L397.475 122.768L395.083 128.27ZM389.883 124.63L385.398 128.616L385.458 128.684L385.521 128.75L389.883 124.63ZM386.633 119.04L392.278 117.008L392.265 116.97L392.251 116.933L386.633 119.04ZM391.04 111.654C389.763 99.4787 389.123 86.948 389.123 74.06H377.123C377.123 87.3454 377.782 100.295 379.105 112.906L391.04 111.654ZM389.123 74.06C389.123 61.172 389.763 48.6413 391.04 36.4659L379.105 35.2141C377.782 47.8254 377.123 60.7746 377.123 74.06H389.123ZM391.038 36.4792C391.25 34.5055 391.664 32.7502 392.251 31.1867L381.015 26.9733C380.041 29.5698 379.415 32.3211 379.107 35.2008L391.038 36.4792ZM392.251 31.1867C392.788 29.7527 393.501 28.58 394.367 27.6062L385.398 19.6338C383.49 21.78 382.037 24.2473 381.015 26.9733L392.251 31.1867ZM394.245 27.7397C395.154 26.7767 396.215 26.0303 397.475 25.4824L392.69 14.4776C389.964 15.6631 387.558 17.3433 385.521 19.5003L394.245 27.7397ZM397.583 25.4344C398.73 24.9085 400.273 24.55 402.363 24.55V12.55C398.906 12.55 395.595 13.1448 392.583 14.5256L397.583 25.4344ZM402.363 24.55C404.343 24.55 405.764 24.9004 406.794 25.3928L411.971 14.5672C409.014 13.1529 405.755 12.55 402.363 12.55V24.55ZM407.075 25.5185C408.389 26.0661 409.358 26.7734 410.098 27.6062L419.067 19.6338C417.034 17.3466 414.536 15.6272 411.69 14.4415L407.075 25.5185ZM410.221 27.7397C411.126 28.6985 411.835 29.8277 412.345 31.1867L423.581 26.9733C422.53 24.1723 420.986 21.6615 418.945 19.5003L410.221 27.7397ZM412.345 31.1867C412.931 32.7502 413.345 34.5055 413.557 36.4792L425.488 35.2008C425.18 32.3211 424.554 29.5698 423.581 26.9733L412.345 31.1867ZM413.555 36.4659C414.832 48.6413 415.473 61.172 415.473 74.06H427.473C427.473 60.7746 426.813 47.8254 425.49 35.2141L413.555 36.4659ZM415.473 74.06C415.473 86.948 414.832 99.4787 413.555 111.654L425.49 112.906C426.813 100.295 427.473 87.3454 427.473 74.06H415.473ZM413.557 111.641C413.345 113.614 412.931 115.37 412.345 116.933L423.581 121.147C424.554 118.55 425.18 115.799 425.488 112.919L413.557 111.641ZM412.317 117.008C411.796 118.455 411.087 119.593 410.221 120.51L418.945 128.75C421.025 126.547 422.569 123.958 423.608 121.072L412.317 117.008ZM410.098 120.644C409.358 121.477 408.389 122.184 407.075 122.732L411.69 133.808C414.536 132.623 417.034 130.903 419.067 128.616L410.098 120.644ZM406.794 122.857C405.764 123.35 404.343 123.7 402.363 123.7V135.7C405.755 135.7 409.014 135.097 411.971 133.683L406.794 122.857ZM402.363 123.7C400.273 123.7 398.73 123.341 397.583 122.816L392.583 133.724C395.595 135.105 398.906 135.7 402.363 135.7V123.7ZM397.475 122.768C396.215 122.22 395.154 121.473 394.245 120.51L385.521 128.75C387.558 130.907 389.964 132.587 392.69 133.772L397.475 122.768ZM394.367 120.644C393.538 119.711 392.826 118.529 392.278 117.008L380.987 121.072C381.999 123.884 383.454 126.429 385.398 128.616L394.367 120.644ZM392.251 116.933C391.664 115.37 391.25 113.614 391.038 111.641L379.107 112.919C379.415 115.799 380.041 118.55 381.015 121.147L392.251 116.933Z" fill="white" mask="url(#path-1-outside-1_90_178)"/>
</g>
<defs>
<clipPath id="clip0_90_178">
<rect width="432" height="150" fill="white"/>
</clipPath>
</defs>
</svg>
