<svg width="432" height="150" viewBox="0 0 412 114" fill="none" xmlns="http://www.w3.org/2000/svg">
<path d="M39.29 70.97C39.1167 75.3033 38.8567 79.3767 38.51 83.19C38.1633 86.9167 37.7733 90.9467 37.34 95.28C37.08 97.7067 36.56 99.96 35.78 102.04C35 104.207 33.8733 106.07 32.4 107.63C31.0133 109.19 29.28 110.403 27.2 111.27C25.2067 112.223 22.8667 112.7 20.18 112.7C17.4067 112.7 14.98 112.223 12.9 111.27C10.9067 110.403 9.17333 109.19 7.7 107.63C6.31333 106.07 5.23 104.207 4.45 102.04C3.67 99.96 3.15 97.7067 2.89 95.28C1.59 82.8867 0.94 70.1467 0.94 57.06C0.94 43.9733 1.59 31.2333 2.89 18.84C3.15 16.4133 3.67 14.16 4.45 12.08C5.23 10 6.31333 8.18 7.7 6.62C9.17333 5.06 10.9067 3.84666 12.9 2.98C14.98 2.02666 17.4067 1.54999 20.18 1.54999C23.3 1.54999 25.9433 2.11333 28.11 3.24C30.3633 4.36666 32.2267 5.92666 33.7 7.92C35.6067 10.6067 37.47 13.5967 39.29 16.89C41.1967 20.1833 43.0167 23.6067 44.75 27.16C46.57 30.6267 48.3033 34.18 49.95 37.82C51.5967 41.46 53.2 44.97 54.76 48.35C55.1933 49.2167 55.7133 49.65 56.32 49.65C56.9267 49.65 57.4467 49.2167 57.88 48.35C59.44 44.97 61.0433 41.46 62.69 37.82C64.3367 34.18 66.0267 30.6267 67.76 27.16C69.58 23.6067 71.4 20.1833 73.22 16.89C75.1267 13.5967 77.0333 10.6067 78.94 7.92C80.3267 5.92666 82.1467 4.36666 84.4 3.24C86.6533 2.11333 89.34 1.54999 92.46 1.54999C95.2333 1.54999 97.6167 2.02666 99.61 2.98C101.69 3.84666 103.423 5.06 104.81 6.62C106.283 8.18 107.41 10 108.19 12.08C108.97 14.16 109.49 16.4133 109.75 18.84C110.963 31.2333 111.57 43.9733 111.57 57.06C111.57 70.1467 110.963 82.8867 109.75 95.28C109.49 97.7067 108.97 99.96 108.19 102.04C107.41 104.207 106.283 106.07 104.81 107.63C103.423 109.19 101.69 110.403 99.61 111.27C97.6167 112.223 95.2333 112.7 92.46 112.7C89.7733 112.7 87.39 112.223 85.31 111.27C83.3167 110.403 81.5833 109.19 80.11 107.63C78.7233 106.07 77.64 104.207 76.86 102.04C76.08 99.96 75.56 97.7067 75.3 95.28C74.8667 90.9467 74.4767 86.9167 74.13 83.19C73.7833 79.3767 73.5233 75.3033 73.35 70.97C74.8233 67.85 76.08 65.0333 77.12 62.52C78.16 59.92 79.07 57.1467 79.85 54.2C80.0233 53.42 79.98 52.8133 79.72 52.38C79.5467 51.9467 79.2433 51.6867 78.81 51.6C78.4633 51.4267 78.0733 51.47 77.64 51.73C77.2933 51.99 77.0333 52.4233 76.86 53.03C75.3867 57.71 73.48 62.52 71.14 67.46C68.8867 72.4 66.6333 76.95 64.38 81.11C63.4267 82.7567 62.2133 84.0133 60.74 84.88C59.3533 85.66 57.88 86.05 56.32 86.05C54.76 86.05 53.2433 85.66 51.77 84.88C50.2967 84.0133 49.1267 82.7567 48.26 81.11C46.0067 76.95 43.71 72.4 41.37 67.46C39.1167 62.52 37.2533 57.71 35.78 53.03C35.6067 52.4233 35.3033 51.99 34.87 51.73C34.5233 51.47 34.1333 51.4267 33.7 51.6C33.3533 51.6867 33.05 51.9467 32.79 52.38C32.6167 52.8133 32.6167 53.42 32.79 54.2C33.57 57.1467 34.48 59.92 35.52 62.52C36.56 65.0333 37.8167 67.85 39.29 70.97ZM123.495 95.28C122.195 82.8867 121.545 70.1467 121.545 57.06C121.545 43.9733 122.195 31.2333 123.495 18.84C123.755 16.4133 124.275 14.16 125.055 12.08C125.835 10 126.919 8.18 128.305 6.62C129.779 5.06 131.512 3.84666 133.505 2.98C135.585 2.02666 138.012 1.54999 140.785 1.54999C143.472 1.54999 145.812 2.02666 147.805 2.98C149.885 3.84666 151.619 5.06 153.005 6.62C154.479 8.18 155.605 10 156.385 12.08C157.165 14.16 157.685 16.4133 157.945 18.84C159.245 31.2333 159.895 43.9733 159.895 57.06C159.895 70.1467 159.245 82.8867 157.945 95.28C157.685 97.7067 157.165 99.96 156.385 102.04C155.605 104.207 154.479 106.07 153.005 107.63C151.619 109.19 149.885 110.403 147.805 111.27C145.812 112.223 143.472 112.7 140.785 112.7C138.012 112.7 135.585 112.223 133.505 111.27C131.512 110.403 129.779 109.19 128.305 107.63C126.919 106.07 125.835 104.207 125.055 102.04C124.275 99.96 123.755 97.7067 123.495 95.28ZM222.308 113.61C211.994 113.61 203.371 112.137 196.438 109.19C189.591 106.243 184.088 102.213 179.928 97.1C175.854 91.9 172.951 85.8767 171.218 79.03C169.484 72.0967 168.618 64.73 168.618 56.93C168.618 49.13 169.484 41.8067 171.218 34.96C172.951 28.0267 175.854 22.0033 179.928 16.89C184.088 11.7767 189.591 7.74666 196.438 4.8C203.371 1.76666 211.994 0.249995 222.308 0.249995C228.288 0.249995 233.661 0.726661 238.428 1.67999C243.281 2.63333 247.528 4.10666 251.168 6.1C253.768 7.4 255.718 9.04666 257.018 11.04C258.404 13.0333 259.271 15.2 259.618 17.54C260.051 19.7933 260.008 22.1333 259.488 24.56C258.968 26.9 258.101 29.1533 256.888 31.32C255.674 33.5733 254.158 35.61 252.338 37.43C250.518 39.25 248.481 40.68 246.228 41.72C244.061 42.6733 241.721 43.1933 239.208 43.28C236.781 43.28 234.268 42.63 231.668 41.33C230.541 40.7233 229.198 40.2467 227.638 39.9C226.078 39.4667 224.301 39.25 222.308 39.25C219.188 39.25 216.544 39.7267 214.378 40.68C212.211 41.6333 210.434 42.9333 209.048 44.58C207.748 46.2267 206.751 48.09 206.058 50.17C205.451 52.25 205.148 54.46 205.148 56.8C205.148 59.14 205.451 61.3933 206.058 63.56C206.751 65.7267 207.748 67.6333 209.048 69.28C210.434 70.9267 212.211 72.2267 214.378 73.18C216.544 74.1333 219.188 74.61 222.308 74.61C224.301 74.61 226.078 74.4367 227.638 74.09C229.198 73.6567 230.541 73.1367 231.668 72.53C234.268 71.23 236.824 70.6233 239.338 70.71C241.938 70.71 244.364 71.2733 246.618 72.4C248.871 73.5267 250.864 75.0433 252.598 76.95C254.418 78.77 255.934 80.85 257.148 83.19C258.274 85.3567 259.054 87.61 259.488 89.95C259.921 92.29 259.921 94.5867 259.488 96.84C259.141 99.0067 258.274 101.043 256.888 102.95C255.501 104.943 253.594 106.59 251.168 107.89C247.528 109.883 243.281 111.313 238.428 112.18C233.661 113.133 228.288 113.61 222.308 113.61ZM305.118 77.47C304.944 80.5033 304.728 83.4933 304.468 86.44C304.294 89.3867 304.034 92.3333 303.688 95.28C303.428 97.7067 302.908 99.96 302.128 102.04C301.348 104.207 300.221 106.07 298.748 107.63C297.361 109.19 295.628 110.403 293.548 111.27C291.554 112.223 289.214 112.7 286.528 112.7C283.754 112.7 281.328 112.223 279.248 111.27C277.254 110.403 275.521 109.19 274.048 107.63C272.661 106.07 271.578 104.207 270.798 102.04C270.018 99.96 269.498 97.7067 269.238 95.28C267.938 82.8867 267.288 70.1467 267.288 57.06C267.288 43.9733 267.938 31.2333 269.238 18.84C269.498 16.4133 270.018 14.16 270.798 12.08C271.578 10 272.661 8.18 274.048 6.62C275.521 5.06 277.254 3.84666 279.248 2.98C281.328 2.02666 283.754 1.54999 286.528 1.54999C289.214 1.54999 291.554 2.02666 293.548 2.98C295.628 3.84666 297.361 5.06 298.748 6.62C300.221 8.18 301.348 10 302.128 12.08C302.908 14.16 303.428 16.4133 303.688 18.84C304.034 21.7867 304.294 24.7333 304.468 27.68C304.728 30.6267 304.944 33.6167 305.118 36.65C308.411 35.87 311.834 35.48 315.388 35.48C318.941 35.3933 322.364 35.74 325.658 36.52C325.831 33.4867 326.004 30.54 326.178 27.68C326.438 24.7333 326.741 21.7867 327.088 18.84C327.348 16.4133 327.868 14.16 328.648 12.08C329.514 10 330.641 8.18 332.028 6.62C333.414 5.06 335.104 3.84666 337.098 2.98C339.178 2.02666 341.561 1.54999 344.248 1.54999C346.934 1.54999 349.318 2.02666 351.398 2.98C353.478 3.84666 355.211 5.06 356.598 6.62C358.071 8.18 359.198 10 359.978 12.08C360.844 14.16 361.408 16.4133 361.668 18.84C362.881 31.2333 363.488 43.9733 363.488 57.06C363.488 70.1467 362.881 82.8867 361.668 95.28C361.408 97.7067 360.844 99.96 359.978 102.04C359.198 104.207 358.071 106.07 356.598 107.63C355.211 109.19 353.478 110.403 351.398 111.27C349.318 112.223 346.934 112.7 344.248 112.7C341.561 112.7 339.178 112.223 337.098 111.27C335.104 110.403 333.414 109.19 332.028 107.63C330.641 106.07 329.514 104.207 328.648 102.04C327.868 99.96 327.348 97.7067 327.088 95.28C326.741 92.3333 326.438 89.43 326.178 86.57C326.004 83.6233 325.831 80.6333 325.658 77.6C322.364 78.38 318.941 78.77 315.388 78.77C311.834 78.6833 308.411 78.25 305.118 77.47ZM375.497 95.28C374.197 82.8867 373.547 70.1467 373.547 57.06C373.547 43.9733 374.197 31.2333 375.497 18.84C375.757 16.4133 376.277 14.16 377.057 12.08C377.837 10 378.921 8.18 380.307 6.62C381.781 5.06 383.514 3.84666 385.507 2.98C387.587 2.02666 390.014 1.54999 392.787 1.54999C395.474 1.54999 397.814 2.02666 399.807 2.98C401.887 3.84666 403.621 5.06 405.007 6.62C406.481 8.18 407.607 10 408.387 12.08C409.167 14.16 409.687 16.4133 409.947 18.84C411.247 31.2333 411.897 43.9733 411.897 57.06C411.897 70.1467 411.247 82.8867 409.947 95.28C409.687 97.7067 409.167 99.96 408.387 102.04C407.607 104.207 406.481 106.07 405.007 107.63C403.621 109.19 401.887 110.403 399.807 111.27C397.814 112.223 395.474 112.7 392.787 112.7C390.014 112.7 387.587 112.223 385.507 111.27C383.514 110.403 381.781 109.19 380.307 107.63C378.921 106.07 377.837 104.207 377.057 102.04C376.277 99.96 375.757 97.7067 375.497 95.28Z" fill="url(#paint0_linear_88_124)"/>
<defs>
<linearGradient id="paint0_linear_88_124" x1="206.5" y1="-18" x2="206.5" y2="132" gradientUnits="userSpaceOnUse">
<stop stop-color="#AB94F7"/>
<stop offset="1" stop-color="#729AF3"/>
</linearGradient>
</defs>
</svg>
