<svg width="855" height="150" viewBox="0 0 855 150" fill="none" xmlns="http://www.w3.org/2000/svg">
<g clip-path="url(#clip0_90_180)">
<mask id="path-1-outside-1_90_180" maskUnits="userSpaceOnUse" x="5" y="12" width="841" height="126" fill="black">
<rect fill="white" x="5" y="12" width="841" height="126"/>
<path d="M31.7725 63.49C28.6525 63.49 25.7925 62.97 23.1925 61.93C20.6792 60.89 18.5125 59.46 16.6925 57.64C14.9592 55.7333 13.5725 53.48 12.5325 50.88C11.5792 48.28 11.1025 45.42 11.1025 42.3C11.1025 35.7133 12.9658 30.5567 16.6925 26.83C20.5058 23.1033 25.5325 21.0233 31.7725 20.59C36.7992 20.1567 41.4792 19.8967 45.8125 19.81C50.2325 19.6367 54.5658 19.55 58.8125 19.55C62.9725 19.55 67.1758 19.6367 71.4225 19.81C75.7558 19.9833 80.3492 20.2433 85.2025 20.59C91.4425 21.0233 96.4258 23.1467 100.153 26.96C103.966 30.6867 105.873 35.7133 105.873 42.04C105.873 45.16 105.353 48.0633 104.313 50.75C103.359 53.35 101.973 55.6033 100.153 57.51C98.3325 59.4167 96.1658 60.89 93.6525 61.93C91.1392 62.97 88.3225 63.49 85.2025 63.49H80.9125C80.4792 61.7567 79.9592 59.9367 79.3525 58.03C78.8325 56.1233 78.3125 54.39 77.7925 52.83C77.5325 52.2233 77.1425 51.8333 76.6225 51.66C76.1892 51.4867 75.7558 51.4433 75.3225 51.53C74.8892 51.53 74.4992 51.7033 74.1525 52.05C73.8925 52.31 73.8492 52.6567 74.0225 53.09C75.4092 57.4233 76.5792 62.1033 77.5325 67.13C78.4858 72.1567 79.1792 77.1833 79.6125 82.21C80.1325 87.2367 80.4358 92.1333 80.5225 96.9C80.6958 101.58 80.6525 105.74 80.3925 109.38C80.1325 112.067 79.5258 114.71 78.5725 117.31C77.6192 119.823 76.2325 122.077 74.4125 124.07C72.6792 126.063 70.5125 127.667 67.9125 128.88C65.3125 130.093 62.1925 130.7 58.5525 130.7C54.9992 130.7 51.8792 130.093 49.1925 128.88C46.5925 127.667 44.3825 126.063 42.5625 124.07C40.8292 122.077 39.4425 119.823 38.4025 117.31C37.4492 114.71 36.8858 112.067 36.7125 109.38C36.1925 102.013 36.1925 94.5167 36.7125 86.89C37.2325 79.2633 38.4458 71.4633 40.3525 63.49H31.7725ZM113.428 110.68C112.734 105.133 112.301 99.4133 112.128 93.52C111.954 87.6267 111.868 81.43 111.868 74.93C111.868 68.43 111.954 62.2333 112.128 56.34C112.301 50.4467 112.734 44.77 113.428 39.31C113.861 35.15 115.334 31.7267 117.848 29.04C120.448 26.3533 123.654 24.23 127.468 22.67C131.281 21.0233 135.528 19.8967 140.208 19.29C144.888 18.5967 149.568 18.25 154.248 18.25C159.188 18.25 164.041 18.5533 168.808 19.16C173.661 19.68 177.994 20.8067 181.808 22.54C185.708 24.2733 188.828 26.7433 191.168 29.95C193.508 33.1567 194.678 37.36 194.678 42.56C194.678 46.8067 193.724 49.4933 191.818 50.62C189.911 51.7467 186.401 51.6167 181.288 50.23C179.554 49.7967 177.734 49.45 175.828 49.19C174.008 48.8433 172.274 48.67 170.628 48.67C165.948 48.67 161.918 49.0167 158.538 49.71C155.158 50.3167 152.081 51.1833 149.308 52.31C148.614 52.57 148.138 52.96 147.878 53.48C147.618 54 147.531 54.52 147.618 55.04C147.791 55.4733 148.094 55.82 148.528 56.08C149.048 56.2533 149.698 56.21 150.478 55.95C153.338 54.91 156.458 54.13 159.838 53.61C163.218 53.09 166.511 52.83 169.718 52.83C173.011 52.7433 176.088 52.96 178.948 53.48C181.808 54 184.104 54.78 185.838 55.82C188.871 57.7267 191.081 60.1533 192.468 63.1C193.941 66.0467 194.678 69.99 194.678 74.93C194.678 79.87 193.941 83.8567 192.468 86.89C191.081 89.8367 188.871 92.22 185.838 94.04C184.104 95.1667 181.808 95.99 178.948 96.51C176.088 97.03 173.011 97.29 169.718 97.29C166.511 97.2033 163.218 96.9 159.838 96.38C156.458 95.7733 153.338 94.95 150.478 93.91C149.698 93.65 149.048 93.65 148.528 93.91C148.094 94.17 147.791 94.5167 147.618 94.95C147.531 95.3833 147.618 95.86 147.878 96.38C148.138 96.9 148.614 97.29 149.308 97.55C152.081 98.6767 155.158 99.5433 158.538 100.15C161.918 100.757 165.948 101.06 170.628 101.06C172.274 101.06 174.008 100.93 175.828 100.67C177.734 100.41 179.554 100.063 181.288 99.63C186.401 98.33 189.911 98.2433 191.818 99.37C193.724 100.41 194.678 103.01 194.678 107.17C194.678 112.37 193.508 116.573 191.168 119.78C188.828 122.987 185.708 125.457 181.808 127.19C177.994 129.01 173.661 130.18 168.808 130.7C164.041 131.307 159.188 131.61 154.248 131.61C149.568 131.61 144.888 131.263 140.208 130.57C135.528 129.963 131.281 128.837 127.468 127.19C123.654 125.63 120.448 123.507 117.848 120.82C115.334 118.133 113.861 114.753 113.428 110.68ZM206.104 110.68C205.41 105.133 204.977 99.4133 204.804 93.52C204.63 87.6267 204.544 81.43 204.544 74.93C204.544 68.43 204.63 62.2333 204.804 56.34C204.977 50.4467 205.41 44.77 206.104 39.31C206.537 35.15 208.01 31.7267 210.524 29.04C213.124 26.3533 216.33 24.23 220.144 22.67C223.957 21.0233 228.204 19.8967 232.884 19.29C237.564 18.5967 242.244 18.25 246.924 18.25C251.864 18.25 256.717 18.5533 261.484 19.16C266.337 19.68 270.67 20.8067 274.484 22.54C278.384 24.2733 281.504 26.7433 283.844 29.95C286.184 33.1567 287.354 37.36 287.354 42.56C287.354 46.8067 286.4 49.4933 284.494 50.62C282.587 51.7467 279.077 51.6167 273.964 50.23C272.23 49.7967 270.41 49.45 268.504 49.19C266.684 48.8433 264.95 48.67 263.304 48.67C258.624 48.67 254.594 49.0167 251.214 49.71C247.834 50.3167 244.757 51.1833 241.984 52.31C241.29 52.57 240.814 52.96 240.554 53.48C240.294 54 240.207 54.52 240.294 55.04C240.467 55.4733 240.77 55.82 241.204 56.08C241.724 56.2533 242.374 56.21 243.154 55.95C246.014 54.91 249.134 54.13 252.514 53.61C255.894 53.09 259.187 52.83 262.394 52.83C265.687 52.7433 268.764 52.96 271.624 53.48C274.484 54 276.78 54.78 278.514 55.82C281.547 57.7267 283.757 60.1533 285.144 63.1C286.617 66.0467 287.354 69.99 287.354 74.93C287.354 79.87 286.617 83.8567 285.144 86.89C283.757 89.8367 281.547 92.22 278.514 94.04C276.78 95.1667 274.484 95.99 271.624 96.51C268.764 97.03 265.687 97.29 262.394 97.29C259.187 97.2033 255.894 96.9 252.514 96.38C249.134 95.7733 246.014 94.95 243.154 93.91C242.374 93.65 241.724 93.65 241.204 93.91C240.77 94.17 240.467 94.5167 240.294 94.95C240.207 95.3833 240.294 95.86 240.554 96.38C240.814 96.9 241.29 97.29 241.984 97.55C244.757 98.6767 247.834 99.5433 251.214 100.15C254.594 100.757 258.624 101.06 263.304 101.06C264.95 101.06 266.684 100.93 268.504 100.67C270.41 100.41 272.23 100.063 273.964 99.63C279.077 98.33 282.587 98.2433 284.494 99.37C286.4 100.41 287.354 103.01 287.354 107.17C287.354 112.37 286.184 116.573 283.844 119.78C281.504 122.987 278.384 125.457 274.484 127.19C270.67 129.01 266.337 130.18 261.484 130.7C256.717 131.307 251.864 131.61 246.924 131.61C242.244 131.61 237.564 131.263 232.884 130.57C228.204 129.963 223.957 128.837 220.144 127.19C216.33 125.63 213.124 123.507 210.524 120.82C208.01 118.133 206.537 114.753 206.104 110.68ZM335.699 75.58C335.699 78.44 335.613 81.5167 335.439 84.81C335.353 88.0167 335.223 91.2667 335.049 94.56C334.876 97.8533 334.659 101.103 334.399 104.31C334.139 107.517 333.879 110.507 333.619 113.28C333.359 115.707 332.839 117.96 332.059 120.04C331.279 122.207 330.153 124.07 328.679 125.63C327.293 127.19 325.559 128.403 323.479 129.27C321.486 130.223 319.146 130.7 316.459 130.7C313.686 130.7 311.259 130.223 309.179 129.27C307.186 128.403 305.453 127.19 303.979 125.63C302.593 124.07 301.509 122.207 300.729 120.04C299.949 117.96 299.429 115.707 299.169 113.28C297.869 100.887 297.219 88.1467 297.219 75.06C297.219 61.9733 297.869 49.2333 299.169 36.84C299.429 34.4133 299.949 32.16 300.729 30.08C301.509 28 302.593 26.18 303.979 24.62C305.453 23.06 307.186 21.8467 309.179 20.98C311.259 20.0267 313.686 19.55 316.459 19.55C319.579 19.55 322.223 20.1133 324.389 21.24C326.643 22.3667 328.506 23.9267 329.979 25.92C332.926 29.7333 335.526 33.8067 337.779 38.14C340.119 42.3867 342.373 46.7633 344.539 51.27C346.706 55.69 348.829 60.1533 350.909 64.66C353.076 69.1667 355.416 73.5 357.929 77.66C358.189 78.18 358.493 78.5267 358.839 78.7C359.273 78.8733 359.619 78.8733 359.879 78.7C360.226 78.44 360.443 78.0933 360.529 77.66C360.703 77.2267 360.616 76.7067 360.269 76.1C358.883 73.3267 357.626 70.9 356.499 68.82C355.373 66.6533 354.116 64.3133 352.729 61.8C352.903 57.4667 353.119 53.1333 353.379 48.8C353.639 44.38 353.943 40.3933 354.289 36.84C354.636 34.4133 355.199 32.16 355.979 30.08C356.846 28 357.973 26.18 359.359 24.62C360.833 23.06 362.566 21.8467 364.559 20.98C366.553 20.0267 368.936 19.55 371.709 19.55C374.396 19.55 376.736 20.0267 378.729 20.98C380.809 21.8467 382.543 23.06 383.929 24.62C385.403 26.18 386.529 28 387.309 30.08C388.176 32.16 388.783 34.4133 389.129 36.84C390.343 49.2333 390.949 61.9733 390.949 75.06C390.949 88.1467 390.343 100.887 389.129 113.28C388.783 115.707 388.176 117.96 387.309 120.04C386.529 122.207 385.403 124.07 383.929 125.63C382.543 127.19 380.809 128.403 378.729 129.27C376.736 130.223 374.396 130.7 371.709 130.7C367.896 130.7 364.776 129.833 362.349 128.1C360.009 126.367 358.103 124.157 356.629 121.47C354.896 118.523 353.206 115.1 351.559 111.2C349.913 107.3 348.223 103.27 346.489 99.11C344.843 94.95 343.109 90.8333 341.289 86.76C339.469 82.6867 337.606 78.96 335.699 75.58ZM429.67 92.22C425.77 89.7067 422.13 86.4567 418.75 82.47C415.457 78.3967 412.51 73.9333 409.91 69.08C407.397 64.2267 405.273 59.1567 403.54 53.87C401.893 48.4967 400.68 43.2967 399.9 38.27C399.38 34.8033 399.597 31.8567 400.55 29.43C401.503 27.0033 402.933 25.0967 404.84 23.71C406.747 22.2367 408.957 21.1967 411.47 20.59C413.983 19.8967 416.627 19.55 419.4 19.55C426.507 19.55 431.793 21.1967 435.26 24.49C438.813 27.7833 440.85 33.07 441.37 40.35C441.457 42.2567 441.63 44.4233 441.89 46.85C442.237 49.19 442.627 51.66 443.06 54.26C443.493 56.86 444.013 59.5467 444.62 62.32C445.227 65.0067 445.92 67.5633 446.7 69.99C446.96 70.77 447.35 71.29 447.87 71.55C448.39 71.81 448.867 71.8967 449.3 71.81C449.82 71.6367 450.21 71.3333 450.47 70.9C450.817 70.4667 450.903 69.9033 450.73 69.21C450.297 67.3033 449.863 65.1367 449.43 62.71C448.997 60.2833 448.563 57.8133 448.13 55.3C447.783 52.7 447.48 50.23 447.22 47.89C446.96 45.55 446.743 43.5133 446.57 41.78C446.137 37.36 446.44 33.72 447.48 30.86C448.52 27.9133 450.167 25.6167 452.42 23.97C454.673 22.3233 457.447 21.1967 460.74 20.59C464.033 19.8967 467.63 19.55 471.53 19.55C480.803 19.55 487.39 21.63 491.29 25.79C495.19 29.8633 496.317 35.5833 494.67 42.95C493.457 48.2367 491.94 53.4367 490.12 58.55C488.3 63.5767 486.177 68.3 483.75 72.72C481.41 77.0533 478.853 80.91 476.08 84.29C473.307 87.67 470.447 90.3133 467.5 92.22C467.413 93.4333 467.327 94.9933 467.24 96.9C467.153 98.8067 467.067 100.8 466.98 102.88C466.893 104.873 466.763 106.823 466.59 108.73C466.503 110.637 466.417 112.153 466.33 113.28C466.07 115.707 465.507 117.96 464.64 120.04C463.773 122.207 462.603 124.07 461.13 125.63C459.657 127.19 457.88 128.403 455.8 129.27C453.72 130.223 451.337 130.7 448.65 130.7C445.877 130.7 443.407 130.223 441.24 129.27C439.16 128.403 437.383 127.19 435.91 125.63C434.437 124.07 433.267 122.207 432.4 120.04C431.533 117.96 430.97 115.707 430.71 113.28C430.363 109.64 430.147 106.13 430.06 102.75C429.973 99.37 429.843 95.86 429.67 92.22ZM615.497 74.28C620.09 75.7533 623.427 78.6567 625.507 82.99C627.674 87.3233 628.757 93.26 628.757 100.8C628.757 105.48 627.934 109.597 626.287 113.15C624.64 116.617 622.3 119.563 619.267 121.99C616.32 124.417 612.724 126.323 608.477 127.71C604.23 129.183 599.507 130.223 594.307 130.83C589.194 131.35 583.734 131.61 577.927 131.61C574.027 131.61 570.17 131.48 566.357 131.22C562.544 131.047 558.947 130.787 555.567 130.44C553.14 130.18 550.714 129.487 548.287 128.36C545.947 127.233 543.824 125.717 541.917 123.81C540.01 121.903 538.407 119.607 537.107 116.92C535.894 114.233 535.157 111.2 534.897 107.82C534.204 96.5533 533.9 85.6333 533.987 75.06C534.16 64.4867 534.507 53.48 535.027 42.04C535.2 38.5733 535.894 35.4967 537.107 32.81C538.407 30.1233 540.01 27.8267 541.917 25.92C543.824 24.0133 545.947 22.54 548.287 21.5C550.714 20.3733 553.14 19.68 555.567 19.42C558.86 19.0733 562.37 18.8133 566.097 18.64C569.91 18.38 573.767 18.25 577.667 18.25C583.647 18.0767 589.194 18.3367 594.307 19.03C599.507 19.55 604.144 20.4167 608.217 21.63C612.29 22.7567 615.714 24.4467 618.487 26.7C621.26 28.9533 623.34 31.9 624.727 35.54C626.2 39.0933 626.937 43.5133 626.937 48.8C626.937 51.8333 626.547 54.8233 625.767 57.77C624.987 60.63 623.644 63.1867 621.737 65.44C619.917 67.6067 617.404 69.3833 614.197 70.77C611.077 72.07 607.177 72.72 602.497 72.72C601.977 72.72 601.587 72.9367 601.327 73.37C601.067 73.7167 600.937 74.15 600.937 74.67C600.937 75.19 601.067 75.6667 601.327 76.1C601.587 76.4467 601.977 76.62 602.497 76.62C604.317 76.62 606.354 76.49 608.607 76.23C610.947 75.97 613.244 75.32 615.497 74.28ZM569.087 55.3C574.374 58.2467 580.094 59.3733 586.247 58.68C587.027 58.5933 587.59 58.29 587.937 57.77C588.284 57.25 588.457 56.6867 588.457 56.08C588.457 55.4733 588.284 54.9533 587.937 54.52C587.677 54.0867 587.287 53.87 586.767 53.87C583.474 54.0433 580.57 53.9133 578.057 53.48C575.544 52.96 572.9 52.0933 570.127 50.88C569.607 50.62 569.13 50.6633 568.697 51.01C568.264 51.27 567.96 51.66 567.787 52.18C567.614 52.7 567.614 53.2633 567.787 53.87C567.96 54.4767 568.394 54.9533 569.087 55.3ZM569.087 93.52C574.374 96.4667 580.094 97.5933 586.247 96.9C587.027 96.8133 587.59 96.51 587.937 95.99C588.284 95.47 588.457 94.9067 588.457 94.3C588.457 93.6933 588.284 93.1733 587.937 92.74C587.677 92.3067 587.287 92.09 586.767 92.09C583.474 92.2633 580.57 92.09 578.057 91.57C575.544 91.05 572.9 90.1833 570.127 88.97C569.607 88.71 569.13 88.7533 568.697 89.1C568.264 89.36 567.96 89.75 567.787 90.27C567.614 90.79 567.614 91.3967 567.787 92.09C567.96 92.6967 568.394 93.1733 569.087 93.52ZM687.767 131.61C678.753 131.61 670.997 130.267 664.497 127.58C657.997 124.98 652.623 121.253 648.377 116.4C644.217 111.46 641.097 105.523 639.017 98.59C637.023 91.57 636.027 83.6833 636.027 74.93C636.027 66.1767 636.937 58.3333 638.757 51.4C640.577 44.38 643.523 38.4433 647.597 33.59C651.67 28.65 657 24.88 663.587 22.28C670.173 19.5933 678.233 18.25 687.767 18.25C697.3 18.25 705.36 19.5933 711.947 22.28C718.533 24.88 723.863 28.65 727.937 33.59C732.01 38.4433 734.957 44.38 736.777 51.4C738.597 58.3333 739.507 66.1767 739.507 74.93C739.507 83.6833 738.467 91.57 736.387 98.59C734.393 105.523 731.273 111.46 727.027 116.4C722.867 121.253 717.493 124.98 710.907 127.58C704.407 130.267 696.693 131.61 687.767 131.61ZM683.087 83.38C682.74 83.8133 682.697 84.2467 682.957 84.68C683.217 85.1133 683.607 85.4167 684.127 85.59C684.647 85.7633 685.21 85.8067 685.817 85.72C686.51 85.6333 687.073 85.33 687.507 84.81C689.327 82.21 690.54 79.2633 691.147 75.97C691.753 72.6767 692.1 69.3833 692.187 66.09C692.187 65.31 691.97 64.7467 691.537 64.4C691.103 64.0533 690.583 63.88 689.977 63.88C689.457 63.7933 688.937 63.88 688.417 64.14C687.897 64.4 687.637 64.79 687.637 65.31C687.463 68.5167 687.03 71.55 686.337 74.41C685.643 77.27 684.56 80.26 683.087 83.38ZM836.56 102.75C839.16 106.303 840.07 110.203 839.29 114.45C838.597 118.697 836.43 122.423 832.79 125.63C828.89 128.837 824.773 130.483 820.44 130.57C816.193 130.657 812.553 129.183 809.52 126.15C808.133 124.763 806.617 123.16 804.97 121.34C803.323 119.607 801.677 117.83 800.03 116.01C798.47 114.103 796.953 112.24 795.48 110.42C794.007 108.6 792.75 106.953 791.71 105.48C789.197 109.033 786.38 112.587 783.26 116.14C780.14 119.607 777.02 122.943 773.9 126.15C770.867 129.183 767.183 130.657 762.85 130.57C758.517 130.483 754.443 128.837 750.63 125.63C748.81 124.07 747.337 122.293 746.21 120.3C745.083 118.393 744.347 116.443 744 114.45C743.653 112.37 743.697 110.333 744.13 108.34C744.65 106.347 745.603 104.483 746.99 102.75C751.063 97.29 755.093 91.83 759.08 86.37C763.153 80.91 767.4 75.58 771.82 70.38C772.427 69.6867 772.687 69.0367 772.6 68.43C772.513 67.7367 772.253 67.2167 771.82 66.87C771.387 66.4367 770.867 66.22 770.26 66.22C769.653 66.1333 769.09 66.35 768.57 66.87L764.54 71.55C761.073 66.87 757.823 62.45 754.79 58.29C751.757 54.13 749.027 50.2733 746.6 46.72C745.3 44.9 744.433 42.9933 744 41C743.653 39.0067 743.697 37.0133 744.13 35.02C744.563 33.0267 745.343 31.12 746.47 29.3C747.683 27.3933 749.287 25.66 751.28 24.1C755.093 21.0667 759.123 19.5933 763.37 19.68C767.703 19.68 771.387 21.2833 774.42 24.49C776.413 26.7433 779.057 29.8633 782.35 33.85C785.73 37.75 789.067 41.8667 792.36 46.2C794.873 42.4733 797.56 38.7467 800.42 35.02C803.28 31.2067 806.183 27.6967 809.13 24.49C812.163 21.2833 815.76 19.68 819.92 19.68C824.167 19.5933 828.24 21.0667 832.14 24.1C834.047 25.66 835.607 27.3933 836.82 29.3C838.033 31.12 838.857 33.0267 839.29 35.02C839.723 37.0133 839.723 39.0067 839.29 41C838.943 42.9933 838.12 44.9 836.82 46.72C832.313 53.0467 827.98 59.1567 823.82 65.05C819.747 70.8567 815.24 76.7933 810.3 82.86C809.78 83.4667 809.52 84.0733 809.52 84.68C809.607 85.2 809.823 85.6333 810.17 85.98C810.603 86.3267 811.08 86.5 811.6 86.5C812.207 86.5 812.77 86.24 813.29 85.72L818.62 79.09L836.56 102.75Z"/>
</mask>
<path d="M23.1925 61.93L20.8984 67.4741L20.9312 67.4877L20.9642 67.5009L23.1925 61.93ZM16.6925 57.64L12.2529 61.676L12.3489 61.7817L12.4499 61.8826L16.6925 57.64ZM12.5325 50.88L6.89924 52.9455L6.92926 53.0274L6.96164 53.1083L12.5325 50.88ZM16.6925 26.83L12.4989 22.5389L12.4742 22.563L12.4499 22.5874L16.6925 26.83ZM31.7725 20.59L32.1882 26.5756L32.238 26.5721L32.2878 26.5678L31.7725 20.59ZM45.8125 19.81L45.9325 25.8088L45.9901 25.8076L46.0476 25.8054L45.8125 19.81ZM71.4225 19.81L71.1778 25.805L71.1827 25.8052L71.4225 19.81ZM85.2025 20.59L84.775 26.5748L84.7868 26.5756L85.2025 20.59ZM100.153 26.96L95.8614 31.1536L95.9096 31.2029L95.9589 31.2511L100.153 26.96ZM104.313 50.75L98.7171 48.584L98.6977 48.6341L98.6792 48.6845L104.313 50.75ZM100.153 57.51L95.8124 53.3671L95.8124 53.3671L100.153 57.51ZM93.6525 61.93L95.9466 67.4741L95.9466 67.4741L93.6525 61.93ZM80.9125 63.49L75.0916 64.9452L76.2278 69.49H80.9125V63.49ZM79.3525 58.03L73.5639 59.6087L73.5969 59.7297L73.635 59.8492L79.3525 58.03ZM77.7925 52.83L83.4846 50.9326L83.4057 50.6959L83.3074 50.4665L77.7925 52.83ZM76.6225 51.66L74.3941 57.2308L74.5579 57.2963L74.7252 57.3521L76.6225 51.66ZM75.3225 51.53V57.53H75.9166L76.4992 57.4135L75.3225 51.53ZM74.1525 52.05L78.3951 56.2926L78.3952 56.2926L74.1525 52.05ZM74.0225 53.09L79.737 51.2613L79.6723 51.0589L79.5934 50.8616L74.0225 53.09ZM77.5325 67.13L83.4274 66.012L83.4274 66.012L77.5325 67.13ZM79.6125 82.21L73.6347 82.7253L73.6391 82.7764L73.6444 82.8274L79.6125 82.21ZM80.5225 96.9L74.5235 97.0091L74.5245 97.0656L74.5266 97.1221L80.5225 96.9ZM80.3925 109.38L86.3646 109.958L86.3719 109.883L86.3773 109.807L80.3925 109.38ZM78.5725 117.31L84.1825 119.438L84.1943 119.407L84.2058 119.376L78.5725 117.31ZM74.4125 124.07L69.9816 120.024L69.9326 120.078L69.8849 120.133L74.4125 124.07ZM67.9125 128.88L70.4498 134.317L70.4498 134.317L67.9125 128.88ZM49.1925 128.88L46.6552 134.317L46.689 134.333L46.723 134.348L49.1925 128.88ZM42.5625 124.07L38.0349 128.007L38.0826 128.062L38.1316 128.116L42.5625 124.07ZM38.4025 117.31L32.7692 119.376L32.8115 119.491L32.8584 119.604L38.4025 117.31ZM36.7125 109.38L42.7001 108.994L42.6989 108.976L42.6976 108.958L36.7125 109.38ZM40.3525 63.49L46.188 64.8854L47.9564 57.49H40.3525V63.49ZM31.7725 57.49C29.3288 57.49 27.2356 57.085 25.4208 56.3591L20.9642 67.5009C24.3494 68.855 27.9762 69.49 31.7725 69.49V57.49ZM25.4866 56.3859C23.66 55.6301 22.1662 54.6284 20.9351 53.3974L12.4499 61.8826C14.8588 64.2916 17.6983 66.1499 20.8984 67.4741L25.4866 56.3859ZM21.1321 53.604C19.921 52.2717 18.9004 50.6442 18.1034 48.6517L6.96164 53.1083C8.24462 56.3158 9.99735 59.195 12.2529 61.676L21.1321 53.604ZM18.1658 48.8145C17.4837 46.9544 17.1025 44.8038 17.1025 42.3H5.1025C5.1025 46.0362 5.67462 49.6056 6.89924 52.9455L18.1658 48.8145ZM17.1025 42.3C17.1025 36.8848 18.5994 33.4084 20.9351 31.0726L12.4499 22.5874C7.33231 27.7049 5.1025 34.5419 5.1025 42.3H17.1025ZM20.8861 31.1211C23.5097 28.5571 27.1098 26.9282 32.1882 26.5756L31.3568 14.6044C23.9552 15.1184 17.5019 17.6495 12.4989 22.5389L20.8861 31.1211ZM32.2878 26.5678C37.2037 26.144 41.7504 25.8924 45.9325 25.8088L45.6925 13.8112C41.2079 13.9009 36.3946 14.1693 31.2572 14.6122L32.2878 26.5678ZM46.0476 25.8054C50.3925 25.635 54.6474 25.55 58.8125 25.55V13.55C54.4843 13.55 50.0725 13.6383 45.5774 13.8146L46.0476 25.8054ZM58.8125 25.55C62.8892 25.55 67.0109 25.6349 71.1778 25.805L71.6672 13.815C67.3408 13.6384 63.0558 13.55 58.8125 13.55V25.55ZM71.1827 25.8052C75.4464 25.9758 79.9768 26.232 84.775 26.5747L85.63 14.6052C80.7215 14.2546 76.0652 13.9909 71.6623 13.8148L71.1827 25.8052ZM84.7868 26.5756C89.8282 26.9257 93.3373 28.5708 95.8614 31.1536L104.444 22.7664C99.5144 17.7225 93.0568 15.121 85.6182 14.6044L84.7868 26.5756ZM95.9589 31.2511C98.4037 33.6404 99.8725 37.0037 99.8725 42.04H111.873C111.873 34.423 109.528 27.7329 104.346 22.6689L95.9589 31.2511ZM99.8725 42.04C99.8725 44.481 99.4683 46.6435 98.7171 48.584L109.908 52.916C111.237 49.4831 111.873 45.839 111.873 42.04H99.8725ZM98.6792 48.6845C97.995 50.5505 97.0346 52.0867 95.8124 53.3671L104.493 61.6529C106.91 59.1199 108.723 56.1495 109.946 52.8155L98.6792 48.6845ZM95.8124 53.3671C94.5879 54.6499 93.1249 55.6549 91.3584 56.3859L95.9466 67.4741C99.2068 66.125 102.077 64.1835 104.493 61.6529L95.8124 53.3671ZM91.3584 56.3859C89.6715 57.0839 87.6501 57.49 85.2025 57.49V69.49C88.9949 69.49 92.6068 68.8561 95.9466 67.4741L91.3584 56.3859ZM85.2025 57.49H80.9125V69.49H85.2025V57.49ZM86.7334 62.0348C86.2661 60.1656 85.7105 58.2237 85.0701 56.2108L73.635 59.8492C74.2078 61.6497 74.6923 63.3477 75.0916 64.9452L86.7334 62.0348ZM85.1411 56.4513C84.5975 54.4581 84.0458 52.6164 83.4846 50.9326L72.1004 54.7274C72.5792 56.1636 73.0675 57.7886 73.5639 59.6087L85.1411 56.4513ZM83.3074 50.4665C82.5225 48.6351 80.9955 46.7931 78.5199 45.9679L74.7252 57.3521C74.0958 57.1423 73.5217 56.7845 73.0624 56.3251C72.6227 55.8855 72.3905 55.4569 72.2776 55.1935L83.3074 50.4665ZM78.8509 46.0892C77.4006 45.509 75.786 45.3185 74.1458 45.6465L76.4992 57.4135C75.7257 57.5682 74.9777 57.4643 74.3941 57.2308L78.8509 46.0892ZM75.3225 45.53C73.0837 45.53 71.2207 46.4966 69.9098 47.8074L78.3952 56.2926C78.1243 56.5635 77.712 56.8894 77.1418 57.1429C76.5576 57.4025 75.9321 57.53 75.3225 57.53V45.53ZM69.9099 47.8074C68.8895 48.8277 68.1676 50.1908 67.9713 51.7608C67.7885 53.2234 68.1099 54.4639 68.4516 55.3183L79.5934 50.8616C79.7618 51.2827 80.0182 52.1332 79.8787 53.2492C79.7258 54.4725 79.1555 55.5323 78.3951 56.2926L69.9099 47.8074ZM68.308 54.9187C69.6116 58.9924 70.7243 63.4326 71.6376 68.248L83.4274 66.012C82.434 60.7741 81.2068 55.8542 79.737 51.2613L68.308 54.9187ZM71.6376 68.248C72.5536 73.0781 73.219 77.9036 73.6347 82.7253L85.5903 81.6947C85.1393 76.463 84.418 71.2352 83.4274 66.012L71.6376 68.248ZM73.6444 82.8274C74.1479 87.6951 74.4401 92.422 74.5235 97.0091L86.5215 96.7909C86.4316 91.8447 86.1171 86.7782 85.5807 81.5926L73.6444 82.8274ZM74.5266 97.1221C74.694 101.643 74.6487 105.579 74.4077 108.953L86.3773 109.807C86.6563 105.901 86.6976 101.517 86.5184 96.6779L74.5266 97.1221ZM74.4204 108.802C74.2109 110.967 73.7214 113.111 72.9392 115.244L84.2058 119.376C85.3303 116.309 86.0542 113.166 86.3646 109.958L74.4204 108.802ZM72.9625 115.182C72.2788 116.985 71.2933 118.588 69.9816 120.024L78.8434 128.116C81.1717 125.566 82.9595 122.662 84.1825 119.438L72.9625 115.182ZM69.8849 120.133C68.7488 121.439 67.2804 122.554 65.3752 123.443L70.4498 134.317C73.7446 132.78 76.6096 130.687 78.9401 128.007L69.8849 120.133ZM65.3752 123.443C63.7531 124.2 61.5437 124.7 58.5525 124.7V136.7C62.8413 136.7 66.8719 135.987 70.4498 134.317L65.3752 123.443ZM58.5525 124.7C55.6791 124.7 53.43 124.21 51.662 123.412L46.723 134.348C50.3283 135.976 54.3193 136.7 58.5525 136.7V124.7ZM51.7298 123.443C49.8008 122.543 48.2471 121.397 46.9934 120.024L38.1316 128.116C40.5179 130.729 43.3842 132.791 46.6552 134.317L51.7298 123.443ZM47.0901 120.133C45.7948 118.643 44.7462 116.948 43.9466 115.016L32.8584 119.604C34.1388 122.698 35.8636 125.51 38.0349 128.007L47.0901 120.133ZM44.0358 115.244C43.2747 113.169 42.8353 111.09 42.7001 108.994L30.7249 109.766C30.9364 113.043 31.6237 116.251 32.7692 119.376L44.0358 115.244ZM42.6976 108.958C42.1978 101.877 42.1968 94.6579 42.6986 87.2981L30.7264 86.4819C30.1882 94.3754 30.1872 102.15 30.7274 109.802L42.6976 108.958ZM42.6986 87.2981C43.1944 80.0272 44.3533 72.5576 46.188 64.8854L34.517 62.0946C32.5383 70.369 31.2707 78.4995 30.7264 86.4819L42.6986 87.2981ZM40.3525 57.49H31.7725V69.49H40.3525V57.49ZM113.428 110.68L119.394 110.045L119.388 109.99L119.381 109.936L113.428 110.68ZM112.128 93.52L118.125 93.3436L112.128 93.52ZM113.428 39.31L119.38 40.0658L119.388 39.9988L119.395 39.9316L113.428 39.31ZM117.848 29.04L113.536 24.8675L113.501 24.904L113.466 24.9411L117.848 29.04ZM127.468 22.67L129.74 28.2233L129.793 28.2013L129.846 28.1784L127.468 22.67ZM140.208 19.29L140.979 25.2402L141.033 25.2332L141.087 25.2252L140.208 19.29ZM168.808 19.16L168.05 25.112L168.109 25.1195L168.169 25.1259L168.808 19.16ZM181.808 22.54L179.325 28.0022L179.348 28.0126L179.371 28.0229L181.808 22.54ZM191.168 29.95L186.321 33.4868L186.321 33.4868L191.168 29.95ZM191.818 50.62L194.87 55.7856L194.87 55.7856L191.818 50.62ZM181.288 50.23L182.858 44.4392L182.801 44.4236L182.743 44.4091L181.288 50.23ZM175.828 49.19L174.705 55.084L174.86 55.1136L175.017 55.135L175.828 49.19ZM158.538 49.71L159.598 55.6156L159.671 55.6025L159.743 55.5876L158.538 49.71ZM149.308 52.31L151.414 57.928L151.491 57.8994L151.566 57.8688L149.308 52.31ZM147.878 53.48L153.244 56.1633L153.244 56.1633L147.878 53.48ZM147.618 55.04L141.699 56.0264L141.806 56.6662L142.047 57.2683L147.618 55.04ZM148.528 56.08L145.441 61.225L146.006 61.5638L146.63 61.7721L148.528 56.08ZM150.478 55.95L152.375 61.6421L152.452 61.6165L152.528 61.5888L150.478 55.95ZM159.838 53.61L158.925 47.6798L158.925 47.6798L159.838 53.61ZM169.718 52.83V58.83H169.797L169.876 58.8279L169.718 52.83ZM178.948 53.48L177.874 59.3832L177.874 59.3832L178.948 53.48ZM185.838 55.82L189.031 50.7402L188.978 50.7071L188.925 50.675L185.838 55.82ZM192.468 63.1L187.039 65.6548L187.069 65.7194L187.101 65.7833L192.468 63.1ZM192.468 86.89L187.071 84.2686L187.055 84.3018L187.039 84.3352L192.468 86.89ZM185.838 94.04L182.751 88.895L182.658 88.9505L182.568 89.0093L185.838 94.04ZM169.718 97.29L169.556 103.288L169.637 103.29H169.718V97.29ZM159.838 96.38L158.778 102.286L158.851 102.299L158.925 102.31L159.838 96.38ZM150.478 93.91L152.528 88.2712L152.452 88.2435L152.375 88.2179L150.478 93.91ZM148.528 93.91L145.844 88.5434L145.638 88.6465L145.441 88.765L148.528 93.91ZM147.618 94.95L142.047 92.7217L141.842 93.2331L141.734 93.7733L147.618 94.95ZM147.878 96.38L153.244 93.6967L153.244 93.6967L147.878 96.38ZM149.308 97.55L151.566 91.9912L151.491 91.9606L151.414 91.932L149.308 97.55ZM175.828 100.67L175.017 94.725L174.998 94.7276L174.979 94.7303L175.828 100.67ZM181.288 99.63L182.743 105.451L182.755 105.448L182.766 105.445L181.288 99.63ZM191.818 99.37L188.765 104.536L188.854 104.588L188.945 104.637L191.818 99.37ZM191.168 119.78L186.321 116.243L186.321 116.243L191.168 119.78ZM181.808 127.19L179.371 121.707L179.297 121.74L179.223 121.775L181.808 127.19ZM168.808 130.7L168.169 124.734L168.109 124.74L168.05 124.748L168.808 130.7ZM140.208 130.57L141.087 124.635L141.033 124.627L140.979 124.62L140.208 130.57ZM127.468 127.19L129.846 121.682L129.793 121.659L129.74 121.637L127.468 127.19ZM117.848 120.82L113.466 124.919L113.501 124.956L113.536 124.993L117.848 120.82ZM119.381 109.936C118.713 104.588 118.293 99.0574 118.125 93.3436L106.13 93.6964C106.309 99.7693 106.756 105.679 107.474 111.424L119.381 109.936ZM118.125 93.3436C117.954 87.5146 117.868 81.3771 117.868 74.93H105.868C105.868 81.4829 105.955 87.7387 106.13 93.6964L118.125 93.3436ZM117.868 74.93C117.868 68.4829 117.954 62.3454 118.125 56.5164L106.13 56.1636C105.955 62.1213 105.868 68.3771 105.868 74.93H117.868ZM118.125 56.5164C118.293 50.8032 118.713 45.3205 119.38 40.0658L107.476 38.5542C106.756 44.2195 106.309 50.0901 106.13 56.1636L118.125 56.5164ZM119.395 39.9316C119.713 36.8863 120.73 34.742 122.229 33.1389L113.466 24.9411C109.939 28.7113 108.009 33.4137 107.46 38.6884L119.395 39.9316ZM122.159 33.2125C124.126 31.1805 126.615 29.5013 129.74 28.2233L125.196 17.1167C120.693 18.9587 116.77 21.5261 113.536 24.8675L122.159 33.2125ZM129.846 28.1784C133.083 26.7808 136.779 25.7847 140.979 25.2402L139.436 13.3398C134.277 14.0086 129.479 15.2659 125.089 17.1616L129.846 28.1784ZM141.087 25.2252C145.479 24.5745 149.865 24.25 154.248 24.25V12.25C149.27 12.25 144.296 12.6188 139.328 13.3548L141.087 25.2252ZM154.248 24.25C158.942 24.25 163.542 24.5382 168.05 25.112L169.565 13.208C164.54 12.5685 159.434 12.25 154.248 12.25V24.25ZM168.169 25.1259C172.487 25.5886 176.183 26.5739 179.325 28.0022L184.291 17.0778C179.806 15.0394 174.835 13.7714 169.447 13.1941L168.169 25.1259ZM179.371 28.0229C182.386 29.3627 184.646 31.1921 186.321 33.4868L196.014 26.4132C193.009 22.2946 189.03 19.1839 184.245 17.0571L179.371 28.0229ZM186.321 33.4868C187.709 35.3893 188.678 38.2389 188.678 42.56H200.678C200.678 36.4811 199.306 30.924 196.014 26.4132L186.321 33.4868ZM188.678 42.56C188.678 44.3014 188.473 45.2879 188.308 45.7535C188.164 46.1594 188.195 45.7913 188.765 45.4544L194.87 55.7856C199.786 52.8808 200.678 47.0479 200.678 42.56H188.678ZM188.765 45.4544C189.224 45.1836 189.199 45.4169 187.977 45.3716C186.846 45.3297 185.173 45.0669 182.858 44.4392L179.717 56.0208C182.516 56.7797 185.155 57.2753 187.533 57.3634C189.821 57.4481 192.505 57.183 194.87 55.7856L188.765 45.4544ZM182.743 44.4091C180.782 43.9188 178.746 43.5324 176.638 43.245L175.017 55.135C176.723 55.3676 178.327 55.6745 179.833 56.0508L182.743 44.4091ZM176.95 43.296C174.806 42.8874 172.694 42.67 170.628 42.67V54.67C171.854 54.67 173.21 54.7993 174.705 55.084L176.95 43.296ZM170.628 42.67C165.676 42.67 161.221 43.0347 157.332 43.8324L159.743 55.5876C162.615 54.9986 166.22 54.67 170.628 54.67V42.67ZM157.478 43.8044C153.746 44.4742 150.261 45.4467 147.049 46.7512L151.566 57.8688C153.901 56.92 156.569 56.1592 159.598 55.6156L157.478 43.8044ZM147.201 46.692C145.492 47.3327 143.619 48.581 142.511 50.7967L153.244 56.1633C152.656 57.339 151.736 57.8073 151.414 57.928L147.201 46.692ZM142.511 50.7967C141.745 52.3283 141.383 54.1269 141.699 56.0264L153.536 54.0536C153.602 54.4467 153.602 54.8533 153.536 55.2464C153.472 55.6336 153.355 55.9428 153.244 56.1633L142.511 50.7967ZM142.047 57.2683C142.748 59.022 143.982 60.3496 145.441 61.225L151.615 50.935C151.882 51.0953 152.193 51.3342 152.491 51.674C152.792 52.0179 153.027 52.407 153.189 52.8116L142.047 57.2683ZM146.63 61.7721C148.861 62.5156 150.949 62.1175 152.375 61.6421L148.58 50.2579C148.555 50.2664 148.709 50.2106 149.006 50.1908C149.315 50.1702 149.821 50.1864 150.425 50.3879L146.63 61.7721ZM152.528 61.5888C154.977 60.6982 157.711 60.0077 160.75 59.5402L158.925 47.6798C155.204 48.2522 151.698 49.1218 148.427 50.3112L152.528 61.5888ZM160.75 59.5402C163.848 59.0636 166.836 58.83 169.718 58.83V46.83C166.186 46.83 162.587 47.1164 158.925 47.6798L160.75 59.5402ZM169.876 58.8279C172.81 58.7507 175.47 58.9461 177.874 59.3832L180.021 47.5768C176.705 46.9739 173.212 46.736 169.56 46.8321L169.876 58.8279ZM177.874 59.3832C180.308 59.8258 181.845 60.4216 182.751 60.965L188.925 50.675C186.364 49.1384 183.307 48.1742 180.021 47.5768L177.874 59.3832ZM182.645 60.8998C184.808 62.2593 186.189 63.8491 187.039 65.6548L197.897 60.5452C195.973 56.4576 192.935 53.194 189.031 50.7402L182.645 60.8998ZM187.101 65.7833C188.002 67.585 188.678 70.4954 188.678 74.93H200.678C200.678 69.4845 199.88 64.5084 197.834 60.4167L187.101 65.7833ZM188.678 74.93C188.678 79.3511 188.006 82.342 187.071 84.2686L197.865 89.5114C199.876 85.3713 200.678 80.3889 200.678 74.93H188.678ZM187.039 84.3352C186.203 86.1123 184.856 87.632 182.751 88.895L188.925 99.185C192.886 96.808 195.96 93.5611 197.897 89.4448L187.039 84.3352ZM182.568 89.0093C181.714 89.5644 180.247 90.1755 177.874 90.6068L180.021 102.413C183.369 101.805 186.495 100.769 189.108 99.0707L182.568 89.0093ZM177.874 90.6068C175.412 91.0546 172.698 91.29 169.718 91.29V103.29C173.324 103.29 176.764 103.005 180.021 102.413L177.874 90.6068ZM169.88 91.2922C166.94 91.2127 163.898 90.934 160.75 90.4498L158.925 102.31C162.538 102.866 166.082 103.194 169.556 103.288L169.88 91.2922ZM160.898 90.4744C157.813 89.9207 155.028 89.1804 152.528 88.2712L148.427 99.5488C151.647 100.72 155.103 101.626 158.778 102.286L160.898 90.4744ZM152.375 88.2179C150.718 87.6654 148.29 87.3208 145.844 88.5434L151.211 99.2766C149.806 99.9792 148.678 99.6346 148.58 99.6021L152.375 88.2179ZM145.441 88.765C143.982 89.6404 142.748 90.968 142.047 92.7217L153.189 97.1783C153.027 97.583 152.792 97.9721 152.491 98.316C152.193 98.6558 151.882 98.8947 151.615 99.055L145.441 88.765ZM141.734 93.7733C141.314 95.876 141.843 97.7273 142.511 99.0633L153.244 93.6967C153.392 93.9927 153.748 94.8907 153.501 96.1267L141.734 93.7733ZM142.511 99.0633C143.619 101.279 145.492 102.527 147.201 103.168L151.414 91.932C151.736 92.0527 152.656 92.521 153.244 93.6967L142.511 99.0633ZM147.049 103.109C150.261 104.413 153.746 105.386 157.478 106.056L159.598 94.2444C156.569 93.7008 153.901 92.94 151.566 91.9912L147.049 103.109ZM157.478 106.056C161.307 106.743 165.711 107.06 170.628 107.06V95.06C166.185 95.06 162.528 94.7703 159.598 94.2444L157.478 106.056ZM170.628 107.06C172.589 107.06 174.607 106.905 176.676 106.61L174.979 94.7303C173.408 94.9547 171.96 95.06 170.628 95.06V107.06ZM176.638 106.615C178.746 106.328 180.782 105.941 182.743 105.451L179.833 93.8091C178.327 94.1855 176.723 94.4924 175.017 94.725L176.638 106.615ZM182.766 105.445C185.082 104.856 186.761 104.616 187.903 104.588C189.134 104.558 189.191 104.787 188.765 104.536L194.87 94.2044C192.537 92.826 189.886 92.5356 187.607 92.5918C185.24 92.6503 182.607 93.1037 179.809 93.815L182.766 105.445ZM188.945 104.637C188.299 104.285 188.212 103.845 188.329 104.166C188.474 104.559 188.678 105.476 188.678 107.17H200.678C200.678 102.784 199.789 96.8833 194.691 94.1026L188.945 104.637ZM188.678 107.17C188.678 111.491 187.709 114.341 186.321 116.243L196.014 123.317C199.306 118.806 200.678 113.249 200.678 107.17H188.678ZM186.321 116.243C184.646 118.538 182.386 120.367 179.371 121.707L184.245 132.673C189.03 130.546 193.009 127.435 196.014 123.317L186.321 116.243ZM179.223 121.775C176.109 123.261 172.45 124.275 168.169 124.734L169.447 136.666C174.872 136.085 179.879 134.759 184.392 132.605L179.223 121.775ZM168.05 124.748C163.542 125.322 158.942 125.61 154.248 125.61V137.61C159.434 137.61 164.54 137.292 169.565 136.652L168.05 124.748ZM154.248 125.61C149.865 125.61 145.479 125.285 141.087 124.635L139.328 136.505C144.296 137.241 149.27 137.61 154.248 137.61V125.61ZM140.979 124.62C136.779 124.075 133.083 123.079 129.846 121.682L125.089 132.698C129.479 134.594 134.277 135.851 139.436 136.52L140.979 124.62ZM129.74 121.637C126.615 120.359 124.126 118.679 122.159 116.647L113.536 124.993C116.77 128.334 120.693 130.901 125.196 132.743L129.74 121.637ZM122.229 116.721C120.707 115.094 119.706 112.977 119.394 110.045L107.461 111.315C108.016 116.53 109.961 121.173 113.466 124.919L122.229 116.721ZM206.104 110.68L212.07 110.045L212.064 109.99L212.057 109.936L206.104 110.68ZM204.804 93.52L210.801 93.3436L204.804 93.52ZM206.104 39.31L212.056 40.0658L212.064 39.9988L212.071 39.9316L206.104 39.31ZM210.524 29.04L206.212 24.8675L206.177 24.904L206.142 24.9411L210.524 29.04ZM220.144 22.67L222.415 28.2233L222.469 28.2013L222.522 28.1784L220.144 22.67ZM232.884 19.29L233.655 25.2402L233.709 25.2332L233.763 25.2252L232.884 19.29ZM261.484 19.16L260.726 25.112L260.785 25.1195L260.844 25.1259L261.484 19.16ZM274.484 22.54L272.001 28.0022L272.024 28.0126L272.047 28.0229L274.484 22.54ZM283.844 29.95L278.997 33.4868L278.997 33.4868L283.844 29.95ZM284.494 50.62L287.546 55.7856L287.546 55.7856L284.494 50.62ZM273.964 50.23L275.534 44.4392L275.476 44.4236L275.419 44.4091L273.964 50.23ZM268.504 49.19L267.381 55.084L267.536 55.1136L267.693 55.135L268.504 49.19ZM251.214 49.71L252.274 55.6156L252.347 55.6025L252.419 55.5876L251.214 49.71ZM241.984 52.31L244.09 57.928L244.166 57.8994L244.242 57.8688L241.984 52.31ZM240.554 53.48L245.92 56.1633L245.92 56.1633L240.554 53.48ZM240.294 55.04L234.375 56.0264L234.482 56.6662L234.723 57.2683L240.294 55.04ZM241.204 56.08L238.117 61.225L238.681 61.5638L239.306 61.7721L241.204 56.08ZM243.154 55.95L245.051 61.6421L245.128 61.6165L245.204 61.5888L243.154 55.95ZM252.514 53.61L251.601 47.6798L251.601 47.6798L252.514 53.61ZM262.394 52.83V58.83H262.472L262.551 58.8279L262.394 52.83ZM271.624 53.48L270.55 59.3832L270.55 59.3832L271.624 53.48ZM278.514 55.82L281.707 50.7402L281.654 50.7071L281.6 50.675L278.514 55.82ZM285.144 63.1L279.715 65.6548L279.745 65.7194L279.777 65.7833L285.144 63.1ZM285.144 86.89L279.746 84.2686L279.73 84.3018L279.715 84.3352L285.144 86.89ZM278.514 94.04L275.427 88.895L275.334 88.9505L275.244 89.0093L278.514 94.04ZM262.394 97.29L262.231 103.288L262.312 103.29H262.394V97.29ZM252.514 96.38L251.454 102.286L251.527 102.299L251.601 102.31L252.514 96.38ZM243.154 93.91L245.204 88.2712L245.128 88.2435L245.051 88.2179L243.154 93.91ZM241.204 93.91L238.52 88.5434L238.314 88.6465L238.117 88.765L241.204 93.91ZM240.294 94.95L234.723 92.7217L234.518 93.2331L234.41 93.7733L240.294 94.95ZM240.554 96.38L245.92 93.6967L245.92 93.6967L240.554 96.38ZM241.984 97.55L244.242 91.9912L244.166 91.9606L244.09 91.932L241.984 97.55ZM268.504 100.67L267.693 94.725L267.674 94.7276L267.655 94.7303L268.504 100.67ZM273.964 99.63L275.419 105.451L275.43 105.448L275.442 105.445L273.964 99.63ZM284.494 99.37L281.441 104.536L281.53 104.588L281.62 104.637L284.494 99.37ZM283.844 119.78L278.997 116.243L278.997 116.243L283.844 119.78ZM274.484 127.19L272.047 121.707L271.972 121.74L271.899 121.775L274.484 127.19ZM261.484 130.7L260.844 124.734L260.785 124.74L260.726 124.748L261.484 130.7ZM232.884 130.57L233.763 124.635L233.709 124.627L233.655 124.62L232.884 130.57ZM220.144 127.19L222.522 121.682L222.469 121.659L222.415 121.637L220.144 127.19ZM210.524 120.82L206.142 124.919L206.177 124.956L206.212 124.993L210.524 120.82ZM212.057 109.936C211.389 104.588 210.969 99.0574 210.801 93.3436L198.806 93.6964C198.985 99.7693 199.432 105.679 200.15 111.424L212.057 109.936ZM210.801 93.3436C210.629 87.5146 210.544 81.3771 210.544 74.93H198.544C198.544 81.4829 198.631 87.7387 198.806 93.6964L210.801 93.3436ZM210.544 74.93C210.544 68.4829 210.629 62.3454 210.801 56.5164L198.806 56.1636C198.631 62.1213 198.544 68.3771 198.544 74.93H210.544ZM210.801 56.5164C210.969 50.8032 211.388 45.3205 212.056 40.0658L200.151 38.5542C199.432 44.2195 198.985 50.0901 198.806 56.1636L210.801 56.5164ZM212.071 39.9316C212.388 36.8863 213.405 34.742 214.905 33.1389L206.142 24.9411C202.615 28.7113 200.685 33.4137 200.136 38.6884L212.071 39.9316ZM214.835 33.2125C216.802 31.1805 219.291 29.5013 222.415 28.2233L217.872 17.1167C213.369 18.9587 209.445 21.5261 206.212 24.8675L214.835 33.2125ZM222.522 28.1784C225.759 26.7808 229.455 25.7847 233.655 25.2402L232.112 13.3398C226.952 14.0086 222.155 15.2659 217.765 17.1616L222.522 28.1784ZM233.763 25.2252C238.155 24.5745 242.541 24.25 246.924 24.25V12.25C241.946 12.25 236.972 12.6188 232.004 13.3548L233.763 25.2252ZM246.924 24.25C251.617 24.25 256.217 24.5382 260.726 25.112L262.241 13.208C257.216 12.5685 252.11 12.25 246.924 12.25V24.25ZM260.844 25.1259C265.163 25.5886 268.858 26.5739 272.001 28.0022L276.966 17.0778C272.482 15.0394 267.511 13.7714 262.123 13.1941L260.844 25.1259ZM272.047 28.0229C275.061 29.3627 277.322 31.1921 278.997 33.4868L288.69 26.4132C285.685 22.2946 281.706 19.1839 276.92 17.0571L272.047 28.0229ZM278.997 33.4868C280.385 35.3893 281.354 38.2389 281.354 42.56H293.354C293.354 36.4811 291.982 30.924 288.69 26.4132L278.997 33.4868ZM281.354 42.56C281.354 44.3014 281.149 45.2879 280.984 45.7535C280.84 46.1594 280.871 45.7913 281.441 45.4544L287.546 55.7856C292.462 52.8808 293.354 47.0479 293.354 42.56H281.354ZM281.441 45.4544C281.899 45.1836 281.875 45.4169 280.653 45.3716C279.521 45.3297 277.849 45.0669 275.534 44.4392L272.393 56.0208C275.192 56.7797 277.831 57.2753 280.209 57.3634C282.497 57.4481 285.181 57.183 287.546 55.7856L281.441 45.4544ZM275.419 44.4091C273.457 43.9188 271.421 43.5324 269.314 43.245L267.693 55.135C269.399 55.3676 271.003 55.6745 272.508 56.0508L275.419 44.4091ZM269.626 43.296C267.481 42.8874 265.37 42.67 263.304 42.67V54.67C264.53 54.67 265.886 54.7993 267.381 55.084L269.626 43.296ZM263.304 42.67C258.351 42.67 253.896 43.0347 250.008 43.8324L252.419 55.5876C255.291 54.9986 258.896 54.67 263.304 54.67V42.67ZM250.154 43.8044C246.422 44.4742 242.936 45.4467 239.725 46.7512L244.242 57.8688C246.577 56.92 249.245 56.1592 252.274 55.6156L250.154 43.8044ZM239.877 46.692C238.168 47.3327 236.295 48.581 235.187 50.7967L245.92 56.1633C245.332 57.339 244.412 57.8073 244.09 57.928L239.877 46.692ZM235.187 50.7967C234.421 52.3283 234.059 54.1269 234.375 56.0264L246.212 54.0536C246.277 54.4467 246.277 54.8533 246.212 55.2464C246.147 55.6336 246.03 55.9428 245.92 56.1633L235.187 50.7967ZM234.723 57.2683C235.424 59.022 236.658 60.3496 238.117 61.225L244.29 50.935C244.558 51.0953 244.869 51.3342 245.166 51.674C245.467 52.0179 245.703 52.407 245.864 52.8116L234.723 57.2683ZM239.306 61.7721C241.537 62.5156 243.625 62.1175 245.051 61.6421L241.256 50.2579C241.231 50.2664 241.384 50.2106 241.682 50.1908C241.991 50.1702 242.496 50.1864 243.101 50.3879L239.306 61.7721ZM245.204 61.5888C247.653 60.6982 250.387 60.0077 253.426 59.5402L251.601 47.6798C247.88 48.2522 244.374 49.1218 241.103 50.3112L245.204 61.5888ZM253.426 59.5402C256.524 59.0636 259.512 58.83 262.394 58.83V46.83C258.862 46.83 255.263 47.1164 251.601 47.6798L253.426 59.5402ZM262.551 58.8279C265.486 58.7507 268.146 58.9461 270.55 59.3832L272.697 47.5768C269.381 46.9739 265.888 46.736 262.236 46.8321L262.551 58.8279ZM270.55 59.3832C272.984 59.8258 274.521 60.4216 275.427 60.965L281.6 50.675C279.039 49.1384 275.983 48.1742 272.697 47.5768L270.55 59.3832ZM275.32 60.8998C277.483 62.2593 278.865 63.8491 279.715 65.6548L290.572 60.5452C288.649 56.4576 285.61 53.194 281.707 50.7402L275.32 60.8998ZM279.777 65.7833C280.678 67.585 281.354 70.4954 281.354 74.93H293.354C293.354 69.4845 292.556 64.5084 290.51 60.4167L279.777 65.7833ZM281.354 74.93C281.354 79.3511 280.682 82.342 279.746 84.2686L290.541 89.5114C292.551 85.3713 293.354 80.3889 293.354 74.93H281.354ZM279.715 84.3352C278.878 86.1123 277.532 87.632 275.427 88.895L281.601 99.185C285.562 96.808 288.635 93.5611 290.572 89.4448L279.715 84.3352ZM275.244 89.0093C274.39 89.5644 272.922 90.1755 270.55 90.6068L272.697 102.413C276.045 101.805 279.171 100.769 281.783 99.0707L275.244 89.0093ZM270.55 90.6068C268.087 91.0546 265.373 91.29 262.394 91.29V103.29C266 103.29 269.44 103.005 272.697 102.413L270.55 90.6068ZM262.556 91.2922C259.616 91.2127 256.574 90.934 253.426 90.4498L251.601 102.31C255.213 102.866 258.758 103.194 262.231 103.288L262.556 91.2922ZM253.574 90.4744C250.489 89.9207 247.704 89.1804 245.204 88.2712L241.103 99.5488C244.323 100.72 247.779 101.626 251.454 102.286L253.574 90.4744ZM245.051 88.2179C243.393 87.6654 240.966 87.3208 238.52 88.5434L243.887 99.2766C242.482 99.9792 241.354 99.6346 241.256 99.6021L245.051 88.2179ZM238.117 88.765C236.658 89.6404 235.424 90.968 234.723 92.7217L245.864 97.1783C245.703 97.583 245.467 97.9721 245.166 98.316C244.869 98.6558 244.558 98.8947 244.29 99.055L238.117 88.765ZM234.41 93.7733C233.989 95.876 234.519 97.7273 235.187 99.0633L245.92 93.6967C246.068 93.9927 246.424 94.8907 246.177 96.1267L234.41 93.7733ZM235.187 99.0633C236.295 101.279 238.168 102.527 239.877 103.168L244.09 91.932C244.412 92.0527 245.332 92.521 245.92 93.6967L235.187 99.0633ZM239.725 103.109C242.936 104.413 246.422 105.386 250.154 106.056L252.274 94.2444C249.245 93.7008 246.577 92.94 244.242 91.9912L239.725 103.109ZM250.154 106.056C253.983 106.743 258.386 107.06 263.304 107.06V95.06C258.861 95.06 255.204 94.7703 252.274 94.2444L250.154 106.056ZM263.304 107.06C265.265 107.06 267.283 106.905 269.352 106.61L267.655 94.7303C266.084 94.9547 264.636 95.06 263.304 95.06V107.06ZM269.314 106.615C271.421 106.328 273.457 105.941 275.419 105.451L272.508 93.8091C271.003 94.1855 269.399 94.4924 267.693 94.725L269.314 106.615ZM275.442 105.445C277.758 104.856 279.437 104.616 280.579 104.588C281.81 104.558 281.867 104.787 281.441 104.536L287.546 94.2044C285.213 92.826 282.562 92.5356 280.283 92.5918C277.915 92.6503 275.283 93.1037 272.485 93.815L275.442 105.445ZM281.62 104.637C280.975 104.285 280.888 103.845 281.005 104.166C281.15 104.559 281.354 105.476 281.354 107.17H293.354C293.354 102.784 292.465 96.8833 287.367 94.1026L281.62 104.637ZM281.354 107.17C281.354 111.491 280.385 114.341 278.997 116.243L288.69 123.317C291.982 118.806 293.354 113.249 293.354 107.17H281.354ZM278.997 116.243C277.322 118.538 275.061 120.367 272.047 121.707L276.92 132.673C281.706 130.546 285.685 127.435 288.69 123.317L278.997 116.243ZM271.899 121.775C268.785 123.261 265.126 124.275 260.844 124.734L262.123 136.666C267.548 136.085 272.555 134.759 277.068 132.605L271.899 121.775ZM260.726 124.748C256.217 125.322 251.617 125.61 246.924 125.61V137.61C252.11 137.61 257.216 137.292 262.241 136.652L260.726 124.748ZM246.924 125.61C242.541 125.61 238.155 125.285 233.763 124.635L232.004 136.505C236.972 137.241 241.946 137.61 246.924 137.61V125.61ZM233.655 124.62C229.455 124.075 225.759 123.079 222.522 121.682L217.765 132.698C222.155 134.594 226.952 135.851 232.112 136.52L233.655 124.62ZM222.415 121.637C219.291 120.359 216.802 118.679 214.835 116.647L206.212 124.993C209.445 128.334 213.369 130.901 217.872 132.743L222.415 121.637ZM214.905 116.721C213.383 115.094 212.382 112.977 212.07 110.045L200.137 111.315C200.692 116.53 202.637 121.173 206.142 124.919L214.905 116.721ZM335.699 75.58L340.925 72.6321L329.699 52.7316V75.58H335.699ZM335.439 84.81L329.448 84.4946L329.444 84.5712L329.441 84.6479L335.439 84.81ZM334.399 104.31L328.419 103.825L328.419 103.825L334.399 104.31ZM333.619 113.28L339.585 113.919L339.589 113.88L339.593 113.84L333.619 113.28ZM332.059 120.04L326.441 117.933L326.427 117.97L326.414 118.008L332.059 120.04ZM328.679 125.63L324.317 121.51L324.255 121.576L324.195 121.644L328.679 125.63ZM323.479 129.27L321.172 123.732L321.029 123.791L320.891 123.857L323.479 129.27ZM309.179 129.27L311.679 123.816L311.626 123.791L311.572 123.768L309.179 129.27ZM303.979 125.63L299.495 129.616L299.555 129.684L299.617 129.75L303.979 125.63ZM300.729 120.04L306.375 118.008L306.361 117.97L306.347 117.933L300.729 120.04ZM299.169 113.28L293.202 113.906L293.203 113.919L299.169 113.28ZM299.169 36.84L293.203 36.2008L293.202 36.2141L299.169 36.84ZM300.729 30.08L306.347 32.1867L306.347 32.1867L300.729 30.08ZM303.979 24.62L299.617 20.5003L299.555 20.5661L299.495 20.6338L303.979 24.62ZM309.179 20.98L311.572 26.4824L311.626 26.4589L311.679 26.4344L309.179 20.98ZM324.389 21.24L321.621 26.5633L321.663 26.5853L321.706 26.6066L324.389 21.24ZM329.979 25.92L325.154 29.4863L325.192 29.5379L325.232 29.5887L329.979 25.92ZM337.779 38.14L332.456 40.9081L332.489 40.9723L332.524 41.0356L337.779 38.14ZM344.539 51.27L339.132 53.8698L339.142 53.8904L339.152 53.9109L344.539 51.27ZM350.909 64.66L345.462 67.1743L345.481 67.2172L345.502 67.2598L350.909 64.66ZM357.929 77.66L363.296 74.9767L363.189 74.7624L363.065 74.5573L357.929 77.66ZM358.839 78.7L356.156 84.0666L356.379 84.1782L356.611 84.2709L358.839 78.7ZM359.879 78.7L363.207 83.6923L363.346 83.5999L363.479 83.5L359.879 78.7ZM360.529 77.66L354.958 75.4317L354.754 75.9431L354.646 76.4833L360.529 77.66ZM360.269 76.1L354.903 78.7833L354.977 78.9322L355.06 79.0768L360.269 76.1ZM356.499 68.82L351.176 71.5881L351.199 71.6331L351.224 71.6777L356.499 68.82ZM352.729 61.8L346.734 61.5602L346.667 63.2328L347.476 64.6985L352.729 61.8ZM353.379 48.8L359.369 49.1594L359.369 49.1523L353.379 48.8ZM354.289 36.84L348.35 35.9915L348.331 36.1241L348.318 36.2574L354.289 36.84ZM355.979 30.08L350.441 27.7723L350.399 27.8721L350.361 27.9733L355.979 30.08ZM359.359 24.62L354.997 20.5003L354.935 20.5661L354.875 20.6338L359.359 24.62ZM364.559 20.98L366.952 26.4824L367.051 26.4394L367.148 26.3928L364.559 20.98ZM378.729 20.98L376.141 26.3928L376.279 26.4592L376.422 26.5185L378.729 20.98ZM383.929 24.62L379.445 28.6062L379.505 28.6739L379.567 28.7397L383.929 24.62ZM387.309 30.08L381.691 32.1867L381.729 32.2879L381.771 32.3877L387.309 30.08ZM389.129 36.84L395.101 36.2554L395.088 36.1231L395.069 35.9915L389.129 36.84ZM389.129 113.28L395.069 114.129L395.088 113.997L395.101 113.865L389.129 113.28ZM387.309 120.04L381.771 117.732L381.714 117.869L381.664 118.008L387.309 120.04ZM383.929 125.63L379.567 121.51L379.505 121.576L379.445 121.644L383.929 125.63ZM378.729 129.27L376.422 123.732L376.279 123.791L376.141 123.857L378.729 129.27ZM362.349 128.1L358.778 132.921L358.82 132.952L358.862 132.982L362.349 128.1ZM356.629 121.47L361.89 118.585L361.847 118.506L361.801 118.428L356.629 121.47ZM351.559 111.2L357.087 108.866L357.087 108.866L351.559 111.2ZM346.489 99.11L340.91 101.318L340.93 101.368L340.951 101.418L346.489 99.11ZM341.289 86.76L335.811 89.2076L335.811 89.2076L341.289 86.76ZM329.699 75.58C329.699 78.3204 329.616 81.2909 329.448 84.4946L341.431 85.1254C341.609 81.7425 341.699 78.5596 341.699 75.58H329.699ZM329.441 84.6479C329.356 87.8021 329.228 91.0009 329.058 94.2446L341.041 94.8754C341.217 91.5324 341.349 88.2313 341.437 84.9721L329.441 84.6479ZM329.058 94.2446C328.887 97.4828 328.674 100.676 328.419 103.825L340.38 104.795C340.644 101.53 340.865 98.2238 341.041 94.8754L329.058 94.2446ZM328.419 103.825C328.161 107.01 327.903 109.975 327.645 112.72L339.593 113.84C339.856 111.038 340.118 108.023 340.38 104.795L328.419 103.825ZM327.653 112.641C327.442 114.614 327.028 116.37 326.441 117.933L337.677 122.147C338.651 119.55 339.277 116.799 339.585 113.919L327.653 112.641ZM326.414 118.008C325.893 119.455 325.183 120.593 324.317 121.51L333.041 129.75C335.122 127.547 336.666 124.958 337.705 122.072L326.414 118.008ZM324.195 121.644C323.455 122.477 322.486 123.184 321.172 123.732L325.787 134.808C328.633 133.623 331.131 131.903 333.164 129.616L324.195 121.644ZM320.891 123.857C319.861 124.35 318.44 124.7 316.459 124.7V136.7C319.852 136.7 323.111 136.097 326.068 134.683L320.891 123.857ZM316.459 124.7C314.369 124.7 312.827 124.341 311.679 123.816L306.679 134.724C309.692 136.105 313.003 136.7 316.459 136.7V124.7ZM311.572 123.768C310.312 123.22 309.251 122.473 308.341 121.51L299.617 129.75C301.654 131.907 304.06 133.587 306.787 134.772L311.572 123.768ZM308.464 121.644C307.635 120.711 306.922 119.529 306.375 118.008L295.084 122.072C296.096 124.884 297.55 127.429 299.495 129.616L308.464 121.644ZM306.347 117.933C305.761 116.37 305.347 114.614 305.135 112.641L293.203 113.919C293.512 116.799 294.138 119.55 295.111 122.147L306.347 117.933ZM305.137 112.654C303.859 100.479 303.219 87.948 303.219 75.06H291.219C291.219 88.3454 291.879 101.295 293.202 113.906L305.137 112.654ZM303.219 75.06C303.219 62.172 303.859 49.6413 305.137 37.4659L293.202 36.2141C291.879 48.8254 291.219 61.7746 291.219 75.06H303.219ZM305.135 37.4792C305.347 35.5055 305.761 33.7502 306.347 32.1867L295.111 27.9733C294.138 30.5698 293.512 33.3211 293.203 36.2008L305.135 37.4792ZM306.347 32.1867C306.885 30.7527 307.598 29.58 308.464 28.6062L299.495 20.6338C297.587 22.78 296.134 25.2473 295.111 27.9733L306.347 32.1867ZM308.341 28.7397C309.251 27.7767 310.312 27.0303 311.572 26.4824L306.787 15.4776C304.06 16.6631 301.654 18.3433 299.617 20.5003L308.341 28.7397ZM311.679 26.4344C312.827 25.9085 314.369 25.55 316.459 25.55V13.55C313.003 13.55 309.692 14.1448 306.679 15.5256L311.679 26.4344ZM316.459 25.55C318.876 25.55 320.514 25.9875 321.621 26.5633L327.157 15.9167C323.931 14.2392 320.283 13.55 316.459 13.55V25.55ZM321.706 26.6066C323.128 27.3175 324.252 28.2663 325.154 29.4863L334.804 22.3536C332.759 19.587 330.157 17.4158 327.073 15.8734L321.706 26.6066ZM325.232 29.5887C327.957 33.1157 330.365 36.8872 332.456 40.9081L343.103 35.3719C340.687 30.7261 337.895 26.3509 334.727 22.2513L325.232 29.5887ZM332.524 41.0356C334.809 45.1821 337.012 49.46 339.132 53.8698L349.947 48.6702C347.734 44.0667 345.43 39.5912 343.034 35.2444L332.524 41.0356ZM339.152 53.9109C341.298 58.2886 343.401 62.7098 345.462 67.1743L356.357 62.1456C354.258 57.5969 352.114 53.0914 349.927 48.6291L339.152 53.9109ZM345.502 67.2598C347.749 71.9334 350.179 76.4349 352.794 80.7627L363.065 74.5573C360.653 70.5651 358.403 66.4 356.317 62.0602L345.502 67.2598ZM352.563 80.3433C353.127 81.4726 354.197 83.0868 356.156 84.0666L361.523 73.3334C362.789 73.9665 363.251 74.8874 363.296 74.9767L352.563 80.3433ZM356.611 84.2709C357.924 84.796 360.602 85.4296 363.207 83.6923L356.551 73.7077C358.637 72.3171 360.621 72.9507 361.068 73.1291L356.611 84.2709ZM363.479 83.5C365.032 82.3351 366.043 80.686 366.413 78.8367L354.646 76.4833C354.733 76.0474 354.908 75.554 355.214 75.065C355.52 74.5743 355.897 74.1868 356.279 73.9L363.479 83.5ZM366.1 79.8883C367.238 77.0448 366.27 74.5076 365.479 73.1232L355.06 79.0768C354.962 78.9057 354.168 77.4085 354.958 75.4317L366.1 79.8883ZM365.636 73.4167C364.228 70.6016 362.941 68.1144 361.775 65.9623L351.224 71.6777C352.311 73.6856 353.537 76.0517 354.903 78.7833L365.636 73.4167ZM361.823 66.0519C360.67 63.8347 359.389 61.4508 357.983 58.9015L347.476 64.6985C348.843 67.1759 350.076 69.4719 351.176 71.5881L361.823 66.0519ZM358.725 62.0398C358.896 57.7464 359.111 53.4529 359.369 49.1594L347.39 48.4406C347.128 52.8138 346.909 57.187 346.734 61.5602L358.725 62.0398ZM359.369 49.1523C359.625 44.7918 359.923 40.8837 360.261 37.4226L348.318 36.2574C347.962 39.9029 347.653 43.9682 347.39 48.4477L359.369 49.1523ZM360.229 37.6885C360.521 35.648 360.984 33.8208 361.597 32.1867L350.361 27.9733C349.414 30.4991 348.751 33.1787 348.35 35.9915L360.229 37.6885ZM361.518 32.3877C362.149 30.8728 362.933 29.6309 363.844 28.6062L354.875 20.6338C353.012 22.7291 351.543 25.1272 350.441 27.7723L361.518 32.3877ZM363.721 28.7397C364.631 27.7767 365.692 27.0303 366.952 26.4824L362.167 15.4776C359.44 16.6631 357.034 18.3433 354.997 20.5003L363.721 28.7397ZM367.148 26.3928C368.154 25.9117 369.61 25.55 371.709 25.55V13.55C368.262 13.55 364.951 14.1416 361.971 15.5672L367.148 26.3928ZM371.709 25.55C373.69 25.55 375.111 25.9004 376.141 26.3928L381.318 15.5672C378.361 14.1529 375.102 13.55 371.709 13.55V25.55ZM376.422 26.5185C377.736 27.0661 378.705 27.7734 379.445 28.6062L388.414 20.6338C386.381 18.3466 383.883 16.6272 381.037 15.4415L376.422 26.5185ZM379.567 28.7397C380.473 29.6985 381.182 30.8277 381.691 32.1867L392.927 27.9733C391.877 25.1723 390.333 22.6615 388.291 20.5003L379.567 28.7397ZM381.771 32.3877C382.426 33.9612 382.908 35.7196 383.19 37.6885L395.069 35.9915C394.657 33.107 393.925 30.3588 392.848 27.7723L381.771 32.3877ZM383.158 37.4246C384.351 49.6141 384.949 62.1587 384.949 75.06H396.949C396.949 61.7879 396.334 48.8525 395.101 36.2554L383.158 37.4246ZM384.949 75.06C384.949 87.9613 384.351 100.506 383.158 112.695L395.101 113.865C396.334 101.267 396.949 88.3321 396.949 75.06H384.949ZM383.19 112.431C382.908 114.4 382.426 116.159 381.771 117.732L392.848 122.348C393.925 119.761 394.657 117.013 395.069 114.129L383.19 112.431ZM381.664 118.008C381.143 119.455 380.433 120.593 379.567 121.51L388.291 129.75C390.372 127.547 391.916 124.958 392.955 122.072L381.664 118.008ZM379.445 121.644C378.705 122.477 377.736 123.184 376.422 123.732L381.037 134.808C383.883 133.623 386.381 131.903 388.414 129.616L379.445 121.644ZM376.141 123.857C375.111 124.35 373.69 124.7 371.709 124.7V136.7C375.102 136.7 378.361 136.097 381.318 134.683L376.141 123.857ZM371.709 124.7C368.797 124.7 366.994 124.045 365.837 123.218L358.862 132.982C362.558 135.622 366.995 136.7 371.709 136.7V124.7ZM365.921 123.279C364.313 122.088 362.969 120.552 361.89 118.585L351.368 124.355C353.236 127.761 355.705 130.645 358.778 132.921L365.921 123.279ZM361.801 118.428C360.229 115.755 358.654 112.577 357.087 108.866L346.032 113.534C347.758 117.623 349.563 121.291 351.458 124.512L361.801 118.428ZM357.087 108.866C355.444 104.975 353.758 100.954 352.028 96.8023L340.951 101.418C342.688 105.586 344.381 109.625 346.032 113.534L357.087 108.866ZM352.068 96.9017C350.39 92.6614 348.623 88.465 346.767 84.3124L335.811 89.2076C337.596 93.2017 339.296 97.2386 340.91 101.318L352.068 96.9017ZM346.767 84.3124C344.882 80.093 342.936 76.1967 340.925 72.6321L330.473 78.5279C332.276 81.7233 334.056 85.2803 335.811 89.2076L346.767 84.3124ZM429.67 92.22L435.663 91.9346L435.516 88.8496L432.92 87.1766L429.67 92.22ZM418.75 82.47L414.084 86.2423L414.128 86.2967L414.173 86.3501L418.75 82.47ZM409.91 69.08L404.582 71.8391L404.601 71.8764L404.621 71.9133L409.91 69.08ZM403.54 53.87L397.803 55.628L397.82 55.6838L397.839 55.7393L403.54 53.87ZM399.9 38.27L393.966 39.16L393.969 39.175L393.971 39.19L399.9 38.27ZM400.55 29.43L394.965 27.2361L394.965 27.2361L400.55 29.43ZM404.84 23.71L408.369 28.5624L408.44 28.5111L408.509 28.4577L404.84 23.71ZM411.47 20.59L412.878 26.4225L412.972 26.3997L413.066 26.374L411.47 20.59ZM435.26 24.49L431.128 28.84L431.154 28.8654L431.181 28.8906L435.26 24.49ZM441.37 40.35L447.364 40.0775L447.36 40L447.355 39.9225L441.37 40.35ZM441.89 46.85L435.924 47.4892L435.937 47.6096L435.955 47.7293L441.89 46.85ZM443.06 54.26L448.978 53.2736L448.978 53.2736L443.06 54.26ZM444.62 62.32L438.759 63.6022L438.763 63.6219L438.767 63.6416L444.62 62.32ZM446.7 69.99L440.988 71.8261L440.998 71.8568L441.008 71.8874L446.7 69.99ZM447.87 71.55L445.187 76.9166L445.187 76.9166L447.87 71.55ZM449.3 71.81L450.477 77.6935L450.843 77.6202L451.197 77.5021L449.3 71.81ZM450.47 70.9L445.785 67.1519L445.533 67.467L445.325 67.813L450.47 70.9ZM450.73 69.21L444.879 70.5397L444.894 70.6026L444.909 70.6652L450.73 69.21ZM448.13 55.3L442.183 56.093L442.198 56.2065L442.217 56.3194L448.13 55.3ZM447.22 47.89L453.183 47.2274L453.183 47.2274L447.22 47.89ZM446.57 41.78L440.599 42.3654L440.6 42.377L446.57 41.78ZM447.48 30.86L453.119 32.9105L453.128 32.8837L453.138 32.8569L447.48 30.86ZM452.42 23.97L455.96 28.8143L455.96 28.8143L452.42 23.97ZM460.74 20.59L461.827 26.4907L461.902 26.4769L461.976 26.4613L460.74 20.59ZM491.29 25.79L486.913 29.8936L486.934 29.9167L486.956 29.9394L491.29 25.79ZM494.67 42.95L500.518 44.2921L500.522 44.2755L500.526 44.2589L494.67 42.95ZM490.12 58.55L495.762 60.5926L495.767 60.5773L495.773 60.5619L490.12 58.55ZM483.75 72.72L478.491 69.8324L478.48 69.8507L478.471 69.8691L483.75 72.72ZM476.08 84.29L480.718 88.0959L480.718 88.0959L476.08 84.29ZM467.5 92.22L464.24 87.1826L461.728 88.808L461.515 91.7925L467.5 92.22ZM466.98 102.88L472.974 103.141L472.975 103.13L466.98 102.88ZM466.59 108.73L460.615 108.187L460.602 108.322L460.596 108.458L466.59 108.73ZM466.33 113.28L472.296 113.919L472.305 113.83L472.312 113.74L466.33 113.28ZM464.64 120.04L459.102 117.732L459.085 117.772L459.069 117.812L464.64 120.04ZM461.13 125.63L465.492 129.75L465.492 129.75L461.13 125.63ZM455.8 129.27L453.492 123.732L453.395 123.772L453.3 123.816L455.8 129.27ZM441.24 129.27L443.656 123.778L443.602 123.754L443.548 123.732L441.24 129.27ZM432.4 120.04L437.971 117.812L437.955 117.772L437.938 117.732L432.4 120.04ZM430.71 113.28L424.737 113.849L424.74 113.884L424.744 113.919L430.71 113.28ZM430.06 102.75L436.058 102.596L436.058 102.596L430.06 102.75ZM432.92 87.1766C429.576 85.0211 426.372 82.1817 423.327 78.5899L414.173 86.3501C417.888 90.7316 421.964 94.3922 426.42 97.2634L432.92 87.1766ZM423.416 78.6977C420.371 74.9316 417.63 70.785 415.199 66.2467L404.621 71.9133C407.39 77.0817 410.542 81.8617 414.084 86.2423L423.416 78.6977ZM415.238 66.3209C412.875 61.7587 410.876 56.9867 409.241 52.0007L397.839 55.7393C399.671 61.3266 401.918 66.6946 404.582 71.8391L415.238 66.3209ZM409.277 52.112C407.705 46.9849 406.561 42.0654 405.829 37.35L393.971 39.19C394.799 44.5279 396.081 50.0084 397.803 55.628L409.277 52.112ZM405.834 37.3799C405.418 34.6085 405.676 32.7902 406.135 31.6239L394.965 27.2361C393.517 30.9231 393.342 34.9982 393.966 39.16L405.834 37.3799ZM406.135 31.6239C406.716 30.1445 407.483 29.2067 408.369 28.5624L401.311 18.8576C398.384 20.9866 396.291 23.8622 394.965 27.2361L406.135 31.6239ZM408.509 28.4577C409.699 27.5381 411.125 26.8455 412.878 26.4225L410.062 14.7575C406.788 15.5478 403.795 16.9352 401.171 18.9623L408.509 28.4577ZM413.066 26.374C415.027 25.8328 417.132 25.55 419.4 25.55V13.55C416.122 13.55 412.94 13.9605 409.874 14.806L413.066 26.374ZM419.4 25.55C425.705 25.55 429.215 27.0228 431.128 28.84L439.392 20.14C434.372 15.3705 427.309 13.55 419.4 13.55V25.55ZM431.181 28.8906C433.167 30.7312 434.92 34.2646 435.385 40.7775L447.355 39.9225C446.78 31.8754 444.459 24.8354 439.339 20.0894L431.181 28.8906ZM435.376 40.6224C435.47 42.6798 435.654 44.9723 435.924 47.4892L447.856 46.2108C447.606 43.8744 447.444 41.8336 447.364 40.0775L435.376 40.6224ZM435.955 47.7293C436.307 50.1088 436.703 52.6147 437.142 55.2464L448.978 53.2736C448.55 50.7053 448.166 48.2712 447.825 45.9707L435.955 47.7293ZM437.142 55.2464C437.593 57.9527 438.132 60.7382 438.759 63.6022L450.481 61.0378C449.895 58.3552 449.394 55.7673 448.978 53.2736L437.142 55.2464ZM438.767 63.6416C439.41 66.488 440.149 69.2172 440.988 71.8261L452.412 68.1539C451.691 65.9095 451.043 63.5253 450.473 60.9984L438.767 63.6416ZM441.008 71.8874C441.56 73.5448 442.741 75.6939 445.187 76.9166L450.553 66.1834C451.959 66.8861 452.36 67.9952 452.392 68.0926L441.008 71.8874ZM445.187 76.9166C446.523 77.5845 448.374 78.114 450.477 77.6935L448.123 65.9265C449.359 65.6793 450.257 66.0355 450.553 66.1834L445.187 76.9166ZM451.197 77.5021C452.952 76.9172 454.553 75.7561 455.615 73.987L445.325 67.813C445.567 67.4093 445.896 67.03 446.299 66.7164C446.696 66.4073 447.087 66.2229 447.403 66.1179L451.197 77.5021ZM455.155 74.6481C456.997 72.3463 457.035 69.6923 456.551 67.7548L444.909 70.6652C444.85 70.4276 444.76 69.9198 444.865 69.2402C444.977 68.5133 445.284 67.7781 445.785 67.1519L455.155 74.6481ZM456.581 67.8803C456.173 66.0846 455.757 64.0123 455.337 61.6553L443.523 63.7647C443.969 66.261 444.421 68.522 444.879 70.5397L456.581 67.8803ZM455.337 61.6553C454.905 59.2407 454.474 56.7825 454.043 54.2806L442.217 56.3194C442.653 58.8441 443.088 61.3259 443.523 63.7647L455.337 61.6553ZM454.077 54.507C453.736 51.9456 453.438 49.5193 453.183 47.2274L441.257 48.5526C441.522 50.9407 441.831 53.4544 442.183 56.093L454.077 54.507ZM453.183 47.2274C452.925 44.9022 452.711 42.8884 452.54 41.183L440.6 42.377C440.776 44.1383 440.995 46.1978 441.257 48.5526L453.183 47.2274ZM452.541 41.1946C452.158 37.2888 452.493 34.6316 453.119 32.9105L441.841 28.8095C440.387 32.8084 440.115 37.4312 440.599 42.3654L452.541 41.1946ZM453.138 32.8569C453.825 30.9094 454.798 29.6632 455.96 28.8143L448.88 19.1257C445.535 21.5701 443.215 24.9173 441.822 28.8631L453.138 32.8569ZM455.96 28.8143C457.354 27.7955 459.245 26.9663 461.827 26.4907L459.653 14.6893C455.648 15.427 451.992 16.8512 448.88 19.1257L455.96 28.8143ZM461.976 26.4613C464.805 25.8658 467.981 25.55 471.53 25.55V13.55C467.279 13.55 463.262 13.9276 459.504 14.7187L461.976 26.4613ZM471.53 25.55C480.147 25.55 484.687 27.5194 486.913 29.8936L495.667 21.6864C490.093 15.7406 481.459 13.55 471.53 13.55V25.55ZM486.956 29.9394C489.017 32.0923 490.187 35.4996 488.815 41.6411L500.526 44.2589C502.446 35.6671 501.363 27.6343 495.624 21.6406L486.956 29.9394ZM488.822 41.6078C487.661 46.6675 486.209 51.6439 484.467 56.538L495.773 60.5619C497.671 55.2295 499.253 49.8058 500.518 44.2921L488.822 41.6078ZM484.478 56.5073C482.758 61.2603 480.76 65.6995 478.491 69.8324L489.009 75.6076C491.594 70.9005 493.842 65.893 495.762 60.5926L484.478 56.5073ZM478.471 69.8691C476.291 73.906 473.943 77.4357 471.442 80.4841L480.718 88.0959C483.764 84.3843 486.529 80.2007 489.029 75.5709L478.471 69.8691ZM471.442 80.4841C468.969 83.4974 466.557 85.6836 464.24 87.1826L470.76 97.2574C474.336 94.943 477.644 91.8426 480.718 88.0959L471.442 80.4841ZM461.515 91.7925C461.423 93.0778 461.334 94.6946 461.246 96.6276L473.234 97.1724C473.319 95.292 473.403 93.7888 473.485 92.6475L461.515 91.7925ZM461.246 96.6276C461.159 98.5424 461.072 100.543 460.985 102.63L472.975 103.13C473.061 101.057 473.148 99.0709 473.234 97.1724L461.246 96.6276ZM460.986 102.619C460.903 104.522 460.779 106.378 460.615 108.187L472.565 109.273C472.748 107.269 472.884 105.224 472.974 103.141L460.986 102.619ZM460.596 108.458C460.511 110.338 460.427 111.784 460.348 112.82L472.312 113.74C472.406 112.523 472.496 110.936 472.584 109.002L460.596 108.458ZM460.364 112.641C460.161 114.541 459.729 116.227 459.102 117.732L470.178 122.348C471.285 119.693 471.979 116.872 472.296 113.919L460.364 112.641ZM459.069 117.812C458.458 119.339 457.679 120.545 456.768 121.51L465.492 129.75C467.527 127.595 469.088 125.074 470.211 122.268L459.069 117.812ZM456.768 121.51C455.901 122.428 454.835 123.172 453.492 123.732L458.108 134.808C460.925 133.635 463.412 131.952 465.492 129.75L456.768 121.51ZM453.3 123.816C452.129 124.352 450.623 124.7 448.65 124.7V136.7C452.051 136.7 455.311 136.094 458.3 134.724L453.3 123.816ZM448.65 124.7C446.567 124.7 444.942 124.344 443.656 123.778L438.824 134.762C441.871 136.103 445.186 136.7 448.65 136.7V124.7ZM443.548 123.732C442.205 123.172 441.139 122.428 440.272 121.51L431.548 129.75C433.628 131.952 436.115 133.635 438.932 134.808L443.548 123.732ZM440.272 121.51C439.361 120.545 438.582 119.339 437.971 117.812L426.829 122.268C427.952 125.074 429.513 127.595 431.548 129.75L440.272 121.51ZM437.938 117.732C437.311 116.227 436.879 114.541 436.676 112.641L424.744 113.919C425.061 116.872 425.755 119.693 426.862 122.348L437.938 117.732ZM436.683 112.711C436.348 109.198 436.141 105.827 436.058 102.596L424.062 102.904C424.152 106.433 424.378 110.082 424.737 113.849L436.683 112.711ZM436.058 102.596C435.97 99.1691 435.838 95.6151 435.663 91.9346L423.677 92.5054C423.848 96.1049 423.977 99.5709 424.062 102.904L436.058 102.596ZM615.497 74.28L617.329 68.5667L615.104 67.853L612.983 68.8322L615.497 74.28ZM625.507 82.99L620.098 85.5864L620.119 85.63L620.14 85.6733L625.507 82.99ZM626.287 113.15L631.707 115.724L631.719 115.699L631.731 115.673L626.287 113.15ZM619.267 121.99L615.519 117.305L615.485 117.331L615.453 117.358L619.267 121.99ZM608.477 127.71L606.614 122.006L606.562 122.023L606.51 122.041L608.477 127.71ZM594.307 130.83L594.914 136.799L594.958 136.795L595.002 136.79L594.307 130.83ZM566.357 131.22L566.765 125.234L566.697 125.229L566.629 125.226L566.357 131.22ZM555.567 130.44L554.928 136.406L554.941 136.407L554.955 136.409L555.567 130.44ZM548.287 128.36L545.684 133.766L545.722 133.784L545.76 133.802L548.287 128.36ZM541.917 123.81L546.16 119.567L546.16 119.567L541.917 123.81ZM537.107 116.92L531.639 119.39L531.671 119.462L531.706 119.533L537.107 116.92ZM534.897 107.82L528.908 108.189L528.911 108.234L528.915 108.28L534.897 107.82ZM533.987 75.06L527.988 74.9616L527.987 74.9862L527.987 75.0108L533.987 75.06ZM535.027 42.04L529.034 41.7404L529.034 41.754L529.033 41.7676L535.027 42.04ZM537.107 32.81L531.706 30.1966L531.671 30.2681L531.639 30.3405L537.107 32.81ZM548.287 21.5L550.724 26.9829L550.769 26.9628L550.814 26.9421L548.287 21.5ZM555.567 19.42L554.939 13.453L554.928 13.4541L555.567 19.42ZM566.097 18.64L566.376 24.6335L566.44 24.6305L566.505 24.6261L566.097 18.64ZM577.667 18.25V24.25H577.754L577.841 24.2475L577.667 18.25ZM594.307 19.03L593.501 24.9756L593.605 24.9897L593.71 25.0002L594.307 19.03ZM608.217 21.63L606.504 27.3803L606.561 27.3971L606.617 27.4129L608.217 21.63ZM624.727 35.54L619.12 37.676L619.151 37.7575L619.184 37.8381L624.727 35.54ZM625.767 57.77L631.555 59.3487L631.561 59.3271L631.567 59.3054L625.767 57.77ZM621.737 65.44L617.157 61.5643L617.15 61.5726L617.143 61.5808L621.737 65.44ZM614.197 70.77L616.505 76.3085L616.542 76.293L616.578 76.2771L614.197 70.77ZM601.327 73.37L606.127 76.97L606.313 76.7224L606.472 76.4569L601.327 73.37ZM601.327 76.1L596.182 79.187L596.341 79.4524L596.527 79.7L601.327 76.1ZM608.607 76.23L607.944 70.2667L607.932 70.2681L607.919 70.2695L608.607 76.23ZM569.087 55.3L572.008 50.0591L571.891 49.9936L571.77 49.9334L569.087 55.3ZM586.247 58.68L585.584 52.7167L585.575 52.7177L586.247 58.68ZM587.937 57.77L582.945 54.4418L582.945 54.4418L587.937 57.77ZM587.937 54.52L582.792 57.607L583 57.953L583.252 58.2682L587.937 54.52ZM586.767 53.87V47.87H586.609L586.452 47.8783L586.767 53.87ZM578.057 53.48L576.841 59.3556L576.939 59.3758L577.037 59.3928L578.057 53.48ZM570.127 50.88L567.444 56.2466L567.581 56.3153L567.722 56.3769L570.127 50.88ZM568.697 51.01L571.784 56.155L572.13 55.9473L572.445 55.6952L568.697 51.01ZM567.787 52.18L573.479 54.0774L573.479 54.0774L567.787 52.18ZM567.787 53.87L573.556 52.2217L573.556 52.2217L567.787 53.87ZM569.087 93.52L572.008 88.2791L571.89 88.2136L571.77 88.1534L569.087 93.52ZM586.247 96.9L585.584 90.9367L585.575 90.9377L586.247 96.9ZM587.937 95.99L582.945 92.6618L582.945 92.6618L587.937 95.99ZM587.937 92.74L582.792 95.827L583 96.173L583.252 96.4882L587.937 92.74ZM586.767 92.09V86.09H586.609L586.452 86.0983L586.767 92.09ZM578.057 91.57L576.841 97.4456L576.841 97.4456L578.057 91.57ZM570.127 88.97L567.444 94.3366L567.581 94.4053L567.722 94.4669L570.127 88.97ZM568.697 89.1L571.784 94.245L572.13 94.0373L572.445 93.7852L568.697 89.1ZM567.787 90.27L562.095 88.3726L562.095 88.3726L567.787 90.27ZM567.787 92.09L561.966 93.5452L561.99 93.6422L562.018 93.7383L567.787 92.09ZM613.664 79.9933C616.694 80.9652 618.734 82.7453 620.098 85.5864L630.916 80.3936C628.12 74.5681 623.486 70.5415 617.329 68.5667L613.664 79.9933ZM620.14 85.6733C621.722 88.8373 622.757 93.7239 622.757 100.8H634.757C634.757 92.7961 633.625 85.8094 630.873 80.3067L620.14 85.6733ZM622.757 100.8C622.757 104.776 622.059 108.004 620.843 110.627L631.731 115.673C633.808 111.19 634.757 106.184 634.757 100.8H622.757ZM620.867 110.576C619.615 113.211 617.851 115.439 615.519 117.305L623.015 126.675C626.749 123.688 629.665 120.022 631.707 115.724L620.867 110.576ZM615.453 117.358C613.173 119.235 610.268 120.813 606.614 122.006L610.339 133.414C615.179 131.833 619.467 129.598 623.081 126.622L615.453 117.358ZM606.51 122.041C602.736 123.351 598.448 124.306 593.612 124.87L595.002 136.79C600.566 136.14 605.724 135.016 610.444 133.379L606.51 122.041ZM593.7 124.861C588.812 125.358 583.556 125.61 577.927 125.61V137.61C583.911 137.61 589.575 137.342 594.914 136.799L593.7 124.861ZM577.927 125.61C574.16 125.61 570.44 125.484 566.765 125.234L565.949 137.206C569.901 137.476 573.893 137.61 577.927 137.61V125.61ZM566.629 125.226C562.916 125.057 559.433 124.805 556.179 124.471L554.955 136.409C558.46 136.768 562.171 137.036 566.084 137.214L566.629 125.226ZM556.206 124.474C554.493 124.291 552.701 123.794 550.814 122.918L545.76 133.802C548.726 135.179 551.788 136.069 554.928 136.406L556.206 124.474ZM550.89 122.954C549.181 122.131 547.607 121.015 546.16 119.567L537.674 128.053C540.04 130.418 542.713 132.335 545.684 133.766L550.89 122.954ZM546.16 119.567C544.775 118.183 543.547 116.453 542.508 114.307L531.706 119.533C533.267 122.76 535.245 125.624 537.674 128.053L546.16 119.567ZM542.575 114.45C541.688 112.486 541.094 110.148 540.879 107.36L528.915 108.28C529.22 112.252 530.099 115.981 531.639 119.39L542.575 114.45ZM540.886 107.451C540.2 96.3146 539.901 85.5342 539.987 75.1092L527.987 75.0108C527.899 85.7324 528.207 96.792 528.908 108.189L540.886 107.451ZM539.986 75.1583C540.158 64.6476 540.503 53.6992 541.021 42.3124L529.033 41.7676C528.511 53.2608 528.162 64.3257 527.988 74.9616L539.986 75.1583ZM541.019 42.3396C541.162 39.4921 541.72 37.1722 542.575 35.2795L531.639 30.3405C530.067 33.8211 529.239 37.6545 529.034 41.7404L541.019 42.3396ZM542.508 35.4234C543.547 33.2766 544.775 31.5469 546.16 30.1626L537.674 21.6774C535.245 24.1064 533.267 26.9701 531.706 30.1966L542.508 35.4234ZM546.16 30.1626C547.573 28.7488 549.092 27.7081 550.724 26.9829L545.85 16.0171C542.802 17.3719 540.074 19.2779 537.674 21.6774L546.16 30.1626ZM550.814 26.9421C552.701 26.0657 554.493 25.5694 556.206 25.3859L554.928 13.4541C551.788 13.7906 548.726 14.681 545.76 16.0579L550.814 26.9421ZM556.195 25.387C559.359 25.054 562.751 24.8021 566.376 24.6335L565.818 12.6465C561.989 12.8246 558.362 13.0927 554.939 13.453L556.195 25.387ZM566.505 24.6261C570.18 24.3755 573.9 24.25 577.667 24.25V12.25C573.633 12.25 569.641 12.3844 565.689 12.6539L566.505 24.6261ZM577.841 24.2475C583.544 24.0822 588.758 24.3326 593.501 24.9756L595.113 13.0844C589.629 12.3408 583.75 12.0711 577.493 12.2525L577.841 24.2475ZM593.71 25.0002C598.614 25.4907 602.866 26.2968 606.504 27.3803L609.93 15.8797C605.421 14.5366 600.4 13.6093 594.904 13.0598L593.71 25.0002ZM606.617 27.4129C610.036 28.3586 612.679 29.7119 614.703 31.3567L622.27 22.0433C618.748 19.1815 614.544 17.1547 609.816 15.8471L606.617 27.4129ZM614.703 31.3567C616.585 32.8856 618.074 34.9305 619.12 37.676L630.334 33.404C628.606 28.8695 625.935 25.0211 622.27 22.0433L614.703 31.3567ZM619.184 37.8381C620.265 40.4451 620.937 44.0259 620.937 48.8H632.937C632.937 43.0008 632.135 37.7415 630.269 33.2419L619.184 37.8381ZM620.937 48.8C620.937 51.3125 620.615 53.7865 619.967 56.2346L631.567 59.3054C632.479 55.8602 632.937 52.3542 632.937 48.8H620.937ZM619.978 56.1913C619.428 58.2104 618.495 59.9823 617.157 61.5643L626.317 69.3156C628.792 66.391 630.546 63.0496 631.555 59.3487L619.978 56.1913ZM617.143 61.5808C616.046 62.8858 614.363 64.161 611.815 65.2629L616.578 76.2771C620.444 74.6057 623.787 72.3275 626.331 69.2992L617.143 61.5808ZM611.889 65.2315C609.724 66.1338 606.669 66.72 602.497 66.72V78.72C607.685 78.72 612.43 78.0061 616.505 76.3085L611.889 65.2315ZM602.497 66.72C599.944 66.72 597.564 67.9791 596.182 70.2831L606.472 76.4569C606.134 77.0209 605.57 77.6597 604.728 78.1274C603.894 78.5908 603.087 78.72 602.497 78.72V66.72ZM596.527 69.77C595.342 71.3503 594.937 73.1188 594.937 74.67H606.937C606.937 75.1812 606.792 76.0831 606.127 76.97L596.527 69.77ZM594.937 74.67C594.937 76.2444 595.346 77.7932 596.182 79.187L606.472 73.013C606.788 73.5401 606.937 74.1356 606.937 74.67H594.937ZM596.527 79.7C598.153 81.8676 600.513 82.62 602.497 82.62V70.62C602.897 70.62 603.531 70.6869 604.251 71.0071C605.007 71.3429 605.653 71.8676 606.127 72.5L596.527 79.7ZM602.497 82.62C604.594 82.62 606.866 82.4707 609.295 82.1904L607.919 70.2695C605.841 70.5093 604.039 70.62 602.497 70.62V82.62ZM609.269 82.1933C612.284 81.8583 615.204 81.0233 618.011 79.7278L612.983 68.8322C611.283 69.6167 609.609 70.0817 607.944 70.2667L609.269 82.1933ZM566.166 60.5409C572.572 64.1117 579.553 65.4723 586.919 64.6423L585.575 52.7177C580.635 53.2744 576.175 52.3816 572.008 50.0591L566.166 60.5409ZM586.909 64.6433C588.962 64.4152 591.356 63.4585 592.929 61.0982L582.945 54.4418C583.33 53.8643 583.848 53.4073 584.41 53.1047C584.94 52.8194 585.378 52.7396 585.584 52.7167L586.909 64.6433ZM592.929 61.0982C593.912 59.6241 594.457 57.9085 594.457 56.08H582.457C582.457 55.8029 582.498 55.4996 582.592 55.193C582.686 54.8878 582.816 54.6353 582.945 54.4418L592.929 61.0982ZM594.457 56.08C594.457 54.2463 593.901 52.3701 592.622 50.7718L583.252 58.2682C582.988 57.9391 582.775 57.5523 582.635 57.1324C582.497 56.7189 582.457 56.3532 582.457 56.08H594.457ZM593.082 51.433C591.7 49.1292 589.32 47.87 586.767 47.87V59.87C586.177 59.87 585.369 59.7407 584.536 59.2774C583.694 58.8097 583.13 58.1709 582.792 57.607L593.082 51.433ZM586.452 47.8783C583.482 48.0346 581.043 47.9063 579.076 47.5672L577.037 59.3928C580.098 59.9204 583.465 60.0521 587.082 59.8617L586.452 47.8783ZM579.273 47.6044C577.233 47.1824 574.989 46.4581 572.532 45.383L567.722 56.3769C570.811 57.7286 573.854 58.7376 576.841 59.3556L579.273 47.6044ZM572.81 45.5134C571.767 44.9919 570.403 44.5997 568.836 44.7421C567.248 44.8865 565.934 45.5366 564.949 46.3248L572.445 55.6952C571.893 56.1368 571.034 56.5918 569.923 56.6929C568.833 56.792 567.967 56.5081 567.444 56.2466L572.81 45.5134ZM565.61 45.865C563.841 46.9265 562.68 48.5279 562.095 50.2826L573.479 54.0774C573.374 54.3925 573.19 54.7838 572.88 55.1811C572.567 55.5843 572.188 55.9127 571.784 56.155L565.61 45.865ZM562.095 50.2826C561.484 52.1163 561.564 53.9301 562.018 55.5183L573.556 52.2217C573.663 52.5966 573.744 53.2837 573.479 54.0774L562.095 50.2826ZM562.018 55.5183C562.756 58.1015 564.576 59.753 566.404 60.6666L571.77 49.9334C571.955 50.0258 572.31 50.2377 572.682 50.6465C573.072 51.0763 573.384 51.6183 573.556 52.2217L562.018 55.5183ZM566.166 98.7609C572.572 102.332 579.553 103.692 586.919 102.862L585.575 90.9377C580.635 91.4944 576.175 90.6016 572.008 88.2791L566.166 98.7609ZM586.909 102.863C588.962 102.635 591.356 101.678 592.929 99.3182L582.945 92.6618C583.33 92.0843 583.848 91.6273 584.41 91.3247C584.94 91.0394 585.378 90.9596 585.584 90.9367L586.909 102.863ZM592.929 99.3182C593.912 97.8441 594.457 96.1285 594.457 94.3H582.457C582.457 94.0229 582.498 93.7196 582.592 93.413C582.686 93.1078 582.816 92.8553 582.945 92.6618L592.929 99.3182ZM594.457 94.3C594.457 92.4663 593.901 90.5901 592.622 88.9918L583.252 96.4882C582.988 96.1591 582.775 95.7723 582.635 95.3524C582.497 94.9389 582.457 94.5732 582.457 94.3H594.457ZM593.082 89.653C591.7 87.3492 589.32 86.09 586.767 86.09V98.09C586.177 98.09 585.369 97.9607 584.536 97.4974C583.694 97.0297 583.13 96.3909 582.792 95.827L593.082 89.653ZM586.452 86.0983C583.534 86.2519 581.163 86.0857 579.273 85.6944L576.841 97.4456C579.977 98.0943 583.413 98.2748 587.082 98.0817L586.452 86.0983ZM579.273 85.6944C577.233 85.2724 574.989 84.5481 572.532 83.4731L567.722 94.4669C570.811 95.8186 573.854 96.8276 576.841 97.4456L579.273 85.6944ZM572.81 83.6034C571.767 83.0819 570.403 82.6897 568.836 82.8321C567.248 82.9765 565.934 83.6265 564.949 84.4148L572.445 93.7852C571.893 94.2268 571.034 94.6818 569.923 94.7829C568.832 94.882 567.967 94.5981 567.444 94.3366L572.81 83.6034ZM565.61 83.955C563.841 85.0165 562.68 86.6179 562.095 88.3726L573.479 92.1674C573.374 92.4825 573.19 92.8738 572.88 93.2711C572.567 93.6743 572.188 94.0027 571.784 94.245L565.61 83.955ZM562.095 88.3726C561.466 90.2585 561.599 92.0755 561.966 93.5452L573.608 90.6348C573.628 90.7178 573.761 91.3215 573.479 92.1674L562.095 88.3726ZM562.018 93.7383C562.756 96.3215 564.576 97.973 566.404 98.8866L571.77 88.1534C571.955 88.2458 572.31 88.4577 572.682 88.8665C573.072 89.2963 573.384 89.8383 573.556 90.4417L562.018 93.7383ZM664.497 127.58L666.789 122.035L666.757 122.022L666.725 122.009L664.497 127.58ZM648.377 116.4L643.787 120.265L643.824 120.308L643.861 120.351L648.377 116.4ZM639.017 98.59L633.245 100.229L633.257 100.272L633.27 100.314L639.017 98.59ZM638.757 51.4L644.56 52.9234L644.562 52.9146L644.565 52.9058L638.757 51.4ZM647.597 33.59L652.193 37.4472L652.209 37.4272L652.226 37.4071L647.597 33.59ZM663.587 22.28L665.79 27.8609L665.821 27.8484L665.853 27.8356L663.587 22.28ZM711.947 22.28L709.681 27.8356L709.712 27.8484L709.744 27.8609L711.947 22.28ZM727.937 33.59L723.307 37.4071L723.324 37.4272L723.341 37.4472L727.937 33.59ZM736.777 51.4L730.969 52.9058L730.971 52.9146L730.973 52.9234L736.777 51.4ZM736.387 98.59L730.634 96.8855L730.627 96.9088L730.62 96.9322L736.387 98.59ZM727.027 116.4L722.477 112.489L722.471 112.495L727.027 116.4ZM710.907 127.58L708.704 121.999L708.659 122.017L708.615 122.035L710.907 127.58ZM683.087 83.38L687.772 87.1282L688.212 86.5785L688.512 85.942L683.087 83.38ZM682.957 84.68L688.102 81.593L688.102 81.593L682.957 84.68ZM684.127 85.59L682.229 91.2821L682.229 91.2821L684.127 85.59ZM685.817 85.72L685.073 79.7663L685.02 79.7729L684.968 79.7803L685.817 85.72ZM687.507 84.81L692.116 88.6511L692.277 88.4574L692.422 88.2508L687.507 84.81ZM691.147 75.97L685.246 74.883L685.246 74.883L691.147 75.97ZM692.187 66.09L698.185 66.2478L698.187 66.1689V66.09H692.187ZM689.977 63.88L688.99 69.7984L689.48 69.88H689.977V63.88ZM688.417 64.14L691.1 69.5066L691.1 69.5066L688.417 64.14ZM687.637 65.31L693.628 65.6338L693.637 65.472V65.31H687.637ZM686.337 74.41L692.168 75.8236L692.168 75.8236L686.337 74.41ZM687.767 125.61C679.328 125.61 672.389 124.35 666.789 122.035L662.205 133.125C669.605 136.184 678.179 137.61 687.767 137.61V125.61ZM666.725 122.009C661.028 119.73 656.463 116.53 652.892 112.449L643.861 120.351C648.784 125.977 654.966 130.23 662.268 133.151L666.725 122.009ZM652.966 112.535C649.395 108.294 646.637 103.109 644.764 96.8659L633.27 100.314C635.557 107.938 639.039 114.626 643.787 120.265L652.966 112.535ZM644.789 96.9511C642.973 90.5579 642.027 83.2357 642.027 74.93H630.027C630.027 84.1309 631.074 92.5821 633.245 100.229L644.789 96.9511ZM642.027 74.93C642.027 66.582 642.896 59.2642 644.56 52.9234L632.953 49.8766C630.978 57.4025 630.027 65.7713 630.027 74.93H642.027ZM644.565 52.9058C646.193 46.625 648.771 41.5242 652.193 37.4472L643.001 29.7328C638.276 35.3625 634.96 42.135 632.949 49.8942L644.565 52.9058ZM652.226 37.4071C655.586 33.3317 660.046 30.1283 665.79 27.8609L661.384 16.6991C653.954 19.6317 647.754 23.9683 642.967 29.7729L652.226 37.4071ZM665.853 27.8356C671.521 25.5238 678.761 24.25 687.767 24.25V12.25C677.706 12.25 668.826 13.6629 661.321 16.7244L665.853 27.8356ZM687.767 24.25C696.772 24.25 704.013 25.5238 709.681 27.8356L714.213 16.7244C706.707 13.6629 697.828 12.25 687.767 12.25V24.25ZM709.744 27.8609C715.488 30.1283 719.947 33.3317 723.307 37.4071L732.566 29.7729C727.78 23.9683 721.579 19.6317 714.15 16.6991L709.744 27.8609ZM723.341 37.4472C726.763 41.5242 729.34 46.625 730.969 52.9058L742.585 49.8942C740.573 42.135 737.257 35.3624 732.533 29.7328L723.341 37.4472ZM730.973 52.9234C732.638 59.2642 733.507 66.582 733.507 74.93H745.507C745.507 65.7713 744.556 57.4025 742.58 49.8766L730.973 52.9234ZM733.507 74.93C733.507 83.2153 732.522 90.5144 730.634 96.8855L742.14 100.295C744.412 92.6256 745.507 84.1514 745.507 74.93H733.507ZM730.62 96.9322C728.84 103.125 726.103 108.271 722.477 112.489L731.577 120.311C736.444 114.649 739.947 107.921 742.153 100.248L730.62 96.9322ZM722.471 112.495C719.013 116.529 714.481 119.719 708.704 121.999L713.11 133.161C720.506 130.241 726.72 125.977 731.582 120.305L722.471 112.495ZM708.615 122.035C703.009 124.352 696.11 125.61 687.767 125.61V137.61C697.276 137.61 705.805 136.181 713.199 133.125L708.615 122.035ZM678.402 79.6318C677.702 80.5067 676.989 81.7859 676.824 83.433C676.654 85.1331 677.128 86.6275 677.812 87.767L688.102 81.593C688.525 82.2992 688.891 83.3602 688.764 84.627C688.643 85.8408 688.125 86.6867 687.772 87.1282L678.402 79.6318ZM677.812 87.767C678.873 89.5361 680.475 90.6972 682.229 91.2821L686.024 79.8979C686.339 80.0029 686.73 80.1873 687.128 80.4964C687.531 80.81 687.859 81.1893 688.102 81.593L677.812 87.767ZM682.229 91.2821C683.733 91.7832 685.246 91.8624 686.665 91.6597L684.968 79.7803C685.174 79.751 685.561 79.7434 686.024 79.8979L682.229 91.2821ZM686.561 91.6737C688.71 91.405 690.675 90.3809 692.116 88.6511L682.897 80.9689C683.143 80.6746 683.483 80.3772 683.915 80.1447C684.343 79.9138 684.752 79.8065 685.073 79.7663L686.561 91.6737ZM692.422 88.2508C694.763 84.9073 696.294 81.1488 697.047 77.057L685.246 74.883C684.786 77.3778 683.891 79.5127 682.591 81.3692L692.422 88.2508ZM697.047 77.057C697.71 73.462 698.09 69.858 698.185 66.2478L686.189 65.9322C686.11 68.9086 685.797 71.8913 685.246 74.883L697.047 77.057ZM698.187 66.09C698.187 64.2645 697.654 61.6102 695.285 59.7148L687.789 69.0852C687.102 68.5363 686.663 67.858 686.424 67.2364C686.203 66.6624 686.187 66.2315 686.187 66.09H698.187ZM695.285 59.7148C693.687 58.4361 691.81 57.88 689.977 57.88V69.88C689.704 69.88 689.338 69.8399 688.924 69.7021C688.504 69.5621 688.118 69.3484 687.789 69.0852L695.285 59.7148ZM690.963 57.9616C689.064 57.6451 687.265 58.0076 685.733 58.7734L691.1 69.5066C690.88 69.6168 690.57 69.7338 690.183 69.7984C689.79 69.8639 689.383 69.8639 688.99 69.7984L690.963 57.9616ZM685.733 58.7734C684.762 59.2593 683.672 60.0499 682.839 61.2993C681.981 62.5863 681.637 64.0001 681.637 65.31H693.637C693.637 66.0999 693.422 67.0587 692.824 67.9557C692.251 68.8151 691.552 69.2807 691.1 69.5066L685.733 58.7734ZM681.645 64.9861C681.49 67.8584 681.105 70.5247 680.506 72.9964L692.168 75.8236C692.955 72.5753 693.437 69.1749 693.628 65.6338L681.645 64.9861ZM680.506 72.9964C679.923 75.4 678.99 78.0048 677.661 80.818L688.512 85.942C690.13 82.5152 691.364 79.14 692.168 75.8236L680.506 72.9964ZM836.56 102.75L841.402 99.2069L841.372 99.1656L841.341 99.1248L836.56 102.75ZM839.29 114.45L833.389 113.366L833.378 113.425L833.368 113.483L839.29 114.45ZM832.79 125.63L836.6 130.265L836.679 130.2L836.756 130.132L832.79 125.63ZM820.44 130.57L820.32 124.571L820.317 124.571L820.44 130.57ZM809.52 126.15L813.762 121.907L813.762 121.907L809.52 126.15ZM804.97 121.34L809.419 117.315L809.37 117.26L809.32 117.208L804.97 121.34ZM800.03 116.01L795.386 119.809L795.481 119.925L795.581 120.035L800.03 116.01ZM795.48 110.42L800.143 106.645L800.143 106.645L795.48 110.42ZM791.71 105.48L796.612 102.02L791.715 95.0827L786.811 102.015L791.71 105.48ZM783.26 116.14L787.72 120.154L787.744 120.126L787.768 120.099L783.26 116.14ZM773.9 126.15L778.142 130.393L778.172 130.364L778.2 130.334L773.9 126.15ZM762.85 130.57L762.97 124.571L762.97 124.571L762.85 130.57ZM750.63 125.63L746.725 130.186L746.747 130.204L746.768 130.222L750.63 125.63ZM746.21 120.3L751.433 117.348L751.405 117.297L751.375 117.248L746.21 120.3ZM744 114.45L738.081 115.436L738.085 115.457L738.089 115.478L744 114.45ZM744.13 108.34L738.324 106.825L738.293 106.945L738.267 107.065L744.13 108.34ZM746.99 102.75L751.675 106.498L751.738 106.419L751.799 106.338L746.99 102.75ZM759.08 86.37L754.271 82.7822L754.252 82.8069L754.234 82.8318L759.08 86.37ZM771.82 70.38L767.304 66.429L767.276 66.4613L767.248 66.4941L771.82 70.38ZM772.6 68.43L766.646 69.1742L766.653 69.2264L766.66 69.2785L772.6 68.43ZM771.82 66.87L767.577 71.1126L767.812 71.3476L768.072 71.5552L771.82 66.87ZM770.26 66.22L769.411 72.1597L769.833 72.22H770.26V66.22ZM768.57 66.87L764.327 62.6274L764.169 62.7854L764.023 62.9549L768.57 66.87ZM764.54 71.55L759.719 75.1214L764.187 81.1544L769.086 75.4651L764.54 71.55ZM754.79 58.29L749.942 61.825L749.942 61.825L754.79 58.29ZM746.6 46.72L751.555 43.3362L751.519 43.284L751.482 43.2326L746.6 46.72ZM744 41L738.089 42.028L738.11 42.1518L738.137 42.2746L744 41ZM744.13 35.02L749.993 36.2946L744.13 35.02ZM746.47 29.3L741.408 26.0787L741.388 26.1102L741.368 26.1419L746.47 29.3ZM751.28 24.1L754.978 28.825L754.996 28.8104L755.015 28.7956L751.28 24.1ZM763.37 19.68L763.247 25.6787L763.309 25.68H763.37V19.68ZM774.42 24.49L778.914 20.5146L778.847 20.4395L778.779 20.3668L774.42 24.49ZM782.35 33.85L777.724 37.6713L777.769 37.726L777.816 37.7796L782.35 33.85ZM792.36 46.2L787.583 49.8305L792.651 56.4991L797.334 49.5548L792.36 46.2ZM800.42 35.02L805.18 38.6729L805.2 38.6466L805.22 38.62L800.42 35.02ZM809.13 24.49L804.771 20.3668L804.741 20.3983L804.712 20.4302L809.13 24.49ZM819.92 19.68V25.68H819.981L820.042 25.6787L819.92 19.68ZM832.14 24.1L835.939 19.4563L835.882 19.4094L835.823 19.3639L832.14 24.1ZM836.82 29.3L831.758 32.5212L831.792 32.5751L831.828 32.6282L836.82 29.3ZM839.29 35.02L833.427 36.2946L833.427 36.2946L839.29 35.02ZM839.29 41L833.427 39.7254L833.4 39.8482L833.379 39.972L839.29 41ZM836.82 46.72L831.937 43.2326L831.933 43.2389L836.82 46.72ZM823.82 65.05L818.918 61.5899L818.913 61.5971L818.908 61.6043L823.82 65.05ZM810.3 82.86L814.855 86.7647L814.905 86.7073L814.952 86.6486L810.3 82.86ZM809.52 84.68H803.52V85.1766L803.601 85.6664L809.52 84.68ZM810.17 85.98L805.927 90.2226L806.162 90.4576L806.422 90.6652L810.17 85.98ZM813.29 85.72L817.532 89.9626L817.762 89.7327L817.966 89.4793L813.29 85.72ZM818.62 79.09L823.401 75.4648L818.758 69.3418L813.944 75.3307L818.62 79.09ZM831.718 106.293C833.365 108.545 833.864 110.778 833.389 113.366L845.191 115.534C846.276 109.629 844.954 104.062 841.402 99.2069L831.718 106.293ZM833.368 113.483C832.927 116.187 831.563 118.714 828.824 121.128L836.756 130.132C841.296 126.132 844.266 121.207 845.211 115.417L833.368 113.483ZM828.979 120.995C825.942 123.493 823.089 124.516 820.32 124.571L820.56 136.569C826.457 136.451 831.838 134.18 836.6 130.265L828.979 120.995ZM820.317 124.571C817.722 124.624 815.654 123.798 813.762 121.907L805.277 130.393C809.453 134.568 814.664 136.689 820.562 136.569L820.317 124.571ZM813.762 121.907C812.461 120.606 811.015 119.078 809.419 117.315L800.521 125.365C802.219 127.242 803.805 128.92 805.277 130.393L813.762 121.907ZM809.32 117.208C807.708 115.51 806.094 113.769 804.479 111.985L795.581 120.035C797.259 121.891 798.939 123.703 800.62 125.472L809.32 117.208ZM804.674 112.211C803.12 110.312 801.61 108.456 800.143 106.645L790.816 114.195C792.297 116.024 793.82 117.895 795.386 119.809L804.674 112.211ZM800.143 106.645C798.73 104.899 797.557 103.359 796.612 102.02L786.808 108.94C787.942 110.547 789.283 112.301 790.816 114.195L800.143 106.645ZM786.811 102.015C784.429 105.383 781.744 108.772 778.751 112.181L787.768 120.099C791.015 116.401 793.964 112.683 796.608 108.945L786.811 102.015ZM778.8 112.126C775.73 115.537 772.663 118.817 769.599 121.966L778.2 130.334C781.377 127.069 784.55 123.676 787.72 120.154L778.8 112.126ZM769.657 121.907C767.792 123.773 765.69 124.626 762.97 124.571L762.73 136.569C768.677 136.688 773.941 134.594 778.142 130.393L769.657 121.907ZM762.97 124.571C760.209 124.516 757.42 123.501 754.491 121.038L746.768 130.222C751.466 134.173 756.824 136.451 762.73 136.569L762.97 124.571ZM754.535 121.074C753.219 119.947 752.201 118.706 751.433 117.348L740.986 123.252C742.472 125.881 744.401 128.193 746.725 130.186L754.535 121.074ZM751.375 117.248C750.583 115.906 750.122 114.636 749.911 113.422L738.089 115.478C738.571 118.25 739.584 120.881 741.044 123.352L751.375 117.248ZM749.918 113.464C749.692 112.108 749.727 110.839 749.993 109.615L738.267 107.065C737.666 109.827 737.614 112.632 738.081 115.436L749.918 113.464ZM749.936 109.855C750.227 108.738 750.773 107.626 751.675 106.498L742.305 99.0018C740.433 101.341 739.073 103.955 738.324 106.825L749.936 109.855ZM751.799 106.338C755.885 100.861 759.927 95.3849 763.926 89.9082L754.234 82.8318C750.26 88.2751 746.242 93.7186 742.181 99.1622L751.799 106.338ZM763.889 89.9578C767.886 84.5998 772.054 79.3692 776.391 74.2659L767.248 66.4941C762.746 71.7908 758.42 77.2202 754.271 82.7822L763.889 89.9578ZM776.335 74.331C777.507 72.9917 778.976 70.6397 778.54 67.5815L766.66 69.2785C766.535 68.4009 766.695 67.6537 766.899 67.1442C767.086 66.6758 767.294 66.4408 767.304 66.429L776.335 74.331ZM778.554 67.6858C778.326 65.8633 777.518 63.7444 775.568 62.1848L768.072 71.5552C767.578 71.1603 767.213 70.6819 766.973 70.2033C766.745 69.7461 766.671 69.3703 766.646 69.1742L778.554 67.6858ZM776.062 62.6274C774.517 61.0816 772.476 60.22 770.26 60.22V72.22C769.833 72.22 769.323 72.1401 768.797 71.921C768.272 71.7023 767.866 71.4011 767.577 71.1126L776.062 62.6274ZM771.108 60.2803C768.248 59.8717 765.882 61.0722 764.327 62.6274L772.812 71.1126C772.606 71.3195 772.19 71.6662 771.536 71.9176C770.847 72.1826 770.105 72.2588 769.411 72.1597L771.108 60.2803ZM764.023 62.9549L759.993 67.6349L769.086 75.4651L773.116 70.7851L764.023 62.9549ZM769.361 67.9786C765.902 63.3092 762.661 58.9014 759.638 54.755L749.942 61.825C752.985 65.9986 756.244 70.4308 759.719 75.1214L769.361 67.9786ZM759.638 54.755C756.634 50.6355 753.941 46.8299 751.555 43.3362L741.645 50.1038C744.112 53.7168 746.879 57.6245 749.942 61.825L759.638 54.755ZM751.482 43.2326C750.61 42.0115 750.107 40.8483 749.863 39.7254L738.137 42.2746C738.759 45.1383 739.99 47.7885 741.717 50.2074L751.482 43.2326ZM749.911 39.9719C749.698 38.7485 749.723 37.5371 749.993 36.2946L738.267 33.7454C737.67 36.4896 737.608 39.2648 738.089 42.028L749.911 39.9719ZM749.993 36.2946C750.274 35.0002 750.786 33.727 751.571 32.4581L741.368 26.1419C739.9 28.513 738.852 31.0531 738.267 33.7454L749.993 36.2946ZM751.532 32.5213C752.338 31.2544 753.457 30.0149 754.978 28.825L747.582 19.375C745.116 21.3051 743.028 23.5323 741.408 26.0787L751.532 32.5213ZM755.015 28.7956C757.904 26.4977 760.602 25.6248 763.247 25.6787L763.492 13.6812C757.644 13.5619 752.283 15.6356 747.545 19.4044L755.015 28.7956ZM763.37 25.68C766.02 25.68 768.137 26.5793 770.061 28.6132L778.779 20.3668C774.636 15.9873 769.387 13.68 763.37 13.68V25.68ZM769.926 28.4654C771.854 30.6449 774.448 33.7055 777.724 37.6713L786.976 30.0287C783.665 26.0211 780.973 22.8418 778.914 20.5146L769.926 28.4654ZM777.816 37.7796C781.107 41.5774 784.363 45.5939 787.583 49.8305L797.137 42.5695C793.77 38.1394 790.353 33.9226 786.884 29.9204L777.816 37.7796ZM797.334 49.5548C799.776 45.9341 802.391 42.3068 805.18 38.6729L795.66 31.3671C792.729 35.1866 789.97 39.0125 787.385 42.8452L797.334 49.5548ZM805.22 38.62C807.971 34.9514 810.748 31.5966 813.548 28.5497L804.712 20.4302C801.618 23.7967 798.588 27.4619 795.62 31.42L805.22 38.62ZM813.489 28.6132C815.466 26.5226 817.518 25.68 819.92 25.68V13.68C814.001 13.68 808.86 16.044 804.771 20.3668L813.489 28.6132ZM820.042 25.6787C822.695 25.6246 825.457 26.5031 828.456 28.8361L835.823 19.3639C831.023 15.6302 825.638 13.562 819.797 13.6812L820.042 25.6787ZM828.34 28.7437C829.798 29.936 830.917 31.1991 831.758 32.5212L841.882 26.0787C840.297 23.5875 838.295 21.384 835.939 19.4563L828.34 28.7437ZM831.828 32.6282C832.655 33.8696 833.164 35.0858 833.427 36.2946L845.153 33.7454C844.549 30.9675 843.411 28.3704 841.812 25.9718L831.828 32.6282ZM833.427 36.2946C833.678 37.448 833.678 38.572 833.427 39.7254L845.153 42.2746C845.769 39.4413 845.769 36.5787 845.153 33.7454L833.427 36.2946ZM833.379 39.972C833.202 40.9888 832.77 42.0667 831.937 43.2326L841.702 50.2074C843.47 47.7333 844.685 44.9979 845.201 42.028L833.379 39.972ZM831.933 43.2389C827.422 49.572 823.083 55.689 818.918 61.5899L828.722 68.5101C832.876 62.6243 837.205 56.5213 841.707 50.2011L831.933 43.2389ZM818.908 61.6043C814.925 67.2824 810.506 73.1048 805.647 79.0714L814.952 86.6486C819.974 80.4819 824.568 74.4309 828.732 68.4957L818.908 61.6043ZM805.744 78.9553C804.592 80.2996 803.52 82.2393 803.52 84.68H815.52C815.52 85.9073 814.968 86.6338 814.855 86.7647L805.744 78.9553ZM803.601 85.6664C803.877 87.3218 804.628 88.9239 805.927 90.2226L814.412 81.7374C815.018 82.3428 815.336 83.0782 815.438 83.6936L803.601 85.6664ZM806.422 90.6652C807.842 91.8016 809.622 92.5 811.6 92.5V80.5C812.021 80.5 812.467 80.5729 812.903 80.7312C813.334 80.8879 813.672 81.0982 813.918 81.2948L806.422 90.6652ZM811.6 92.5C814.125 92.5 816.142 91.3531 817.532 89.9626L809.047 81.4774C809.197 81.3274 809.495 81.0732 809.963 80.8572C810.451 80.6319 811.015 80.5 811.6 80.5V92.5ZM817.966 89.4793L823.296 82.8493L813.944 75.3307L808.614 81.9607L817.966 89.4793ZM813.839 82.7152L831.779 106.375L841.341 99.1248L823.401 75.4648L813.839 82.7152Z" fill="white" mask="url(#path-1-outside-1_90_180)"/>
</g>
<defs>
<clipPath id="clip0_90_180">
<rect width="855" height="150" fill="white"/>
</clipPath>
</defs>
</svg>
