<svg width="855" height="150" viewBox="0 0 830 114" fill="none" xmlns="http://www.w3.org/2000/svg">
<path d="M20.7725 45.49C17.6525 45.49 14.7925 44.97 12.1925 43.93C9.67917 42.89 7.5125 41.46 5.6925 39.64C3.95917 37.7333 2.5725 35.48 1.5325 32.88C0.579167 30.28 0.1025 27.42 0.1025 24.3C0.1025 17.7133 1.96583 12.5567 5.6925 8.82999C9.50583 5.10333 14.5325 3.02333 20.7725 2.59C25.7992 2.15666 30.4792 1.89666 34.8125 1.81C39.2325 1.63666 43.5658 1.54999 47.8125 1.54999C51.9725 1.54999 56.1758 1.63666 60.4225 1.81C64.7558 1.98333 69.3492 2.24333 74.2025 2.59C80.4425 3.02333 85.4258 5.14666 89.1525 8.96C92.9658 12.6867 94.8725 17.7133 94.8725 24.04C94.8725 27.16 94.3525 30.0633 93.3125 32.75C92.3592 35.35 90.9725 37.6033 89.1525 39.51C87.3325 41.4167 85.1658 42.89 82.6525 43.93C80.1392 44.97 77.3225 45.49 74.2025 45.49H69.9125C69.4792 43.7567 68.9592 41.9367 68.3525 40.03C67.8325 38.1233 67.3125 36.39 66.7925 34.83C66.5325 34.2233 66.1425 33.8333 65.6225 33.66C65.1892 33.4867 64.7558 33.4433 64.3225 33.53C63.8892 33.53 63.4992 33.7033 63.1525 34.05C62.8925 34.31 62.8492 34.6567 63.0225 35.09C64.4092 39.4233 65.5792 44.1033 66.5325 49.13C67.4858 54.1567 68.1792 59.1833 68.6125 64.21C69.1325 69.2367 69.4358 74.1333 69.5225 78.9C69.6958 83.58 69.6525 87.74 69.3925 91.38C69.1325 94.0667 68.5258 96.71 67.5725 99.31C66.6192 101.823 65.2325 104.077 63.4125 106.07C61.6792 108.063 59.5125 109.667 56.9125 110.88C54.3125 112.093 51.1925 112.7 47.5525 112.7C43.9992 112.7 40.8792 112.093 38.1925 110.88C35.5925 109.667 33.3825 108.063 31.5625 106.07C29.8292 104.077 28.4425 101.823 27.4025 99.31C26.4492 96.71 25.8858 94.0667 25.7125 91.38C25.1925 84.0133 25.1925 76.5167 25.7125 68.89C26.2325 61.2633 27.4458 53.4633 29.3525 45.49H20.7725ZM102.428 92.68C101.734 87.1333 101.301 81.4133 101.128 75.52C100.954 69.6267 100.868 63.43 100.868 56.93C100.868 50.43 100.954 44.2333 101.128 38.34C101.301 32.4467 101.734 26.77 102.428 21.31C102.861 17.15 104.334 13.7267 106.848 11.04C109.448 8.35333 112.654 6.22999 116.468 4.66999C120.281 3.02333 124.528 1.89666 129.208 1.29C133.888 0.596663 138.568 0.249995 143.248 0.249995C148.188 0.249995 153.041 0.55333 157.808 1.16C162.661 1.68 166.994 2.80666 170.808 4.53999C174.708 6.27333 177.828 8.74333 180.168 11.95C182.508 15.1567 183.678 19.36 183.678 24.56C183.678 28.8067 182.724 31.4933 180.818 32.62C178.911 33.7467 175.401 33.6167 170.288 32.23C168.554 31.7967 166.734 31.45 164.828 31.19C163.008 30.8433 161.274 30.67 159.628 30.67C154.948 30.67 150.918 31.0167 147.538 31.71C144.158 32.3167 141.081 33.1833 138.308 34.31C137.614 34.57 137.138 34.96 136.878 35.48C136.618 36 136.531 36.52 136.618 37.04C136.791 37.4733 137.094 37.82 137.528 38.08C138.048 38.2533 138.698 38.21 139.478 37.95C142.338 36.91 145.458 36.13 148.838 35.61C152.218 35.09 155.511 34.83 158.718 34.83C162.011 34.7433 165.088 34.96 167.948 35.48C170.808 36 173.104 36.78 174.838 37.82C177.871 39.7267 180.081 42.1533 181.468 45.1C182.941 48.0467 183.678 51.99 183.678 56.93C183.678 61.87 182.941 65.8567 181.468 68.89C180.081 71.8367 177.871 74.22 174.838 76.04C173.104 77.1667 170.808 77.99 167.948 78.51C165.088 79.03 162.011 79.29 158.718 79.29C155.511 79.2033 152.218 78.9 148.838 78.38C145.458 77.7733 142.338 76.95 139.478 75.91C138.698 75.65 138.048 75.65 137.528 75.91C137.094 76.17 136.791 76.5167 136.618 76.95C136.531 77.3833 136.618 77.86 136.878 78.38C137.138 78.9 137.614 79.29 138.308 79.55C141.081 80.6767 144.158 81.5433 147.538 82.15C150.918 82.7567 154.948 83.06 159.628 83.06C161.274 83.06 163.008 82.93 164.828 82.67C166.734 82.41 168.554 82.0633 170.288 81.63C175.401 80.33 178.911 80.2433 180.818 81.37C182.724 82.41 183.678 85.01 183.678 89.17C183.678 94.37 182.508 98.5733 180.168 101.78C177.828 104.987 174.708 107.457 170.808 109.19C166.994 111.01 162.661 112.18 157.808 112.7C153.041 113.307 148.188 113.61 143.248 113.61C138.568 113.61 133.888 113.263 129.208 112.57C124.528 111.963 120.281 110.837 116.468 109.19C112.654 107.63 109.448 105.507 106.848 102.82C104.334 100.133 102.861 96.7533 102.428 92.68ZM195.104 92.68C194.41 87.1333 193.977 81.4133 193.804 75.52C193.63 69.6267 193.544 63.43 193.544 56.93C193.544 50.43 193.63 44.2333 193.804 38.34C193.977 32.4467 194.41 26.77 195.104 21.31C195.537 17.15 197.01 13.7267 199.524 11.04C202.124 8.35333 205.33 6.22999 209.144 4.66999C212.957 3.02333 217.204 1.89666 221.884 1.29C226.564 0.596663 231.244 0.249995 235.924 0.249995C240.864 0.249995 245.717 0.55333 250.484 1.16C255.337 1.68 259.67 2.80666 263.484 4.53999C267.384 6.27333 270.504 8.74333 272.844 11.95C275.184 15.1567 276.354 19.36 276.354 24.56C276.354 28.8067 275.4 31.4933 273.494 32.62C271.587 33.7467 268.077 33.6167 262.964 32.23C261.23 31.7967 259.41 31.45 257.504 31.19C255.684 30.8433 253.95 30.67 252.304 30.67C247.624 30.67 243.594 31.0167 240.214 31.71C236.834 32.3167 233.757 33.1833 230.984 34.31C230.29 34.57 229.814 34.96 229.554 35.48C229.294 36 229.207 36.52 229.294 37.04C229.467 37.4733 229.77 37.82 230.204 38.08C230.724 38.2533 231.374 38.21 232.154 37.95C235.014 36.91 238.134 36.13 241.514 35.61C244.894 35.09 248.187 34.83 251.394 34.83C254.687 34.7433 257.764 34.96 260.624 35.48C263.484 36 265.78 36.78 267.514 37.82C270.547 39.7267 272.757 42.1533 274.144 45.1C275.617 48.0467 276.354 51.99 276.354 56.93C276.354 61.87 275.617 65.8567 274.144 68.89C272.757 71.8367 270.547 74.22 267.514 76.04C265.78 77.1667 263.484 77.99 260.624 78.51C257.764 79.03 254.687 79.29 251.394 79.29C248.187 79.2033 244.894 78.9 241.514 78.38C238.134 77.7733 235.014 76.95 232.154 75.91C231.374 75.65 230.724 75.65 230.204 75.91C229.77 76.17 229.467 76.5167 229.294 76.95C229.207 77.3833 229.294 77.86 229.554 78.38C229.814 78.9 230.29 79.29 230.984 79.55C233.757 80.6767 236.834 81.5433 240.214 82.15C243.594 82.7567 247.624 83.06 252.304 83.06C253.95 83.06 255.684 82.93 257.504 82.67C259.41 82.41 261.23 82.0633 262.964 81.63C268.077 80.33 271.587 80.2433 273.494 81.37C275.4 82.41 276.354 85.01 276.354 89.17C276.354 94.37 275.184 98.5733 272.844 101.78C270.504 104.987 267.384 107.457 263.484 109.19C259.67 111.01 255.337 112.18 250.484 112.7C245.717 113.307 240.864 113.61 235.924 113.61C231.244 113.61 226.564 113.263 221.884 112.57C217.204 111.963 212.957 110.837 209.144 109.19C205.33 107.63 202.124 105.507 199.524 102.82C197.01 100.133 195.537 96.7533 195.104 92.68ZM324.699 57.58C324.699 60.44 324.613 63.5167 324.439 66.81C324.353 70.0167 324.223 73.2667 324.049 76.56C323.876 79.8533 323.659 83.1033 323.399 86.31C323.139 89.5167 322.879 92.5067 322.619 95.28C322.359 97.7067 321.839 99.96 321.059 102.04C320.279 104.207 319.153 106.07 317.679 107.63C316.293 109.19 314.559 110.403 312.479 111.27C310.486 112.223 308.146 112.7 305.459 112.7C302.686 112.7 300.259 112.223 298.179 111.27C296.186 110.403 294.453 109.19 292.979 107.63C291.593 106.07 290.509 104.207 289.729 102.04C288.949 99.96 288.429 97.7067 288.169 95.28C286.869 82.8867 286.219 70.1467 286.219 57.06C286.219 43.9733 286.869 31.2333 288.169 18.84C288.429 16.4133 288.949 14.16 289.729 12.08C290.509 10 291.593 8.18 292.979 6.62C294.453 5.06 296.186 3.84666 298.179 2.98C300.259 2.02666 302.686 1.54999 305.459 1.54999C308.579 1.54999 311.223 2.11333 313.389 3.24C315.643 4.36666 317.506 5.92666 318.979 7.92C321.926 11.7333 324.526 15.8067 326.779 20.14C329.119 24.3867 331.373 28.7633 333.539 33.27C335.706 37.69 337.829 42.1533 339.909 46.66C342.076 51.1667 344.416 55.5 346.929 59.66C347.189 60.18 347.493 60.5267 347.839 60.7C348.273 60.8733 348.619 60.8733 348.879 60.7C349.226 60.44 349.443 60.0933 349.529 59.66C349.703 59.2267 349.616 58.7067 349.269 58.1C347.883 55.3267 346.626 52.9 345.499 50.82C344.373 48.6533 343.116 46.3133 341.729 43.8C341.903 39.4667 342.119 35.1333 342.379 30.8C342.639 26.38 342.943 22.3933 343.289 18.84C343.636 16.4133 344.199 14.16 344.979 12.08C345.846 10 346.973 8.18 348.359 6.62C349.833 5.06 351.566 3.84666 353.559 2.98C355.553 2.02666 357.936 1.54999 360.709 1.54999C363.396 1.54999 365.736 2.02666 367.729 2.98C369.809 3.84666 371.543 5.06 372.929 6.62C374.403 8.18 375.529 10 376.309 12.08C377.176 14.16 377.783 16.4133 378.129 18.84C379.343 31.2333 379.949 43.9733 379.949 57.06C379.949 70.1467 379.343 82.8867 378.129 95.28C377.783 97.7067 377.176 99.96 376.309 102.04C375.529 104.207 374.403 106.07 372.929 107.63C371.543 109.19 369.809 110.403 367.729 111.27C365.736 112.223 363.396 112.7 360.709 112.7C356.896 112.7 353.776 111.833 351.349 110.1C349.009 108.367 347.103 106.157 345.629 103.47C343.896 100.523 342.206 97.1 340.559 93.2C338.913 89.3 337.223 85.27 335.489 81.11C333.843 76.95 332.109 72.8333 330.289 68.76C328.469 64.6867 326.606 60.96 324.699 57.58ZM418.67 74.22C414.77 71.7067 411.13 68.4567 407.75 64.47C404.457 60.3967 401.51 55.9333 398.91 51.08C396.397 46.2267 394.273 41.1567 392.54 35.87C390.893 30.4967 389.68 25.2967 388.9 20.27C388.38 16.8033 388.597 13.8567 389.55 11.43C390.503 9.00333 391.933 7.09666 393.84 5.70999C395.747 4.23666 397.957 3.19666 400.47 2.59C402.983 1.89666 405.627 1.54999 408.4 1.54999C415.507 1.54999 420.793 3.19666 424.26 6.48999C427.813 9.78333 429.85 15.07 430.37 22.35C430.457 24.2567 430.63 26.4233 430.89 28.85C431.237 31.19 431.627 33.66 432.06 36.26C432.493 38.86 433.013 41.5467 433.62 44.32C434.227 47.0067 434.92 49.5633 435.7 51.99C435.96 52.77 436.35 53.29 436.87 53.55C437.39 53.81 437.867 53.8967 438.3 53.81C438.82 53.6367 439.21 53.3333 439.47 52.9C439.817 52.4667 439.903 51.9033 439.73 51.21C439.297 49.3033 438.863 47.1367 438.43 44.71C437.997 42.2833 437.563 39.8133 437.13 37.3C436.783 34.7 436.48 32.23 436.22 29.89C435.96 27.55 435.743 25.5133 435.57 23.78C435.137 19.36 435.44 15.72 436.48 12.86C437.52 9.91333 439.167 7.61667 441.42 5.97C443.673 4.32333 446.447 3.19666 449.74 2.59C453.033 1.89666 456.63 1.54999 460.53 1.54999C469.803 1.54999 476.39 3.63 480.29 7.79C484.19 11.8633 485.317 17.5833 483.67 24.95C482.457 30.2367 480.94 35.4367 479.12 40.55C477.3 45.5767 475.177 50.3 472.75 54.72C470.41 59.0533 467.853 62.91 465.08 66.29C462.307 69.67 459.447 72.3133 456.5 74.22C456.413 75.4333 456.327 76.9933 456.24 78.9C456.153 80.8067 456.067 82.8 455.98 84.88C455.893 86.8733 455.763 88.8233 455.59 90.73C455.503 92.6367 455.417 94.1533 455.33 95.28C455.07 97.7067 454.507 99.96 453.64 102.04C452.773 104.207 451.603 106.07 450.13 107.63C448.657 109.19 446.88 110.403 444.8 111.27C442.72 112.223 440.337 112.7 437.65 112.7C434.877 112.7 432.407 112.223 430.24 111.27C428.16 110.403 426.383 109.19 424.91 107.63C423.437 106.07 422.267 104.207 421.4 102.04C420.533 99.96 419.97 97.7067 419.71 95.28C419.363 91.64 419.147 88.13 419.06 84.75C418.973 81.37 418.843 77.86 418.67 74.22ZM604.497 56.28C609.09 57.7533 612.427 60.6567 614.507 64.99C616.674 69.3233 617.757 75.26 617.757 82.8C617.757 87.48 616.934 91.5967 615.287 95.15C613.64 98.6167 611.3 101.563 608.267 103.99C605.32 106.417 601.724 108.323 597.477 109.71C593.23 111.183 588.507 112.223 583.307 112.83C578.194 113.35 572.734 113.61 566.927 113.61C563.027 113.61 559.17 113.48 555.357 113.22C551.544 113.047 547.947 112.787 544.567 112.44C542.14 112.18 539.714 111.487 537.287 110.36C534.947 109.233 532.824 107.717 530.917 105.81C529.01 103.903 527.407 101.607 526.107 98.92C524.894 96.2333 524.157 93.2 523.897 89.82C523.204 78.5533 522.9 67.6333 522.987 57.06C523.16 46.4867 523.507 35.48 524.027 24.04C524.2 20.5733 524.894 17.4967 526.107 14.81C527.407 12.1233 529.01 9.82667 530.917 7.92C532.824 6.01333 534.947 4.53999 537.287 3.49999C539.714 2.37333 542.14 1.68 544.567 1.42C547.86 1.07333 551.37 0.813329 555.097 0.639998C558.91 0.379996 562.767 0.249995 566.667 0.249995C572.647 0.0766642 578.194 0.336663 583.307 1.02999C588.507 1.55 593.144 2.41667 597.217 3.63C601.29 4.75666 604.714 6.44666 607.487 8.7C610.26 10.9533 612.34 13.9 613.727 17.54C615.2 21.0933 615.937 25.5133 615.937 30.8C615.937 33.8333 615.547 36.8233 614.767 39.77C613.987 42.63 612.644 45.1867 610.737 47.44C608.917 49.6067 606.404 51.3833 603.197 52.77C600.077 54.07 596.177 54.72 591.497 54.72C590.977 54.72 590.587 54.9367 590.327 55.37C590.067 55.7167 589.937 56.15 589.937 56.67C589.937 57.19 590.067 57.6667 590.327 58.1C590.587 58.4467 590.977 58.62 591.497 58.62C593.317 58.62 595.354 58.49 597.607 58.23C599.947 57.97 602.244 57.32 604.497 56.28ZM558.087 37.3C563.374 40.2467 569.094 41.3733 575.247 40.68C576.027 40.5933 576.59 40.29 576.937 39.77C577.284 39.25 577.457 38.6867 577.457 38.08C577.457 37.4733 577.284 36.9533 576.937 36.52C576.677 36.0867 576.287 35.87 575.767 35.87C572.474 36.0433 569.57 35.9133 567.057 35.48C564.544 34.96 561.9 34.0933 559.127 32.88C558.607 32.62 558.13 32.6633 557.697 33.01C557.264 33.27 556.96 33.66 556.787 34.18C556.614 34.7 556.614 35.2633 556.787 35.87C556.96 36.4767 557.394 36.9533 558.087 37.3ZM558.087 75.52C563.374 78.4667 569.094 79.5933 575.247 78.9C576.027 78.8133 576.59 78.51 576.937 77.99C577.284 77.47 577.457 76.9067 577.457 76.3C577.457 75.6933 577.284 75.1733 576.937 74.74C576.677 74.3067 576.287 74.09 575.767 74.09C572.474 74.2633 569.57 74.09 567.057 73.57C564.544 73.05 561.9 72.1833 559.127 70.97C558.607 70.71 558.13 70.7533 557.697 71.1C557.264 71.36 556.96 71.75 556.787 72.27C556.614 72.79 556.614 73.3967 556.787 74.09C556.96 74.6967 557.394 75.1733 558.087 75.52ZM676.767 113.61C667.753 113.61 659.997 112.267 653.497 109.58C646.997 106.98 641.623 103.253 637.377 98.4C633.217 93.46 630.097 87.5233 628.017 80.59C626.023 73.57 625.027 65.6833 625.027 56.93C625.027 48.1767 625.937 40.3333 627.757 33.4C629.577 26.38 632.523 20.4433 636.597 15.59C640.67 10.65 646 6.88 652.587 4.28C659.173 1.59333 667.233 0.249995 676.767 0.249995C686.3 0.249995 694.36 1.59333 700.947 4.28C707.533 6.88 712.863 10.65 716.937 15.59C721.01 20.4433 723.957 26.38 725.777 33.4C727.597 40.3333 728.507 48.1767 728.507 56.93C728.507 65.6833 727.467 73.57 725.387 80.59C723.393 87.5233 720.273 93.46 716.027 98.4C711.867 103.253 706.493 106.98 699.907 109.58C693.407 112.267 685.693 113.61 676.767 113.61ZM672.087 65.38C671.74 65.8133 671.697 66.2467 671.957 66.68C672.217 67.1133 672.607 67.4167 673.127 67.59C673.647 67.7633 674.21 67.8067 674.817 67.72C675.51 67.6333 676.073 67.33 676.507 66.81C678.327 64.21 679.54 61.2633 680.147 57.97C680.753 54.6767 681.1 51.3833 681.187 48.09C681.187 47.31 680.97 46.7467 680.537 46.4C680.103 46.0533 679.583 45.88 678.977 45.88C678.457 45.7933 677.937 45.88 677.417 46.14C676.897 46.4 676.637 46.79 676.637 47.31C676.463 50.5167 676.03 53.55 675.337 56.41C674.643 59.27 673.56 62.26 672.087 65.38ZM825.56 84.75C828.16 88.3033 829.07 92.2033 828.29 96.45C827.597 100.697 825.43 104.423 821.79 107.63C817.89 110.837 813.773 112.483 809.44 112.57C805.193 112.657 801.553 111.183 798.52 108.15C797.133 106.763 795.617 105.16 793.97 103.34C792.323 101.607 790.677 99.83 789.03 98.01C787.47 96.1033 785.953 94.24 784.48 92.42C783.007 90.6 781.75 88.9533 780.71 87.48C778.197 91.0333 775.38 94.5867 772.26 98.14C769.14 101.607 766.02 104.943 762.9 108.15C759.867 111.183 756.183 112.657 751.85 112.57C747.517 112.483 743.443 110.837 739.63 107.63C737.81 106.07 736.337 104.293 735.21 102.3C734.083 100.393 733.347 98.4433 733 96.45C732.653 94.37 732.697 92.3333 733.13 90.34C733.65 88.3467 734.603 86.4833 735.99 84.75C740.063 79.29 744.093 73.83 748.08 68.37C752.153 62.91 756.4 57.58 760.82 52.38C761.427 51.6867 761.687 51.0367 761.6 50.43C761.513 49.7367 761.253 49.2167 760.82 48.87C760.387 48.4367 759.867 48.22 759.26 48.22C758.653 48.1333 758.09 48.35 757.57 48.87L753.54 53.55C750.073 48.87 746.823 44.45 743.79 40.29C740.757 36.13 738.027 32.2733 735.6 28.72C734.3 26.9 733.433 24.9933 733 23C732.653 21.0067 732.697 19.0133 733.13 17.02C733.563 15.0267 734.343 13.12 735.47 11.3C736.683 9.39333 738.287 7.66 740.28 6.1C744.093 3.06666 748.123 1.59333 752.37 1.67999C756.703 1.67999 760.387 3.28333 763.42 6.48999C765.413 8.74333 768.057 11.8633 771.35 15.85C774.73 19.75 778.067 23.8667 781.36 28.2C783.873 24.4733 786.56 20.7467 789.42 17.02C792.28 13.2067 795.183 9.69666 798.13 6.48999C801.163 3.28333 804.76 1.67999 808.92 1.67999C813.167 1.59333 817.24 3.06666 821.14 6.1C823.047 7.66 824.607 9.39333 825.82 11.3C827.033 13.12 827.857 15.0267 828.29 17.02C828.723 19.0133 828.723 21.0067 828.29 23C827.943 24.9933 827.12 26.9 825.82 28.72C821.313 35.0467 816.98 41.1567 812.82 47.05C808.747 52.8567 804.24 58.7933 799.3 64.86C798.78 65.4667 798.52 66.0733 798.52 66.68C798.607 67.2 798.823 67.6333 799.17 67.98C799.603 68.3267 800.08 68.5 800.6 68.5C801.207 68.5 801.77 68.24 802.29 67.72L807.62 61.09L825.56 84.75Z" fill="#FFB400"/>
</svg>
